RecursiveMonoVar-CasualSemiBold.ufo
<glyph name="exclam" format="1">
  <advance width="600"/>
  <unicode hex="0021"/>
  <outline>
    <contour>
      <point x="347" y="273" type="line"/>
      <point x="360" y="342"/>
      <point x="371" y="439"/>
      <point x="371" y="509" type="curve"/>
      <point x="371" y="651" type="line" smooth="yes"/>
      <point x="371" y="693"/>
      <point x="330" y="710"/>
      <point x="269" y="710" type="curve" smooth="yes"/>
      <point x="250" y="710"/>
      <point x="235" y="709"/>
      <point x="218" y="704" type="curve"/>
      <point x="226" y="669"/>
      <point x="229" y="632"/>
      <point x="229" y="593" type="curve" smooth="yes"/>
      <point x="229" y="512" type="line"/>
      <point x="229" y="419"/>
      <point x="238" y="316"/>
      <point x="258" y="297" type="curve" smooth="yes"/>
      <point x="273" y="281"/>
      <point x="300" y="273"/>
      <point x="336" y="273" type="curve"/>
    </contour>
    <contour>
      <point x="390" y="0" type="curve"/>
      <point x="390" y="112" type="line" smooth="yes"/>
      <point x="390" y="165"/>
      <point x="336" y="178"/>
      <point x="279" y="178" type="curve" smooth="yes"/>
      <point x="256" y="178"/>
      <point x="231" y="175"/>
      <point x="210" y="169" type="curve"/>
      <point x="210" y="57" type="line" smooth="yes"/>
      <point x="210" y="4"/>
      <point x="264" y="-9"/>
      <point x="321" y="-9" type="curve" smooth="yes"/>
      <point x="344" y="-9"/>
      <point x="369" y="-6"/>
    </contour>
  </outline>
</glyph>
<glyph name="numbersign" format="1">
  <advance width="600"/>
  <unicode hex="0023"/>
  <outline>
    <contour>
      <point x="185" y="715" type="curve"/>
      <point x="185" y="513"/>
      <point x="157" y="240"/>
      <point x="49" y="-10" type="curve"/>
      <point x="59" y="-16"/>
      <point x="69" y="-20"/>
      <point x="91" y="-20" type="curve"/>
      <point x="122" y="-20"/>
      <point x="143" y="-13"/>
      <point x="152" y="8" type="curve" smooth="yes"/>
      <point x="252" y="257"/>
      <point x="279" y="503"/>
      <point x="279" y="691" type="curve" smooth="yes"/>
      <point x="279" y="712"/>
      <point x="257" y="720"/>
      <point x="225" y="720" type="curve" smooth="yes"/>
      <point x="211" y="720"/>
      <point x="197" y="719"/>
    </contour>
    <contour>
      <point x="403" y="715" type="curve"/>
      <point x="403" y="514"/>
      <point x="375" y="240"/>
      <point x="267" y="-10" type="curve"/>
      <point x="277" y="-16"/>
      <point x="287" y="-20"/>
      <point x="309" y="-20" type="curve"/>
      <point x="340" y="-20"/>
      <point x="361" y="-13"/>
      <point x="370" y="8" type="curve" smooth="yes"/>
      <point x="470" y="257"/>
      <point x="497" y="503"/>
      <point x="497" y="691" type="curve" smooth="yes"/>
      <point x="497" y="712"/>
      <point x="475" y="720"/>
      <point x="443" y="720" type="curve" smooth="yes"/>
      <point x="429" y="720"/>
      <point x="415" y="719"/>
    </contour>
    <contour>
      <point x="580" y="430" type="line"/>
      <point x="580" y="435"/>
      <point x="580" y="441"/>
      <point x="580" y="446" type="curve" smooth="yes"/>
      <point x="580" y="483"/>
      <point x="572" y="505"/>
      <point x="559" y="518" type="curve" smooth="yes"/>
      <point x="548" y="529"/>
      <point x="533" y="533"/>
      <point x="502" y="533" type="curve"/>
      <point x="58" y="533" type="line"/>
      <point x="56" y="518"/>
      <point x="54" y="502"/>
      <point x="54" y="488" type="curve" smooth="yes"/>
      <point x="54" y="447"/>
      <point x="67" y="430"/>
      <point x="110" y="430" type="curve"/>
    </contour>
    <contour>
      <point x="20" y="270" type="line"/>
      <point x="20" y="265"/>
      <point x="20" y="259"/>
      <point x="20" y="254" type="curve" smooth="yes"/>
      <point x="20" y="217"/>
      <point x="28" y="196"/>
      <point x="41" y="182" type="curve" smooth="yes"/>
      <point x="52" y="171"/>
      <point x="67" y="167"/>
      <point x="98" y="167" type="curve"/>
      <point x="542" y="167" type="line"/>
      <point x="544" y="182"/>
      <point x="546" y="198"/>
      <point x="546" y="212" type="curve" smooth="yes"/>
      <point x="546" y="253"/>
      <point x="533" y="270"/>
      <point x="490" y="270" type="curve"/>
    </contour>
  </outline>
</glyph>
<glyph name="percent" format="1">
  <advance width="600"/>
  <unicode hex="0025"/>
  <outline>
    <contour>
      <point x="128" y="664" type="curve"/>
      <point x="197" y="664"/>
      <point x="231" y="630"/>
      <point x="231" y="551" type="curve" smooth="yes"/>
      <point x="231" y="546" type="line" smooth="yes"/>
      <point x="231" y="486"/>
      <point x="203" y="452"/>
      <point x="147" y="452" type="curve" smooth="yes"/>
      <point x="119" y="452"/>
      <point x="103" y="460"/>
      <point x="82" y="486" type="curve"/>
      <point x="41" y="441"/>
      <point x="107" y="356"/>
      <point x="166" y="356" type="curve" smooth="yes"/>
      <point x="263" y="356"/>
      <point x="325" y="425"/>
      <point x="325" y="533" type="curve" smooth="yes"/>
      <point x="325" y="539" type="line" smooth="yes"/>
      <point x="325" y="640"/>
      <point x="262" y="710"/>
      <point x="173" y="710" type="curve" smooth="yes"/>
      <point x="147" y="710"/>
      <point x="128" y="691"/>
    </contour>
    <contour>
      <point x="201" y="408" type="curve"/>
      <point x="134" y="408"/>
      <point x="94" y="456"/>
      <point x="94" y="522" type="curve" smooth="yes"/>
      <point x="94" y="527" type="line" smooth="yes"/>
      <point x="94" y="591"/>
      <point x="127" y="635"/>
      <point x="176" y="635" type="curve" smooth="yes"/>
      <point x="211" y="635"/>
      <point x="229" y="629"/>
      <point x="258" y="603" type="curve"/>
      <point x="291" y="638"/>
      <point x="232" y="710"/>
      <point x="173" y="710" type="curve" smooth="yes"/>
      <point x="79" y="710"/>
      <point x="16" y="637"/>
      <point x="16" y="529" type="curve" smooth="yes"/>
      <point x="16" y="523" type="line" smooth="yes"/>
      <point x="16" y="420"/>
      <point x="73" y="356"/>
      <point x="166" y="356" type="curve" smooth="yes"/>
      <point x="192" y="356"/>
      <point x="201" y="379"/>
    </contour>
    <contour>
      <point x="387" y="298" type="curve"/>
      <point x="456" y="298"/>
      <point x="490" y="264"/>
      <point x="490" y="185" type="curve" smooth="yes"/>
      <point x="490" y="180" type="line" smooth="yes"/>
      <point x="490" y="120"/>
      <point x="462" y="86"/>
      <point x="406" y="86" type="curve" smooth="yes"/>
      <point x="378" y="86"/>
      <point x="362" y="94"/>
      <point x="341" y="120" type="curve"/>
      <point x="300" y="75"/>
      <point x="366" y="-10"/>
      <point x="425" y="-10" type="curve" smooth="yes"/>
      <point x="522" y="-10"/>
      <point x="584" y="59"/>
      <point x="584" y="167" type="curve" smooth="yes"/>
      <point x="584" y="173" type="line" smooth="yes"/>
      <point x="584" y="274"/>
      <point x="521" y="344"/>
      <point x="432" y="344" type="curve" smooth="yes"/>
      <point x="406" y="344"/>
      <point x="387" y="325"/>
    </contour>
    <contour>
      <point x="459" y="42" type="curve"/>
      <point x="393" y="42"/>
      <point x="352" y="90"/>
      <point x="352" y="156" type="curve" smooth="yes"/>
      <point x="352" y="161" type="line" smooth="yes"/>
      <point x="352" y="225"/>
      <point x="386" y="269"/>
      <point x="434" y="269" type="curve" smooth="yes"/>
      <point x="470" y="269"/>
      <point x="487" y="263"/>
      <point x="516" y="237" type="curve"/>
      <point x="549" y="272"/>
      <point x="491" y="344"/>
      <point x="432" y="344" type="curve" smooth="yes"/>
      <point x="338" y="344"/>
      <point x="275" y="271"/>
      <point x="275" y="163" type="curve" smooth="yes"/>
      <point x="275" y="157" type="line" smooth="yes"/>
      <point x="275" y="54"/>
      <point x="332" y="-10"/>
      <point x="425" y="-10" type="curve" smooth="yes"/>
      <point x="451" y="-10"/>
      <point x="459" y="13"/>
    </contour>
    <contour>
      <point x="354" y="413" type="curve"/>
      <point x="369" y="404"/>
      <point x="386" y="400"/>
      <point x="410" y="400" type="curve" smooth="yes"/>
      <point x="435" y="400"/>
      <point x="446" y="405"/>
      <point x="463" y="422" type="curve" smooth="yes"/>
      <point x="529" y="487"/>
      <point x="566" y="581"/>
      <point x="566" y="659" type="curve" smooth="yes"/>
      <point x="566" y="691"/>
      <point x="542" y="711"/>
      <point x="495" y="711" type="curve" smooth="yes"/>
      <point x="474" y="711"/>
      <point x="463" y="709"/>
      <point x="448" y="704" type="curve"/>
      <point x="439" y="598"/>
      <point x="416" y="504"/>
    </contour>
    <contour>
      <point x="246" y="287" type="curve"/>
      <point x="231" y="295"/>
      <point x="214" y="300"/>
      <point x="190" y="300" type="curve" smooth="yes"/>
      <point x="165" y="300"/>
      <point x="154" y="295"/>
      <point x="137" y="277" type="curve" smooth="yes"/>
      <point x="72" y="212"/>
      <point x="34" y="118"/>
      <point x="34" y="41" type="curve" smooth="yes"/>
      <point x="34" y="8"/>
      <point x="58" y="-11"/>
      <point x="105" y="-11" type="curve" smooth="yes"/>
      <point x="126" y="-11"/>
      <point x="137" y="-10"/>
      <point x="152" y="-5" type="curve"/>
      <point x="161" y="102"/>
      <point x="184" y="196"/>
    </contour>
  </outline>
</glyph>
<glyph name="quotesingle" format="1">
  <advance width="600"/>
  <unicode hex="0027"/>
  <outline>
    <contour>
      <point x="354" y="443" type="curve"/>
      <point x="366" y="652" type="line" smooth="yes"/>
      <point x="371" y="722"/>
      <point x="337" y="754"/>
      <point x="258" y="754" type="curve" smooth="yes"/>
      <point x="244" y="754"/>
      <point x="231" y="753"/>
      <point x="218" y="750" type="curve"/>
      <point x="227" y="726"/>
      <point x="230" y="704"/>
      <point x="234" y="651" type="curve" smooth="yes"/>
      <point x="244" y="491" type="line" smooth="yes"/>
      <point x="246" y="454"/>
      <point x="265" y="439"/>
      <point x="312" y="439" type="curve" smooth="yes"/>
      <point x="329" y="439"/>
      <point x="343" y="441"/>
    </contour>
  </outline>
</glyph>
<glyph name="parenleft" format="1">
  <advance width="600"/>
  <unicode hex="0028"/>
  <outline>
    <contour>
      <point x="349" y="734" type="curve" smooth="yes"/>
      <point x="247" y="631"/>
      <point x="190" y="476"/>
      <point x="190" y="302" type="curve" smooth="yes"/>
      <point x="190" y="295" type="line" smooth="yes"/>
      <point x="190" y="122"/>
      <point x="248" y="-35"/>
      <point x="349" y="-136" type="curve" smooth="yes"/>
      <point x="374" y="-161"/>
      <point x="397" y="-173"/>
      <point x="424" y="-173" type="curve" smooth="yes"/>
      <point x="460" y="-173"/>
      <point x="483" y="-160"/>
      <point x="500" y="-145" type="curve"/>
      <point x="500" y="-141" type="line"/>
      <point x="385" y="-30"/>
      <point x="320" y="127"/>
      <point x="320" y="295" type="curve" smooth="yes"/>
      <point x="320" y="302" type="line" smooth="yes"/>
      <point x="320" y="470"/>
      <point x="384" y="627"/>
      <point x="500" y="738" type="curve"/>
      <point x="500" y="742" type="line"/>
      <point x="483" y="758"/>
      <point x="460" y="770"/>
      <point x="424" y="770" type="curve" smooth="yes"/>
      <point x="397" y="770"/>
      <point x="374" y="759"/>
    </contour>
  </outline>
</glyph>
<glyph name="parenright" format="1">
  <advance width="600"/>
  <unicode hex="0029"/>
  <outline>
    <contour>
      <point x="251" y="-136" type="curve" smooth="yes"/>
      <point x="353" y="-34"/>
      <point x="410" y="122"/>
      <point x="410" y="295" type="curve" smooth="yes"/>
      <point x="410" y="302" type="line" smooth="yes"/>
      <point x="410" y="476"/>
      <point x="352" y="632"/>
      <point x="251" y="734" type="curve" smooth="yes"/>
      <point x="226" y="759"/>
      <point x="203" y="770"/>
      <point x="176" y="770" type="curve" smooth="yes"/>
      <point x="140" y="770"/>
      <point x="117" y="758"/>
      <point x="100" y="742" type="curve"/>
      <point x="100" y="738" type="line"/>
      <point x="215" y="627"/>
      <point x="280" y="471"/>
      <point x="280" y="302" type="curve" smooth="yes"/>
      <point x="280" y="295" type="line" smooth="yes"/>
      <point x="280" y="128"/>
      <point x="216" y="-30"/>
      <point x="100" y="-141" type="curve"/>
      <point x="100" y="-145" type="line"/>
      <point x="117" y="-160"/>
      <point x="140" y="-173"/>
      <point x="176" y="-173" type="curve" smooth="yes"/>
      <point x="203" y="-173"/>
      <point x="226" y="-161"/>
    </contour>
  </outline>
</glyph>
<glyph name="asterisk" format="1">
  <advance width="600"/>
  <unicode hex="002A"/>
  <outline>
    <contour>
      <point x="235" y="569" type="curve"/>
      <point x="244" y="544"/>
      <point x="251" y="521"/>
      <point x="256" y="486" type="curve" smooth="yes"/>
      <point x="277" y="309" type="line"/>
      <point x="247" y="139" type="line" smooth="yes"/>
      <point x="234" y="78"/>
      <point x="257" y="42"/>
      <point x="319" y="42" type="curve"/>
      <point x="335" y="42"/>
      <point x="351" y="44"/>
      <point x="367" y="50" type="curve"/>
      <point x="358" y="75"/>
      <point x="350" y="98"/>
      <point x="345" y="133" type="curve" smooth="yes"/>
      <point x="325" y="309" type="line"/>
      <point x="355" y="480" type="line" smooth="yes"/>
      <point x="368" y="542"/>
      <point x="344" y="577"/>
      <point x="282" y="577" type="curve" smooth="yes"/>
      <point x="267" y="577"/>
      <point x="251" y="574"/>
    </contour>
    <contour>
      <point x="502" y="487" type="curve"/>
      <point x="284" y="332" type="line"/>
      <point x="88" y="250" type="line" smooth="yes"/>
      <point x="59" y="238"/>
      <point x="55" y="203"/>
      <point x="75" y="168" type="curve"/>
      <point x="83" y="155"/>
      <point x="92" y="145"/>
      <point x="102" y="135" type="curve"/>
      <point x="317" y="291" type="line"/>
      <point x="514" y="374" type="line" smooth="yes"/>
      <point x="544" y="386"/>
      <point x="548" y="417"/>
      <point x="526" y="455" type="curve" smooth="yes"/>
      <point x="521" y="465"/>
      <point x="514" y="474"/>
    </contour>
    <contour>
      <point x="554" y="227" type="curve"/>
      <point x="317" y="332" type="line"/>
      <point x="141" y="463" type="line" smooth="yes"/>
      <point x="114" y="484"/>
      <point x="86" y="471"/>
      <point x="64" y="435" type="curve"/>
      <point x="56" y="423"/>
      <point x="52" y="409"/>
      <point x="48" y="396" type="curve"/>
      <point x="284" y="291" type="line"/>
      <point x="461" y="158" type="line" smooth="yes"/>
      <point x="487" y="138"/>
      <point x="516" y="150"/>
      <point x="538" y="188" type="curve"/>
      <point x="544" y="199"/>
      <point x="549" y="210"/>
    </contour>
  </outline>
</glyph>
<glyph name="plus" format="1">
  <advance width="600"/>
  <unicode hex="002B"/>
  <outline>
    <contour>
      <point x="53" y="358" type="line"/>
      <point x="53" y="353"/>
      <point x="53" y="348"/>
      <point x="53" y="342" type="curve" smooth="yes"/>
      <point x="53" y="298"/>
      <point x="59" y="272"/>
      <point x="74" y="257" type="curve" smooth="yes"/>
      <point x="85" y="246"/>
      <point x="99" y="242"/>
      <point x="131" y="242" type="curve"/>
      <point x="549" y="242" type="line"/>
      <point x="552" y="257"/>
      <point x="554" y="273"/>
      <point x="554" y="287" type="curve" smooth="yes"/>
      <point x="554" y="338"/>
      <point x="541" y="358"/>
      <point x="498" y="358" type="curve"/>
    </contour>
    <contour>
      <point x="358" y="57" type="curve"/>
      <point x="358" y="445" type="line" smooth="yes"/>
      <point x="358" y="488"/>
      <point x="353" y="506"/>
      <point x="336" y="523" type="curve" smooth="yes"/>
      <point x="318" y="541"/>
      <point x="288" y="547"/>
      <point x="264" y="547" type="curve" smooth="yes"/>
      <point x="253" y="547"/>
      <point x="241" y="546"/>
      <point x="231" y="543" type="curve"/>
      <point x="240" y="510"/>
      <point x="243" y="485"/>
      <point x="243" y="443" type="curve" smooth="yes"/>
      <point x="243" y="102" type="line" smooth="yes"/>
      <point x="243" y="60"/>
      <point x="272" y="53"/>
      <point x="317" y="53" type="curve" smooth="yes"/>
      <point x="333" y="53"/>
      <point x="348" y="55"/>
    </contour>
  </outline>
</glyph>
<glyph name="comma" format="1">
  <advance width="600"/>
  <unicode hex="002C"/>
  <outline>
    <contour>
      <point x="264" y="-197" type="curve" smooth="yes"/>
      <point x="282" y="-197"/>
      <point x="292" y="-193"/>
      <point x="301" y="-184" type="curve"/>
      <point x="356" y="-129"/>
      <point x="407" y="-13"/>
      <point x="407" y="87" type="curve"/>
      <point x="407" y="134"/>
      <point x="375" y="151"/>
      <point x="310" y="151" type="curve" smooth="yes"/>
      <point x="288" y="151"/>
      <point x="273" y="149"/>
      <point x="251" y="143" type="curve"/>
      <point x="251" y="6"/>
      <point x="230" y="-84"/>
      <point x="178" y="-170" type="curve"/>
      <point x="203" y="-189"/>
      <point x="227" y="-197"/>
    </contour>
  </outline>
</glyph>
<glyph name="period" format="1">
  <advance width="600"/>
  <unicode hex="002E"/>
  <outline>
    <contour>
      <point x="390" y="0" type="curve"/>
      <point x="390" y="112" type="line" smooth="yes"/>
      <point x="390" y="165"/>
      <point x="336" y="178"/>
      <point x="279" y="178" type="curve" smooth="yes"/>
      <point x="256" y="178"/>
      <point x="231" y="175"/>
      <point x="210" y="169" type="curve"/>
      <point x="210" y="57" type="line" smooth="yes"/>
      <point x="210" y="4"/>
      <point x="264" y="-9"/>
      <point x="321" y="-9" type="curve" smooth="yes"/>
      <point x="344" y="-9"/>
      <point x="369" y="-6"/>
    </contour>
  </outline>
</glyph>
<glyph name="zero" format="1">
  <advance width="600"/>
  <unicode hex="0030"/>
  <outline>
    <contour>
      <point x="303" y="720" type="curve" smooth="yes"/>
      <point x="162" y="720"/>
      <point x="59" y="581"/>
      <point x="59" y="355" type="curve" smooth="yes"/>
      <point x="59" y="312" type="line" smooth="yes"/>
      <point x="59" y="104"/>
      <point x="159" y="-20"/>
      <point x="298" y="-20" type="curve"/>
      <point x="334" y="-20"/>
      <point x="355" y="11"/>
      <point x="355" y="52" type="curve"/>
      <point x="220" y="59"/>
      <point x="174" y="154"/>
      <point x="174" y="291" type="curve" smooth="yes"/>
      <point x="174" y="335" type="line" smooth="yes"/>
      <point x="174" y="489"/>
      <point x="223" y="605"/>
      <point x="319" y="605" type="curve" smooth="yes"/>
      <point x="369" y="605"/>
      <point x="387" y="599"/>
      <point x="417" y="583" type="curve"/>
      <point x="448" y="623"/>
      <point x="381" y="720"/>
    </contour>
    <contour>
      <point x="298" y="-20" type="curve" smooth="yes"/>
      <point x="439" y="-20"/>
      <point x="541" y="106"/>
      <point x="541" y="312" type="curve" smooth="yes"/>
      <point x="541" y="355" type="line" smooth="yes"/>
      <point x="541" y="584"/>
      <point x="442" y="720"/>
      <point x="303" y="720" type="curve"/>
      <point x="266" y="720"/>
      <point x="245" y="689"/>
      <point x="245" y="648" type="curve"/>
      <point x="380" y="641"/>
      <point x="426" y="536"/>
      <point x="426" y="376" type="curve" smooth="yes"/>
      <point x="426" y="332" type="line" smooth="yes"/>
      <point x="426" y="197"/>
      <point x="377" y="95"/>
      <point x="281" y="95" type="curve" smooth="yes"/>
      <point x="231" y="95"/>
      <point x="213" y="101"/>
      <point x="183" y="117" type="curve"/>
      <point x="152" y="74"/>
      <point x="220" y="-20"/>
    </contour>
    <contour>
      <point x="149" y="174" type="curve"/>
      <point x="269" y="254"/>
      <point x="357" y="329"/>
      <point x="446" y="441" type="curve"/>
      <point x="469" y="468"/>
      <point x="473" y="511"/>
      <point x="442" y="546" type="curve"/>
      <point x="337" y="414"/>
      <point x="247" y="329"/>
      <point x="133" y="244" type="curve" smooth="yes"/>
      <point x="113" y="232"/>
      <point x="127" y="200"/>
    </contour>
  </outline>
</glyph>
<glyph name="one" format="1">
  <advance width="600"/>
  <unicode hex="0031"/>
  <outline>
    <contour>
      <point x="393" y="59" type="curve"/>
      <point x="393" y="264"/>
      <point x="393" y="469"/>
      <point x="393" y="673" type="curve" smooth="yes"/>
      <point x="393" y="701"/>
      <point x="349" y="710"/>
      <point x="297" y="710" type="curve" smooth="yes"/>
      <point x="277" y="710" type="line"/>
      <point x="277" y="537"/>
      <point x="277" y="359"/>
      <point x="277" y="186" type="curve" smooth="yes"/>
      <point x="277" y="90"/>
      <point x="328" y="59"/>
    </contour>
    <contour>
      <point x="80" y="116" type="line"/>
      <point x="79" y="110"/>
      <point x="79" y="105"/>
      <point x="79" y="98" type="curve" smooth="yes"/>
      <point x="79" y="55"/>
      <point x="85" y="30"/>
      <point x="99" y="16" type="curve" smooth="yes"/>
      <point x="110" y="4"/>
      <point x="125" y="0"/>
      <point x="159" y="0" type="curve" smooth="yes"/>
      <point x="555" y="0" type="line"/>
      <point x="558" y="10"/>
      <point x="559" y="20"/>
      <point x="559" y="31" type="curve" smooth="yes"/>
      <point x="559" y="80"/>
      <point x="494" y="116"/>
      <point x="373" y="116" type="curve" smooth="yes"/>
    </contour>
    <contour>
      <point x="124" y="431" type="curve" smooth="yes"/>
      <point x="152" y="431"/>
      <point x="192" y="456"/>
      <point x="226" y="490" type="curve" smooth="yes"/>
      <point x="274" y="538"/>
      <point x="306" y="609"/>
      <point x="306" y="660" type="curve" smooth="yes"/>
      <point x="306" y="695"/>
      <point x="291" y="710"/>
      <point x="280" y="710" type="curve"/>
      <point x="264" y="710" type="line"/>
      <point x="242" y="675"/>
      <point x="220" y="645"/>
      <point x="192" y="617" type="curve"/>
      <point x="159" y="584"/>
      <point x="125" y="558"/>
      <point x="83" y="538" type="curve"/>
      <point x="83" y="520" type="line" smooth="yes"/>
      <point x="83" y="463"/>
      <point x="102" y="431"/>
    </contour>
  </outline>
</glyph>
<glyph name="two" format="1">
  <advance width="600"/>
  <unicode hex="0032"/>
  <outline>
    <contour>
      <point x="359" y="628" type="curve"/>
      <point x="396" y="593"/>
      <point x="408" y="572"/>
      <point x="408" y="523" type="curve" smooth="yes"/>
      <point x="408" y="454"/>
      <point x="372" y="406"/>
      <point x="268" y="339" type="curve" smooth="yes"/>
      <point x="123" y="245"/>
      <point x="59" y="177"/>
      <point x="59" y="93" type="curve" smooth="yes"/>
      <point x="59" y="63"/>
      <point x="84" y="51"/>
      <point x="151" y="51" type="curve"/>
      <point x="151" y="130"/>
      <point x="180" y="168"/>
      <point x="327" y="256" type="curve" smooth="yes"/>
      <point x="460" y="336"/>
      <point x="526" y="411"/>
      <point x="526" y="519" type="curve" smooth="yes"/>
      <point x="526" y="523" type="line" smooth="yes"/>
      <point x="526" y="614"/>
      <point x="466" y="670"/>
    </contour>
    <contour>
      <point x="538" y="0" type="line"/>
      <point x="541" y="14"/>
      <point x="543" y="30"/>
      <point x="543" y="45" type="curve" smooth="yes"/>
      <point x="543" y="96"/>
      <point x="530" y="116"/>
      <point x="487" y="116" type="curve" smooth="yes"/>
      <point x="175" y="116" type="line" smooth="yes"/>
      <point x="125" y="116"/>
      <point x="91" y="110"/>
      <point x="59" y="93" type="curve"/>
      <point x="59" y="91"/>
      <point x="59" y="90"/>
      <point x="59" y="89" type="curve" smooth="yes"/>
      <point x="59" y="53"/>
      <point x="87" y="0"/>
      <point x="114" y="0" type="curve" smooth="yes"/>
    </contour>
    <contour>
      <point x="305" y="720" type="curve" smooth="yes"/>
      <point x="225" y="720"/>
      <point x="160" y="699"/>
      <point x="126" y="665" type="curve" smooth="yes"/>
      <point x="100" y="639"/>
      <point x="85" y="602"/>
      <point x="85" y="562" type="curve" smooth="yes"/>
      <point x="85" y="538"/>
      <point x="93" y="517"/>
      <point x="103" y="504" type="curve"/>
      <point x="108" y="504" type="line"/>
      <point x="155" y="572"/>
      <point x="221" y="604"/>
      <point x="310" y="604" type="curve" smooth="yes"/>
      <point x="397" y="604"/>
      <point x="457" y="565"/>
      <point x="457" y="511" type="curve" smooth="yes"/>
      <point x="457" y="491"/>
      <point x="454" y="473"/>
      <point x="448" y="454" type="curve"/>
      <point x="495" y="454"/>
      <point x="526" y="483"/>
      <point x="526" y="523" type="curve" smooth="yes"/>
      <point x="526" y="645"/>
      <point x="436" y="720"/>
    </contour>
  </outline>
</glyph>
<glyph name="three" format="1">
  <advance width="600"/>
  <unicode hex="0033"/>
  <outline>
    <contour>
      <point x="286" y="604" type="curve" smooth="yes"/>
      <point x="397" y="604"/>
      <point x="458" y="548"/>
      <point x="458" y="472" type="curve" smooth="yes"/>
      <point x="458" y="461"/>
      <point x="457" y="452"/>
      <point x="455" y="441" type="curve"/>
      <point x="486" y="443"/>
      <point x="531" y="500"/>
      <point x="531" y="531" type="curve" smooth="yes"/>
      <point x="531" y="543" type="line" smooth="yes"/>
      <point x="531" y="643"/>
      <point x="443" y="720"/>
      <point x="300" y="720" type="curve" smooth="yes"/>
      <point x="214" y="720"/>
      <point x="141" y="693"/>
      <point x="109" y="661" type="curve" smooth="yes"/>
      <point x="85" y="637"/>
      <point x="77" y="615"/>
      <point x="77" y="571" type="curve" smooth="yes"/>
      <point x="77" y="548"/>
      <point x="79" y="533"/>
      <point x="84" y="515" type="curve"/>
      <point x="88" y="515" type="line"/>
      <point x="144" y="577"/>
      <point x="199" y="604"/>
    </contour>
    <contour>
      <point x="210" y="313" type="curve" smooth="yes"/>
      <point x="413" y="313"/>
      <point x="530" y="424"/>
      <point x="530" y="531" type="curve" smooth="yes"/>
      <point x="530" y="564"/>
      <point x="466" y="600"/>
      <point x="431" y="601" type="curve"/>
      <point x="432" y="594"/>
      <point x="432" y="587"/>
      <point x="432" y="577" type="curve" smooth="yes"/>
      <point x="432" y="439"/>
      <point x="329" y="382"/>
      <point x="173" y="382" type="curve"/>
      <point x="170" y="368"/>
      <point x="169" y="360"/>
      <point x="169" y="341" type="curve" smooth="yes"/>
      <point x="169" y="321"/>
      <point x="197" y="313"/>
    </contour>
    <contour>
      <point x="208" y="278" type="curve" smooth="yes"/>
      <point x="338" y="272"/>
      <point x="443" y="225"/>
      <point x="443" y="144" type="curve" smooth="yes"/>
      <point x="443" y="136"/>
      <point x="443" y="130"/>
      <point x="442" y="124" type="curve"/>
      <point x="486" y="126"/>
      <point x="541" y="148"/>
      <point x="541" y="169" type="curve" smooth="yes"/>
      <point x="541" y="296"/>
      <point x="386" y="353"/>
      <point x="174" y="353" type="curve"/>
      <point x="172" y="347"/>
      <point x="169" y="346"/>
      <point x="169" y="341" type="curve" smooth="yes"/>
      <point x="169" y="299"/>
      <point x="179" y="279"/>
    </contour>
    <contour>
      <point x="286" y="96" type="curve" smooth="yes"/>
      <point x="192" y="96"/>
      <point x="129" y="121"/>
      <point x="71" y="185" type="curve"/>
      <point x="67" y="185" type="line"/>
      <point x="62" y="167"/>
      <point x="61" y="152"/>
      <point x="61" y="129" type="curve" smooth="yes"/>
      <point x="61" y="85"/>
      <point x="68" y="63"/>
      <point x="90" y="40" type="curve" smooth="yes"/>
      <point x="126" y="4"/>
      <point x="206" y="-20"/>
      <point x="300" y="-20" type="curve" smooth="yes"/>
      <point x="449" y="-20"/>
      <point x="541" y="56"/>
      <point x="541" y="157" type="curve" smooth="yes"/>
      <point x="541" y="169" type="line" smooth="yes"/>
      <point x="541" y="198"/>
      <point x="494" y="247"/>
      <point x="461" y="249" type="curve"/>
      <point x="462" y="241"/>
      <point x="463" y="232"/>
      <point x="463" y="221" type="curve" smooth="yes"/>
      <point x="463" y="143"/>
      <point x="406" y="96"/>
    </contour>
  </outline>
</glyph>
<glyph name="four" format="1">
  <advance width="600"/>
  <unicode hex="0034"/>
  <outline>
    <contour>
      <point x="137" y="222" type="curve"/>
      <point x="208" y="387"/>
      <point x="367" y="583"/>
      <point x="520" y="675" type="curve"/>
      <point x="520" y="679" type="line"/>
      <point x="502" y="699"/>
      <point x="463" y="712"/>
      <point x="409" y="712" type="curve" smooth="yes"/>
      <point x="372" y="712"/>
      <point x="347" y="702"/>
      <point x="295" y="650" type="curve" smooth="yes"/>
      <point x="167" y="521"/>
      <point x="44" y="337"/>
      <point x="44" y="253" type="curve" smooth="yes"/>
      <point x="44" y="233"/>
      <point x="96" y="222"/>
    </contour>
    <contour>
      <point x="565" y="150" type="line"/>
      <point x="568" y="161"/>
      <point x="569" y="173"/>
      <point x="569" y="184" type="curve" smooth="yes"/>
      <point x="569" y="221"/>
      <point x="560" y="266"/>
      <point x="531" y="266" type="curve" smooth="yes"/>
      <point x="327" y="266" type="line"/>
      <point x="246" y="266"/>
      <point x="132" y="262"/>
      <point x="44" y="253" type="curve"/>
      <point x="44" y="241" type="line" smooth="yes"/>
      <point x="44" y="204"/>
      <point x="54" y="177"/>
      <point x="70" y="161" type="curve" smooth="yes"/>
      <point x="78" y="153"/>
      <point x="85" y="150"/>
      <point x="104" y="150" type="curve" smooth="yes"/>
    </contour>
    <contour>
      <point x="501" y="-3" type="curve"/>
      <point x="493" y="31"/>
      <point x="490" y="57"/>
      <point x="490" y="97" type="curve" smooth="yes"/>
      <point x="490" y="360" type="line" smooth="yes"/>
      <point x="490" y="381"/>
      <point x="453" y="404"/>
      <point x="413" y="404" type="curve" smooth="yes"/>
      <point x="407" y="404" type="line"/>
      <point x="387" y="343"/>
      <point x="367" y="257"/>
      <point x="367" y="195" type="curve"/>
      <point x="367" y="51" type="line" smooth="yes"/>
      <point x="367" y="6"/>
      <point x="416" y="-7"/>
      <point x="460" y="-7" type="curve" smooth="yes"/>
      <point x="475" y="-7"/>
      <point x="489" y="-6"/>
    </contour>
  </outline>
</glyph>
<glyph name="five" format="1">
  <advance width="599"/>
  <unicode hex="0035"/>
  <outline>
    <contour>
      <point x="95" y="700" type="line"/>
      <point x="95" y="693"/>
      <point x="95" y="686"/>
      <point x="95" y="678" type="curve" smooth="yes"/>
      <point x="95" y="635"/>
      <point x="100" y="614"/>
      <point x="115" y="599" type="curve" smooth="yes"/>
      <point x="128" y="587"/>
      <point x="142" y="584"/>
      <point x="166" y="584" type="curve" smooth="yes"/>
      <point x="516" y="584" type="line"/>
      <point x="519" y="597"/>
      <point x="521" y="613"/>
      <point x="521" y="629" type="curve" smooth="yes"/>
      <point x="521" y="680"/>
      <point x="508" y="700"/>
      <point x="465" y="700" type="curve" smooth="yes"/>
    </contour>
    <contour>
      <point x="198" y="290" type="line"/>
      <point x="261" y="660" type="line" smooth="yes"/>
      <point x="266" y="686"/>
      <point x="236" y="700"/>
      <point x="179" y="700" type="curve" smooth="yes"/>
      <point x="156" y="700" type="line"/>
      <point x="93" y="325" type="line" smooth="yes"/>
      <point x="89" y="301"/>
      <point x="127" y="290"/>
      <point x="190" y="290" type="curve" smooth="yes"/>
    </contour>
    <contour>
      <point x="158" y="386" type="curve"/>
      <point x="147" y="322"/>
      <point x="167" y="290"/>
      <point x="198" y="290" type="curve"/>
      <point x="200" y="290"/>
      <point x="201" y="290"/>
      <point x="203" y="290" type="curve" smooth="yes"/>
      <point x="365" y="290"/>
      <point x="460" y="243"/>
      <point x="460" y="143" type="curve" smooth="yes"/>
      <point x="460" y="128"/>
      <point x="459" y="118"/>
      <point x="457" y="104" type="curve"/>
      <point x="500" y="104"/>
      <point x="540" y="149"/>
      <point x="540" y="193" type="curve" smooth="yes"/>
      <point x="540" y="307"/>
      <point x="451" y="386"/>
      <point x="189" y="386" type="curve" smooth="yes"/>
      <point x="178" y="386"/>
      <point x="168" y="386"/>
    </contour>
    <contour>
      <point x="299" y="-20" type="curve" smooth="yes"/>
      <point x="454" y="-20"/>
      <point x="540" y="67"/>
      <point x="540" y="182" type="curve" smooth="yes"/>
      <point x="540" y="193" type="line" smooth="yes"/>
      <point x="540" y="229"/>
      <point x="501" y="261"/>
      <point x="465" y="263" type="curve"/>
      <point x="467" y="254"/>
      <point x="467" y="245"/>
      <point x="467" y="235" type="curve" smooth="yes"/>
      <point x="467" y="230" type="line" smooth="yes"/>
      <point x="467" y="151"/>
      <point x="400" y="96"/>
      <point x="286" y="96" type="curve" smooth="yes"/>
      <point x="191" y="96"/>
      <point x="127" y="122"/>
      <point x="67" y="174" type="curve"/>
      <point x="63" y="174" type="line"/>
      <point x="60" y="163"/>
      <point x="59" y="148"/>
      <point x="59" y="130" type="curve" smooth="yes"/>
      <point x="59" y="95"/>
      <point x="70" y="60"/>
      <point x="89" y="41" type="curve" smooth="yes"/>
      <point x="125" y="5"/>
      <point x="194" y="-20"/>
    </contour>
  </outline>
</glyph>
<glyph name="eight" format="1">
  <advance width="600"/>
  <unicode hex="0038"/>
  <outline>
    <contour>
      <point x="385" y="341" type="curve" smooth="yes"/>
      <point x="294" y="374" type="line" smooth="yes"/>
      <point x="203" y="407"/>
      <point x="178" y="447"/>
      <point x="178" y="501" type="curve" smooth="yes"/>
      <point x="178" y="522"/>
      <point x="180" y="555"/>
      <point x="189" y="589" type="curve"/>
      <point x="128" y="585"/>
      <point x="73" y="565"/>
      <point x="73" y="511" type="curve" smooth="yes"/>
      <point x="73" y="437"/>
      <point x="113" y="352"/>
      <point x="259" y="299" type="curve" smooth="yes"/>
      <point x="348" y="265" type="line" smooth="yes"/>
      <point x="427" y="236"/>
      <point x="446" y="202"/>
      <point x="446" y="129" type="curve" smooth="yes"/>
      <point x="446" y="119"/>
      <point x="446" y="109"/>
      <point x="446" y="97" type="curve"/>
      <point x="489" y="99"/>
      <point x="545" y="138"/>
      <point x="545" y="169" type="curve"/>
      <point x="545" y="218"/>
      <point x="512" y="296"/>
    </contour>
    <contour>
      <point x="293" y="-20" type="curve" smooth="yes"/>
      <point x="449" y="-20"/>
      <point x="545" y="59"/>
      <point x="545" y="163" type="curve" smooth="yes"/>
      <point x="545" y="169" type="line" smooth="yes"/>
      <point x="545" y="187"/>
      <point x="502" y="213"/>
      <point x="472" y="215" type="curve"/>
      <point x="472" y="211"/>
      <point x="472" y="207"/>
      <point x="472" y="203" type="curve" smooth="yes"/>
      <point x="472" y="137"/>
      <point x="402" y="94"/>
      <point x="293" y="94" type="curve" smooth="yes"/>
      <point x="200" y="94"/>
      <point x="155" y="128"/>
      <point x="120" y="195" type="curve"/>
      <point x="40" y="116"/>
      <point x="127" y="-20"/>
    </contour>
    <contour>
      <point x="313" y="720" type="curve" smooth="yes"/>
      <point x="172" y="720"/>
      <point x="73" y="626"/>
      <point x="73" y="514" type="curve" smooth="yes"/>
      <point x="73" y="511" type="line" smooth="yes"/>
      <point x="73" y="475"/>
      <point x="129" y="437"/>
      <point x="188" y="435" type="curve"/>
      <point x="184" y="454"/>
      <point x="178" y="475"/>
      <point x="178" y="501" type="curve" smooth="yes"/>
      <point x="178" y="576"/>
      <point x="255" y="614"/>
      <point x="314" y="614" type="curve" smooth="yes"/>
      <point x="373" y="614"/>
      <point x="417" y="598"/>
      <point x="457" y="557" type="curve"/>
      <point x="515" y="621"/>
      <point x="409" y="720"/>
    </contour>
    <contour>
      <point x="357" y="323" type="curve" smooth="yes"/>
      <point x="433" y="323"/>
      <point x="539" y="411"/>
      <point x="539" y="515" type="curve" smooth="yes"/>
      <point x="539" y="520" type="line" smooth="yes"/>
      <point x="539" y="638"/>
      <point x="436" y="720"/>
      <point x="313" y="720" type="curve" smooth="yes"/>
      <point x="296" y="720"/>
      <point x="275" y="711"/>
      <point x="271" y="663" type="curve"/>
      <point x="369" y="663"/>
      <point x="430" y="610"/>
      <point x="430" y="519" type="curve" smooth="yes"/>
      <point x="430" y="515" type="line" smooth="yes"/>
      <point x="430" y="447"/>
      <point x="382" y="393"/>
      <point x="278" y="348" type="curve"/>
      <point x="303" y="332"/>
      <point x="328" y="323"/>
    </contour>
    <contour>
      <point x="348" y="40" type="curve"/>
      <point x="212" y="40"/>
      <point x="162" y="94"/>
      <point x="162" y="131" type="curve" smooth="yes"/>
      <point x="162" y="134" type="line" smooth="yes"/>
      <point x="162" y="207"/>
      <point x="218" y="268"/>
      <point x="322" y="306" type="curve"/>
      <point x="300" y="325"/>
      <point x="288" y="335"/>
      <point x="251" y="335" type="curve" smooth="yes"/>
      <point x="168" y="335"/>
      <point x="58" y="259"/>
      <point x="58" y="161" type="curve" smooth="yes"/>
      <point x="58" y="155" type="line" smooth="yes"/>
      <point x="58" y="55"/>
      <point x="151" y="-20"/>
      <point x="293" y="-20" type="curve" smooth="yes"/>
      <point x="317" y="-20"/>
      <point x="348" y="6"/>
    </contour>
  </outline>
</glyph>
<glyph name="nine" format="1">
  <advance width="600"/>
  <unicode hex="0039"/>
  <outline>
    <contour>
      <point x="456" y="547" type="curve"/>
      <point x="489" y="620"/>
      <point x="388" y="720"/>
      <point x="290" y="720" type="curve"/>
      <point x="152" y="720"/>
      <point x="58" y="618"/>
      <point x="58" y="461" type="curve" smooth="yes"/>
      <point x="58" y="456" type="line" smooth="yes"/>
      <point x="58" y="337"/>
      <point x="155" y="278"/>
      <point x="211" y="318" type="curve"/>
      <point x="182" y="353"/>
      <point x="174" y="398"/>
      <point x="174" y="450" type="curve" smooth="yes"/>
      <point x="174" y="454" type="line" smooth="yes"/>
      <point x="174" y="544"/>
      <point x="220" y="605"/>
      <point x="302" y="605" type="curve" smooth="yes"/>
      <point x="364" y="605"/>
      <point x="412" y="587"/>
    </contour>
    <contour>
      <point x="433" y="170" type="curve"/>
      <point x="381" y="118"/>
      <point x="318" y="96"/>
      <point x="243" y="96" type="curve" smooth="yes"/>
      <point x="181" y="96"/>
      <point x="140" y="108"/>
      <point x="96" y="136" type="curve"/>
      <point x="92" y="136" type="line"/>
      <point x="89" y="124"/>
      <point x="87" y="111"/>
      <point x="87" y="92" type="curve" smooth="yes"/>
      <point x="87" y="49"/>
      <point x="100" y="27"/>
      <point x="112" y="15" type="curve" smooth="yes"/>
      <point x="130" y="-2"/>
      <point x="169" y="-20"/>
      <point x="251" y="-20" type="curve" smooth="yes"/>
      <point x="376" y="-20"/>
      <point x="481" y="71"/>
    </contour>
    <contour>
      <point x="542" y="385" type="curve" smooth="yes"/>
      <point x="542" y="393" type="line" smooth="yes"/>
      <point x="542" y="614"/>
      <point x="444" y="720"/>
      <point x="290" y="720" type="curve" smooth="yes"/>
      <point x="281" y="720"/>
      <point x="260" y="711"/>
      <point x="260" y="668" type="curve"/>
      <point x="381" y="649"/>
      <point x="423" y="563"/>
      <point x="423" y="398" type="curve" smooth="yes"/>
      <point x="423" y="390" type="line" smooth="yes"/>
      <point x="423" y="172"/>
      <point x="373" y="79"/>
      <point x="215" y="30" type="curve"/>
      <point x="215" y="1"/>
      <point x="229" y="-20"/>
      <point x="251" y="-20" type="curve" smooth="yes"/>
      <point x="418" y="-20"/>
      <point x="542" y="86"/>
    </contour>
    <contour>
      <point x="263" y="231" type="curve" smooth="yes"/>
      <point x="328" y="231"/>
      <point x="403" y="254"/>
      <point x="434" y="286" type="curve" smooth="yes"/>
      <point x="452" y="303"/>
      <point x="456" y="325"/>
      <point x="459" y="377" type="curve"/>
      <point x="403" y="346"/>
      <point x="342" y="329"/>
      <point x="282" y="329" type="curve" smooth="yes"/>
      <point x="178" y="329"/>
      <point x="121" y="391"/>
      <point x="121" y="480" type="curve" smooth="yes"/>
      <point x="121" y="499"/>
      <point x="122" y="514"/>
      <point x="128" y="529" type="curve"/>
      <point x="93" y="529"/>
      <point x="58" y="499"/>
      <point x="58" y="457" type="curve" smooth="yes"/>
      <point x="58" y="312"/>
      <point x="144" y="231"/>
    </contour>
  </outline>
</glyph>
<glyph name="colon" format="1">
  <advance width="600"/>
  <unicode hex="003A"/>
  <outline>
    <contour>
      <point x="390" y="367" type="curve"/>
      <point x="390" y="479" type="line" smooth="yes"/>
      <point x="390" y="532"/>
      <point x="336" y="545"/>
      <point x="279" y="545" type="curve" smooth="yes"/>
      <point x="256" y="545"/>
      <point x="231" y="542"/>
      <point x="210" y="536" type="curve"/>
      <point x="210" y="424" type="line" smooth="yes"/>
      <point x="210" y="371"/>
      <point x="264" y="358"/>
      <point x="321" y="358" type="curve" smooth="yes"/>
      <point x="344" y="358"/>
      <point x="369" y="361"/>
    </contour>
    <contour>
      <point x="390" y="0" type="curve"/>
      <point x="390" y="112" type="line" smooth="yes"/>
      <point x="390" y="165"/>
      <point x="336" y="178"/>
      <point x="279" y="178" type="curve" smooth="yes"/>
      <point x="256" y="178"/>
      <point x="231" y="175"/>
      <point x="210" y="169" type="curve"/>
      <point x="210" y="57" type="line" smooth="yes"/>
      <point x="210" y="4"/>
      <point x="264" y="-9"/>
      <point x="321" y="-9" type="curve" smooth="yes"/>
      <point x="344" y="-9"/>
      <point x="369" y="-6"/>
    </contour>
  </outline>
</glyph>
<glyph name="semicolon" format="1">
  <advance width="600"/>
  <unicode hex="003B"/>
  <outline>
    <contour>
      <point x="390" y="365" type="curve"/>
      <point x="390" y="477" type="line" smooth="yes"/>
      <point x="390" y="530"/>
      <point x="336" y="543"/>
      <point x="279" y="543" type="curve" smooth="yes"/>
      <point x="256" y="543"/>
      <point x="231" y="540"/>
      <point x="210" y="535" type="curve"/>
      <point x="210" y="423" type="line" smooth="yes"/>
      <point x="210" y="370"/>
      <point x="264" y="356"/>
      <point x="321" y="356" type="curve" smooth="yes"/>
      <point x="344" y="356"/>
      <point x="369" y="359"/>
    </contour>
    <contour>
      <point x="264" y="-197" type="curve" smooth="yes"/>
      <point x="282" y="-197"/>
      <point x="292" y="-193"/>
      <point x="301" y="-184" type="curve"/>
      <point x="356" y="-129"/>
      <point x="407" y="-13"/>
      <point x="407" y="87" type="curve"/>
      <point x="407" y="134"/>
      <point x="375" y="151"/>
      <point x="310" y="151" type="curve" smooth="yes"/>
      <point x="288" y="151"/>
      <point x="273" y="149"/>
      <point x="251" y="143" type="curve"/>
      <point x="251" y="6"/>
      <point x="230" y="-84"/>
      <point x="178" y="-170" type="curve"/>
      <point x="203" y="-189"/>
      <point x="227" y="-197"/>
    </contour>
  </outline>
</glyph>
<glyph name="equal" format="1">
  <advance width="600"/>
  <unicode hex="003D"/>
  <outline>
    <contour>
      <point x="53" y="483" type="line"/>
      <point x="53" y="478"/>
      <point x="53" y="473"/>
      <point x="53" y="467" type="curve" smooth="yes"/>
      <point x="53" y="423"/>
      <point x="60" y="397"/>
      <point x="74" y="382" type="curve" smooth="yes"/>
      <point x="85" y="371"/>
      <point x="100" y="367"/>
      <point x="132" y="367" type="curve"/>
      <point x="550" y="367" type="line"/>
      <point x="552" y="382"/>
      <point x="554" y="398"/>
      <point x="554" y="412" type="curve" smooth="yes"/>
      <point x="554" y="463"/>
      <point x="542" y="483"/>
      <point x="499" y="483" type="curve"/>
    </contour>
    <contour>
      <point x="554" y="117" type="line"/>
      <point x="554" y="122"/>
      <point x="554" y="127"/>
      <point x="554" y="133" type="curve" smooth="yes"/>
      <point x="554" y="177"/>
      <point x="548" y="203"/>
      <point x="534" y="218" type="curve" smooth="yes"/>
      <point x="523" y="229"/>
      <point x="508" y="233"/>
      <point x="476" y="233" type="curve"/>
      <point x="58" y="233" type="line"/>
      <point x="55" y="218"/>
      <point x="53" y="202"/>
      <point x="53" y="188" type="curve" smooth="yes"/>
      <point x="53" y="137"/>
      <point x="66" y="117"/>
      <point x="109" y="117" type="curve"/>
    </contour>
  </outline>
</glyph>
<glyph name="greater" format="1">
  <advance width="600"/>
  <unicode hex="003E"/>
  <outline>
    <contour>
      <point x="71" y="120" type="curve"/>
      <point x="71" y="101" type="line"/>
      <point x="71" y="64"/>
      <point x="92" y="18"/>
      <point x="121" y="18" type="curve" smooth="yes"/>
      <point x="134" y="18"/>
      <point x="164" y="26"/>
      <point x="206" y="42" type="curve" smooth="yes"/>
      <point x="343" y="96"/>
      <point x="460" y="182"/>
      <point x="531" y="271" type="curve"/>
      <point x="531" y="296" type="line"/>
      <point x="531" y="325"/>
      <point x="502" y="334"/>
      <point x="435" y="328" type="curve"/>
      <point x="344" y="229"/>
      <point x="260" y="163"/>
    </contour>
    <contour>
      <point x="79" y="586" type="curve"/>
      <point x="75" y="574"/>
      <point x="73" y="562"/>
      <point x="73" y="543" type="curve" smooth="yes"/>
      <point x="73" y="501"/>
      <point x="83" y="470"/>
      <point x="106" y="463" type="curve" smooth="yes"/>
      <point x="271" y="412"/>
      <point x="351" y="359"/>
      <point x="450" y="258" type="curve" smooth="yes"/>
      <point x="457" y="250"/>
      <point x="459" y="243"/>
      <point x="459" y="238" type="curve" smooth="yes"/>
      <point x="459" y="233"/>
      <point x="459" y="228"/>
      <point x="459" y="221" type="curve"/>
      <point x="510" y="250"/>
      <point x="531" y="275"/>
      <point x="531" y="292" type="curve" smooth="yes"/>
      <point x="531" y="301" type="line" smooth="yes"/>
      <point x="531" y="326"/>
      <point x="526" y="340"/>
      <point x="490" y="373" type="curve" smooth="yes"/>
      <point x="391" y="462"/>
      <point x="281" y="538"/>
    </contour>
  </outline>
</glyph>
<glyph name="B" format="1">
  <advance width="600"/>
  <unicode hex="0042"/>
  <outline>
    <contour>
      <point x="206" y="25" type="curve"/>
      <point x="206" y="535" type="line" smooth="yes"/>
      <point x="206" y="605"/>
      <point x="167" y="635"/>
      <point x="84" y="635" type="curve"/>
      <point x="84" y="66" type="line"/>
      <point x="84" y="41"/>
      <point x="141" y="25"/>
    </contour>
    <contour>
      <point x="34" y="700" type="curve"/>
      <point x="32" y="688"/>
      <point x="30" y="675"/>
      <point x="30" y="659" type="curve" smooth="yes"/>
      <point x="30" y="625"/>
      <point x="36" y="605"/>
      <point x="48" y="592" type="curve" smooth="yes"/>
      <point x="54" y="586"/>
      <point x="60" y="584"/>
      <point x="68" y="584" type="curve" smooth="yes"/>
      <point x="77" y="584"/>
      <point x="91" y="587"/>
      <point x="120" y="591" type="curve" smooth="yes"/>
      <point x="166" y="598"/>
      <point x="223" y="604"/>
      <point x="285" y="604" type="curve" smooth="yes"/>
      <point x="370" y="604"/>
      <point x="411" y="589"/>
      <point x="461" y="547" type="curve"/>
      <point x="534" y="621"/>
      <point x="430" y="720"/>
      <point x="300" y="720" type="curve" smooth="yes"/>
      <point x="214" y="720"/>
      <point x="126" y="715"/>
    </contour>
    <contour>
      <point x="535" y="509" type="curve" smooth="yes"/>
      <point x="535" y="525" type="line" smooth="yes"/>
      <point x="535" y="617"/>
      <point x="456" y="720"/>
      <point x="300" y="720" type="curve" smooth="yes"/>
      <point x="282" y="720"/>
      <point x="266" y="704"/>
      <point x="266" y="662" type="curve"/>
      <point x="366" y="662"/>
      <point x="419" y="604"/>
      <point x="419" y="512" type="curve" smooth="yes"/>
      <point x="419" y="496" type="line" smooth="yes"/>
      <point x="419" y="413"/>
      <point x="352" y="371"/>
      <point x="243" y="371" type="curve" smooth="yes"/>
      <point x="208" y="371"/>
      <point x="196" y="375"/>
      <point x="174" y="387" type="curve"/>
      <point x="165" y="378"/>
      <point x="161" y="365"/>
      <point x="161" y="351" type="curve" smooth="yes"/>
      <point x="161" y="315"/>
      <point x="200" y="278"/>
      <point x="244" y="278" type="curve" smooth="yes"/>
      <point x="256" y="278" type="line" smooth="yes"/>
      <point x="408" y="278"/>
      <point x="535" y="372"/>
    </contour>
    <contour>
      <point x="528" y="199" type="curve" smooth="yes"/>
      <point x="528" y="214" type="line" smooth="yes"/>
      <point x="528" y="284"/>
      <point x="461" y="351"/>
      <point x="389" y="351" type="curve" smooth="yes"/>
      <point x="383" y="351" type="line" smooth="yes"/>
      <point x="343" y="351"/>
      <point x="320" y="332"/>
      <point x="320" y="317" type="curve"/>
      <point x="320" y="314" type="line"/>
      <point x="327" y="314" type="line"/>
      <point x="372" y="314"/>
      <point x="412" y="273"/>
      <point x="412" y="221" type="curve" smooth="yes"/>
      <point x="412" y="208" type="line" smooth="yes"/>
      <point x="412" y="138"/>
      <point x="350" y="102"/>
      <point x="271" y="102" type="curve" smooth="yes"/>
      <point x="189" y="102"/>
      <point x="148" y="108"/>
      <point x="100" y="125" type="curve"/>
      <point x="87" y="108"/>
      <point x="84" y="85"/>
      <point x="84" y="66" type="curve" smooth="yes"/>
      <point x="84" y="28"/>
      <point x="163" y="-10"/>
      <point x="261" y="-10" type="curve" smooth="yes"/>
      <point x="272" y="-10" type="line" smooth="yes"/>
      <point x="411" y="-10"/>
      <point x="528" y="67"/>
    </contour>
  </outline>
</glyph>
<glyph name="C" format="1">
  <advance width="600"/>
  <unicode hex="0043"/>
  <outline>
    <contour>
      <point x="369" y="614" type="curve" smooth="yes"/>
      <point x="419" y="614"/>
      <point x="461" y="595"/>
      <point x="478" y="489" type="curve"/>
      <point x="518" y="489"/>
      <point x="528" y="495"/>
      <point x="528" y="509" type="curve" smooth="yes"/>
      <point x="528" y="589"/>
      <point x="512" y="643"/>
      <point x="479" y="676" type="curve" smooth="yes"/>
      <point x="450" y="705"/>
      <point x="411" y="720"/>
      <point x="356" y="720" type="curve" smooth="yes"/>
      <point x="186" y="720"/>
      <point x="66" y="540"/>
      <point x="66" y="290" type="curve" smooth="yes"/>
      <point x="66" y="263" type="line" smooth="yes"/>
      <point x="66" y="206"/>
      <point x="126" y="148"/>
      <point x="192" y="149" type="curve"/>
      <point x="185" y="178"/>
      <point x="180" y="229"/>
      <point x="180" y="270" type="curve" smooth="yes"/>
      <point x="180" y="286" type="line" smooth="yes"/>
      <point x="180" y="472"/>
      <point x="264" y="614"/>
    </contour>
    <contour>
      <point x="330" y="-20" type="curve" smooth="yes"/>
      <point x="409" y="-20"/>
      <point x="475" y="2"/>
      <point x="512" y="39" type="curve" smooth="yes"/>
      <point x="533" y="60"/>
      <point x="543" y="94"/>
      <point x="543" y="141" type="curve" smooth="yes"/>
      <point x="543" y="156"/>
      <point x="541" y="171"/>
      <point x="538" y="189" type="curve"/>
      <point x="534" y="189" type="line"/>
      <point x="484" y="126"/>
      <point x="418" y="96"/>
      <point x="329" y="96" type="curve" smooth="yes"/>
      <point x="213" y="96"/>
      <point x="173" y="180"/>
      <point x="173" y="326" type="curve"/>
      <point x="96" y="327"/>
      <point x="66" y="310"/>
      <point x="66" y="263" type="curve" smooth="yes"/>
      <point x="66" y="96"/>
      <point x="164" y="-20"/>
    </contour>
    <contour>
      <point x="528" y="410" type="curve"/>
      <point x="528" y="509" type="line" smooth="yes"/>
      <point x="528" y="615"/>
      <point x="476" y="665"/>
      <point x="415" y="657" type="curve"/>
      <point x="409" y="593"/>
      <point x="406" y="558"/>
      <point x="406" y="502" type="curve" smooth="yes"/>
      <point x="406" y="455" type="line"/>
      <point x="406" y="440"/>
      <point x="410" y="430"/>
      <point x="418" y="422" type="curve" smooth="yes"/>
      <point x="429" y="410"/>
      <point x="450" y="405"/>
      <point x="485" y="405" type="curve"/>
      <point x="503" y="405"/>
      <point x="517" y="407"/>
    </contour>
    <contour>
      <point x="321" y="711" type="move" name="top"/>
    </contour>
    <contour>
      <point x="328" y="-4" type="move" name="bottom"/>
    </contour>
  </outline>
</glyph>
<glyph name="D" format="1">
  <advance width="600"/>
  <unicode hex="0044"/>
  <outline>
    <contour>
      <point x="206" y="33" type="curve"/>
      <point x="206" y="535" type="line" smooth="yes"/>
      <point x="206" y="606"/>
      <point x="167" y="635"/>
      <point x="84" y="635" type="curve"/>
      <point x="84" y="76" type="line" smooth="yes"/>
      <point x="84" y="52"/>
      <point x="137" y="33"/>
    </contour>
    <contour>
      <point x="34" y="700" type="curve"/>
      <point x="32" y="688"/>
      <point x="30" y="675"/>
      <point x="30" y="659" type="curve"/>
      <point x="30" y="625"/>
      <point x="36" y="605"/>
      <point x="48" y="592" type="curve" smooth="yes"/>
      <point x="54" y="586"/>
      <point x="60" y="584"/>
      <point x="68" y="584" type="curve" smooth="yes"/>
      <point x="77" y="584"/>
      <point x="91" y="587"/>
      <point x="120" y="591" type="curve" smooth="yes"/>
      <point x="164" y="598"/>
      <point x="220" y="604"/>
      <point x="281" y="604" type="curve" smooth="yes"/>
      <point x="364" y="604"/>
      <point x="404" y="580"/>
      <point x="455" y="536" type="curve"/>
      <point x="530" y="611"/>
      <point x="425" y="720"/>
      <point x="293" y="720" type="curve" smooth="yes"/>
      <point x="209" y="720"/>
      <point x="123" y="715"/>
    </contour>
    <contour>
      <point x="547" y="390" type="curve" smooth="yes"/>
      <point x="547" y="425" type="line" smooth="yes"/>
      <point x="547" y="615"/>
      <point x="457" y="720"/>
      <point x="293" y="720" type="curve"/>
      <point x="271" y="720"/>
      <point x="258" y="698"/>
      <point x="258" y="666" type="curve"/>
      <point x="399" y="634"/>
      <point x="426" y="575"/>
      <point x="426" y="405" type="curve" smooth="yes"/>
      <point x="426" y="387" type="line" smooth="yes"/>
      <point x="426" y="216"/>
      <point x="358" y="109"/>
      <point x="239" y="109" type="curve" smooth="yes"/>
      <point x="179" y="109"/>
      <point x="154" y="114"/>
      <point x="106" y="137" type="curve"/>
      <point x="90" y="124"/>
      <point x="84" y="106"/>
      <point x="84" y="76" type="curve" smooth="yes"/>
      <point x="84" y="37"/>
      <point x="164" y="-10"/>
      <point x="239" y="-10" type="curve" smooth="yes"/>
      <point x="244" y="-10" type="line" smooth="yes"/>
      <point x="429" y="-10"/>
      <point x="547" y="148"/>
    </contour>
    <contour>
      <point x="288" y="711" type="move" name="top"/>
    </contour>
  </outline>
</glyph>
<glyph name="E" format="1">
  <advance width="600"/>
  <unicode hex="0045"/>
  <outline>
    <contour>
      <point x="34" y="700" type="line"/>
      <point x="34" y="694"/>
      <point x="34" y="686"/>
      <point x="34" y="680" type="curve" smooth="yes"/>
      <point x="34" y="643"/>
      <point x="39" y="605"/>
      <point x="52" y="591" type="curve" smooth="yes"/>
      <point x="57" y="586"/>
      <point x="61" y="584"/>
      <point x="68" y="584" type="curve" smooth="yes"/>
      <point x="538" y="584" type="line"/>
      <point x="541" y="595"/>
      <point x="543" y="610"/>
      <point x="543" y="626" type="curve" smooth="yes"/>
      <point x="543" y="643"/>
      <point x="539" y="675"/>
      <point x="524" y="690" type="curve" smooth="yes"/>
      <point x="516" y="698"/>
      <point x="510" y="700"/>
      <point x="497" y="700" type="curve" smooth="yes"/>
    </contour>
    <contour>
      <point x="206" y="68" type="curve"/>
      <point x="206" y="520" type="line" smooth="yes"/>
      <point x="206" y="590"/>
      <point x="175" y="615"/>
      <point x="84" y="615" type="curve"/>
      <point x="84" y="112" type="line"/>
      <point x="84" y="78"/>
      <point x="140" y="68"/>
    </contour>
    <contour>
      <point x="84" y="116" type="line"/>
      <point x="84" y="100" type="line" smooth="yes"/>
      <point x="84" y="55"/>
      <point x="128" y="0"/>
      <point x="165" y="0" type="curve" smooth="yes"/>
      <point x="540" y="0" type="line"/>
      <point x="542" y="11"/>
      <point x="544" y="25"/>
      <point x="544" y="42" type="curve" smooth="yes"/>
      <point x="544" y="94"/>
      <point x="529" y="116"/>
      <point x="495" y="116" type="curve" smooth="yes"/>
    </contour>
    <contour>
      <point x="136" y="383" type="line"/>
      <point x="136" y="311"/>
      <point x="146" y="280"/>
      <point x="180" y="280" type="curve" smooth="yes"/>
      <point x="483" y="280" type="line"/>
      <point x="483" y="284"/>
      <point x="483" y="289"/>
      <point x="483" y="293" type="curve" smooth="yes"/>
      <point x="483" y="319"/>
      <point x="475" y="350"/>
      <point x="456" y="369" type="curve" smooth="yes"/>
      <point x="445" y="380"/>
      <point x="436" y="383"/>
      <point x="422" y="383" type="curve" smooth="yes"/>
    </contour>
    <contour>
      <point x="300" y="712" type="move" name="top"/>
    </contour>
    <contour>
      <point x="541" y="0" type="move" name="ogonek"/>
    </contour>
    <contour>
      <point x="327" y="-1" type="move" name="bottom"/>
    </contour>
  </outline>
</glyph>
<glyph name="F" format="1">
  <advance width="600"/>
  <unicode hex="0046"/>
  <outline>
    <contour>
      <point x="228" y="-6" type="curve"/>
      <point x="221" y="28"/>
      <point x="219" y="54"/>
      <point x="219" y="91" type="curve" smooth="yes"/>
      <point x="219" y="520" type="line"/>
      <point x="219" y="592"/>
      <point x="188" y="618"/>
      <point x="97" y="618" type="curve"/>
      <point x="97" y="51" type="line" smooth="yes"/>
      <point x="97" y="10"/>
      <point x="131" y="-6"/>
      <point x="216" y="-6" type="curve" smooth="yes"/>
      <point x="220" y="-6"/>
      <point x="224" y="-6"/>
    </contour>
    <contour>
      <point x="34" y="700" type="line"/>
      <point x="34" y="694"/>
      <point x="34" y="686"/>
      <point x="34" y="680" type="curve" smooth="yes"/>
      <point x="34" y="631"/>
      <point x="41" y="607"/>
      <point x="52" y="595" type="curve" smooth="yes"/>
      <point x="60" y="588"/>
      <point x="66" y="584"/>
      <point x="81" y="584" type="curve"/>
      <point x="538" y="584" type="line"/>
      <point x="541" y="595"/>
      <point x="543" y="608"/>
      <point x="543" y="626" type="curve" smooth="yes"/>
      <point x="543" y="654"/>
      <point x="536" y="678"/>
      <point x="525" y="689" type="curve" smooth="yes"/>
      <point x="516" y="697"/>
      <point x="508" y="700"/>
      <point x="494" y="700" type="curve"/>
    </contour>
    <contour>
      <point x="117" y="333" type="line"/>
      <point x="117" y="262"/>
      <point x="126" y="217"/>
      <point x="161" y="217" type="curve"/>
      <point x="495" y="217" type="line"/>
      <point x="496" y="224"/>
      <point x="497" y="231"/>
      <point x="497" y="240" type="curve"/>
      <point x="497" y="268"/>
      <point x="484" y="299"/>
      <point x="467" y="317" type="curve" smooth="yes"/>
      <point x="452" y="331"/>
      <point x="445" y="333"/>
      <point x="424" y="333" type="curve"/>
    </contour>
  </outline>
</glyph>
<glyph name="G" format="1">
  <advance width="600"/>
  <unicode hex="0047"/>
  <outline>
    <contour>
      <point x="375" y="612" type="curve" smooth="yes"/>
      <point x="442" y="612"/>
      <point x="465" y="575"/>
      <point x="465" y="515" type="curve"/>
      <point x="506" y="515"/>
      <point x="520" y="536"/>
      <point x="520" y="549" type="curve" smooth="yes"/>
      <point x="520" y="602"/>
      <point x="513" y="635"/>
      <point x="477" y="671" type="curve" smooth="yes"/>
      <point x="448" y="700"/>
      <point x="416" y="720"/>
      <point x="371" y="720" type="curve" smooth="yes"/>
      <point x="186" y="720"/>
      <point x="57" y="559"/>
      <point x="57" y="283" type="curve" smooth="yes"/>
      <point x="57" y="273" type="line" smooth="yes"/>
      <point x="57" y="204"/>
      <point x="115" y="133"/>
      <point x="190" y="127" type="curve"/>
      <point x="179" y="158"/>
      <point x="173" y="211"/>
      <point x="173" y="267" type="curve" smooth="yes"/>
      <point x="173" y="277" type="line" smooth="yes"/>
      <point x="173" y="497"/>
      <point x="268" y="612"/>
    </contour>
    <contour>
      <point x="322" y="96" type="curve" smooth="yes"/>
      <point x="207" y="96"/>
      <point x="157" y="176"/>
      <point x="157" y="328" type="curve"/>
      <point x="97" y="329"/>
      <point x="57" y="314"/>
      <point x="57" y="273" type="curve" smooth="yes"/>
      <point x="57" y="104"/>
      <point x="144" y="-20"/>
      <point x="322" y="-20" type="curve" smooth="yes"/>
      <point x="443" y="-20"/>
      <point x="539" y="51"/>
      <point x="539" y="157" type="curve" smooth="yes"/>
      <point x="539" y="165" type="line" smooth="yes"/>
      <point x="539" y="228"/>
      <point x="508" y="284"/>
      <point x="456" y="284" type="curve"/>
      <point x="460" y="264"/>
      <point x="462" y="248"/>
      <point x="462" y="218" type="curve" smooth="yes"/>
      <point x="462" y="137"/>
      <point x="404" y="96"/>
    </contour>
    <contour>
      <point x="308" y="336" type="line"/>
      <point x="307" y="331"/>
      <point x="307" y="325"/>
      <point x="307" y="318" type="curve" smooth="yes"/>
      <point x="307" y="288"/>
      <point x="315" y="270"/>
      <point x="328" y="257" type="curve" smooth="yes"/>
      <point x="345" y="241"/>
      <point x="364" y="234"/>
      <point x="418" y="234" type="curve"/>
      <point x="571" y="234" type="line"/>
      <point x="571" y="244" type="line" smooth="yes"/>
      <point x="571" y="313"/>
      <point x="558" y="336"/>
      <point x="519" y="336" type="curve" smooth="yes"/>
    </contour>
    <contour>
      <point x="520" y="464" type="curve"/>
      <point x="520" y="549" type="line" smooth="yes"/>
      <point x="520" y="631"/>
      <point x="471" y="663"/>
      <point x="419" y="658" type="curve"/>
      <point x="411" y="618"/>
      <point x="404" y="577"/>
      <point x="404" y="544" type="curve" smooth="yes"/>
      <point x="404" y="509" type="line" smooth="yes"/>
      <point x="404" y="473"/>
      <point x="423" y="459"/>
      <point x="477" y="459" type="curve" smooth="yes"/>
      <point x="494" y="459"/>
      <point x="509" y="461"/>
    </contour>
    <contour>
      <point x="314" y="711" type="move" name="top"/>
    </contour>
    <contour>
      <point x="314" y="-1" type="move" name="bottom"/>
    </contour>
  </outline>
</glyph>
<glyph name="H" format="1">
  <advance width="600"/>
  <unicode hex="0048"/>
  <outline>
    <contour>
      <point x="69" y="704" type="curve"/>
      <point x="77" y="669"/>
      <point x="80" y="632"/>
      <point x="80" y="593" type="curve" smooth="yes"/>
      <point x="80" y="42" type="line" smooth="yes"/>
      <point x="80" y="6"/>
      <point x="113" y="-10"/>
      <point x="175" y="-10" type="curve" smooth="yes"/>
      <point x="187" y="-10"/>
      <point x="196" y="-9"/>
      <point x="202" y="-8" type="curve"/>
      <point x="202" y="643" type="line" smooth="yes"/>
      <point x="202" y="667"/>
      <point x="199" y="681"/>
      <point x="188" y="693" type="curve" smooth="yes"/>
      <point x="175" y="705"/>
      <point x="157" y="710"/>
      <point x="119" y="710" type="curve" smooth="yes"/>
      <point x="101" y="710"/>
      <point x="86" y="708"/>
    </contour>
    <contour>
      <point x="541" y="-4" type="curve"/>
      <point x="533" y="31"/>
      <point x="530" y="68"/>
      <point x="530" y="107" type="curve" smooth="yes"/>
      <point x="530" y="658" type="line" smooth="yes"/>
      <point x="530" y="693"/>
      <point x="491" y="710"/>
      <point x="422" y="710" type="curve" smooth="yes"/>
      <point x="416" y="710"/>
      <point x="411" y="710"/>
      <point x="408" y="710" type="curve"/>
      <point x="408" y="57" type="line" smooth="yes"/>
      <point x="408" y="33"/>
      <point x="411" y="19"/>
      <point x="422" y="7" type="curve" smooth="yes"/>
      <point x="435" y="-5"/>
      <point x="453" y="-10"/>
      <point x="491" y="-10" type="curve" smooth="yes"/>
      <point x="509" y="-10"/>
      <point x="524" y="-8"/>
    </contour>
    <contour>
      <point x="34" y="366" type="line"/>
      <point x="34" y="346" type="line" smooth="yes"/>
      <point x="34" y="307"/>
      <point x="43" y="276"/>
      <point x="62" y="257" type="curve" smooth="yes"/>
      <point x="68" y="251"/>
      <point x="71" y="250"/>
      <point x="78" y="250" type="curve"/>
      <point x="440" y="250" type="line"/>
      <point x="440" y="336"/>
      <point x="413" y="366"/>
      <point x="343" y="366" type="curve" smooth="yes"/>
    </contour>
    <contour>
      <point x="287" y="711" type="move" name="top"/>
    </contour>
  </outline>
</glyph>
<glyph name="J" format="1">
  <advance width="600"/>
  <unicode hex="004A"/>
  <outline>
    <contour>
      <point x="134" y="700" type="line"/>
      <point x="132" y="693"/>
      <point x="131" y="684"/>
      <point x="131" y="673" type="curve" smooth="yes"/>
      <point x="131" y="642"/>
      <point x="138" y="620"/>
      <point x="154" y="604" type="curve" smooth="yes"/>
      <point x="169" y="588"/>
      <point x="190" y="584"/>
      <point x="240" y="584" type="curve" smooth="yes"/>
      <point x="453" y="584" type="line"/>
      <point x="453" y="669"/>
      <point x="434" y="700"/>
      <point x="395" y="700" type="curve"/>
    </contour>
    <contour>
      <point x="508" y="217" type="curve" smooth="yes"/>
      <point x="508" y="659" type="line" smooth="yes"/>
      <point x="508" y="683"/>
      <point x="480" y="700"/>
      <point x="412" y="700" type="curve" smooth="yes"/>
      <point x="387" y="700" type="line"/>
      <point x="387" y="230" type="line" smooth="yes"/>
      <point x="387" y="147"/>
      <point x="378" y="111"/>
      <point x="332" y="52" type="curve"/>
      <point x="418" y="19"/>
      <point x="508" y="115"/>
    </contour>
    <contour>
      <point x="283" y="96" type="curve" smooth="yes"/>
      <point x="204" y="96"/>
      <point x="167" y="115"/>
      <point x="100" y="150" type="curve"/>
      <point x="96" y="150" type="line"/>
      <point x="94" y="137"/>
      <point x="93" y="126"/>
      <point x="93" y="114" type="curve"/>
      <point x="93" y="63"/>
      <point x="106" y="35"/>
      <point x="119" y="22" type="curve" smooth="yes"/>
      <point x="148" y="-7"/>
      <point x="205" y="-20"/>
      <point x="257" y="-20" type="curve" smooth="yes"/>
      <point x="265" y="-20" type="line" smooth="yes"/>
      <point x="417" y="-20"/>
      <point x="508" y="92"/>
      <point x="508" y="217" type="curve"/>
      <point x="508" y="232"/>
      <point x="491" y="253"/>
      <point x="460" y="253" type="curve"/>
      <point x="435" y="153"/>
      <point x="370" y="96"/>
    </contour>
    <contour>
      <point x="300" y="711" type="move" name="top"/>
    </contour>
  </outline>
</glyph>
<glyph name="L" format="1">
  <advance width="600"/>
  <unicode hex="004C"/>
  <outline>
    <contour>
      <point x="199" y="55" type="curve"/>
      <point x="199" y="643" type="line" smooth="yes"/>
      <point x="199" y="667"/>
      <point x="196" y="681"/>
      <point x="185" y="693" type="curve" smooth="yes"/>
      <point x="172" y="705"/>
      <point x="154" y="710"/>
      <point x="116" y="710" type="curve" smooth="yes"/>
      <point x="97" y="710"/>
      <point x="83" y="708"/>
      <point x="66" y="704" type="curve"/>
      <point x="74" y="669"/>
      <point x="77" y="633"/>
      <point x="77" y="593" type="curve" smooth="yes"/>
      <point x="77" y="122" type="line" smooth="yes"/>
      <point x="77" y="88"/>
      <point x="124" y="55"/>
    </contour>
    <contour>
      <point x="77" y="122" type="line"/>
      <point x="77" y="100" type="line" smooth="yes"/>
      <point x="77" y="55"/>
      <point x="121" y="0"/>
      <point x="158" y="0" type="curve" smooth="yes"/>
      <point x="546" y="0" type="line"/>
      <point x="549" y="12"/>
      <point x="550" y="29"/>
      <point x="550" y="48" type="curve" smooth="yes"/>
      <point x="550" y="101"/>
      <point x="536" y="122"/>
      <point x="502" y="122" type="curve" smooth="yes"/>
    </contour>
    <contour>
      <point x="418" y="550" type="move" name="caronslovak"/>
    </contour>
    <contour>
      <point x="139" y="711" type="move" name="top"/>
    </contour>
    <contour>
      <point x="423" y="400" type="move" name="dot"/>
    </contour>
    <contour>
      <point x="308" y="-1" type="move" name="bottom"/>
    </contour>
  </outline>
</glyph>
<glyph name="M" format="1">
  <advance width="600"/>
  <unicode hex="004D"/>
  <outline>
    <contour>
      <point x="173" y="-8" type="curve"/>
      <point x="173" y="61"/>
      <point x="173" y="130"/>
      <point x="173" y="199" type="curve" smooth="yes"/>
      <point x="173" y="332"/>
      <point x="153" y="509"/>
      <point x="153" y="675" type="curve" smooth="yes"/>
      <point x="153" y="682"/>
      <point x="151" y="691"/>
      <point x="146" y="696" type="curve" smooth="yes"/>
      <point x="136" y="707"/>
      <point x="129" y="710"/>
      <point x="111" y="710" type="curve" smooth="yes"/>
      <point x="95" y="710"/>
      <point x="78" y="709"/>
      <point x="59" y="706" type="curve"/>
      <point x="62" y="672"/>
      <point x="64" y="636"/>
      <point x="64" y="600" type="curve" smooth="yes"/>
      <point x="64" y="41" type="line" smooth="yes"/>
      <point x="64" y="27"/>
      <point x="67" y="19"/>
      <point x="75" y="11" type="curve" smooth="yes"/>
      <point x="88" y="-2"/>
      <point x="121" y="-10"/>
      <point x="149" y="-10" type="curve" smooth="yes"/>
      <point x="158" y="-10"/>
      <point x="166" y="-9"/>
    </contour>
    <contour>
      <point x="545" y="-6" type="curve"/>
      <point x="539" y="28"/>
      <point x="536" y="63"/>
      <point x="536" y="100" type="curve" smooth="yes"/>
      <point x="536" y="669" type="line" smooth="yes"/>
      <point x="536" y="677"/>
      <point x="533" y="684"/>
      <point x="527" y="690" type="curve" smooth="yes"/>
      <point x="517" y="700"/>
      <point x="488" y="710"/>
      <point x="447" y="710" type="curve" smooth="yes"/>
      <point x="440" y="710" type="line"/>
      <point x="449" y="697"/>
      <point x="450" y="689"/>
      <point x="450" y="670" type="curve" smooth="yes"/>
      <point x="450" y="542"/>
      <point x="427" y="298"/>
      <point x="427" y="195" type="curve" smooth="yes"/>
      <point x="427" y="146"/>
      <point x="427" y="96"/>
      <point x="427" y="47" type="curve" smooth="yes"/>
      <point x="427" y="30"/>
      <point x="431" y="20"/>
      <point x="440" y="11" type="curve" smooth="yes"/>
      <point x="453" y="-2"/>
      <point x="485" y="-10"/>
      <point x="513" y="-10" type="curve"/>
      <point x="524" y="-10"/>
      <point x="534" y="-9"/>
    </contour>
    <contour>
      <point x="111" y="710" type="line"/>
      <point x="140" y="515"/>
      <point x="222" y="295"/>
      <point x="284" y="233" type="curve"/>
      <point x="288" y="229"/>
      <point x="294" y="227"/>
      <point x="299" y="227" type="curve"/>
      <point x="311" y="227"/>
      <point x="318" y="284"/>
      <point x="318" y="334" type="curve"/>
      <point x="269" y="396"/>
      <point x="222" y="528"/>
      <point x="201" y="678" type="curve"/>
      <point x="198" y="695"/>
      <point x="161" y="710"/>
      <point x="114" y="710" type="curve"/>
    </contour>
    <contour>
      <point x="440" y="710" type="curve" smooth="yes"/>
      <point x="427" y="710"/>
      <point x="416" y="709"/>
      <point x="405" y="706" type="curve"/>
      <point x="383" y="515"/>
      <point x="331" y="389"/>
      <point x="278" y="336" type="curve"/>
      <point x="267" y="327"/>
      <point x="279" y="227"/>
      <point x="299" y="227" type="curve"/>
      <point x="308" y="227" type="line"/>
      <point x="386" y="303"/>
      <point x="457" y="504"/>
      <point x="467" y="661" type="curve"/>
      <point x="469" y="694"/>
      <point x="460" y="710"/>
    </contour>
  </outline>
</glyph>
<glyph name="N" format="1">
  <advance width="600"/>
  <unicode hex="004E"/>
  <outline>
    <contour>
      <point x="186" y="-5" type="curve"/>
      <point x="186" y="231" type="line"/>
      <point x="186" y="487"/>
      <point x="163" y="681"/>
      <point x="146" y="698" type="curve" smooth="yes"/>
      <point x="140" y="704"/>
      <point x="130" y="710"/>
      <point x="124" y="710" type="curve"/>
      <point x="104" y="710"/>
      <point x="89" y="709"/>
      <point x="66" y="703" type="curve"/>
      <point x="74" y="667"/>
      <point x="77" y="627"/>
      <point x="77" y="593" type="curve" smooth="yes"/>
      <point x="77" y="42" type="line"/>
      <point x="77" y="3"/>
      <point x="122" y="-9"/>
      <point x="156" y="-9" type="curve"/>
      <point x="169" y="-9"/>
      <point x="177" y="-8"/>
    </contour>
    <contour>
      <point x="530" y="-10" type="line"/>
      <point x="530" y="663" type="line"/>
      <point x="530" y="696"/>
      <point x="490" y="710"/>
      <point x="441" y="710" type="curve"/>
      <point x="421" y="710" type="line"/>
      <point x="421" y="330" type="line"/>
      <point x="421" y="164"/>
      <point x="436" y="34"/>
      <point x="458" y="12" type="curve" smooth="yes"/>
      <point x="473" y="-3"/>
      <point x="492" y="-10"/>
      <point x="508" y="-10" type="curve"/>
    </contour>
    <contour>
      <point x="124" y="710" type="line"/>
      <point x="142" y="686"/>
      <point x="150" y="643"/>
      <point x="157" y="605" type="curve" smooth="yes"/>
      <point x="208" y="338"/>
      <point x="333" y="105"/>
      <point x="417" y="22" type="curve"/>
      <point x="437" y="1"/>
      <point x="470" y="-10"/>
      <point x="508" y="-10" type="curve" smooth="yes"/>
      <point x="512" y="-10"/>
      <point x="512" y="-10"/>
      <point x="516" y="-10" type="curve"/>
      <point x="520" y="-10"/>
      <point x="522" y="16"/>
      <point x="522" y="55" type="curve"/>
      <point x="355" y="217"/>
      <point x="282" y="432"/>
      <point x="226" y="673" type="curve"/>
      <point x="220" y="696"/>
      <point x="172" y="710"/>
      <point x="126" y="710" type="curve"/>
    </contour>
    <contour>
      <point x="300" y="712" type="move" name="top"/>
    </contour>
    <contour>
      <point x="297" y="-1" type="move" name="bottom"/>
    </contour>
  </outline>
</glyph>
<glyph name="O" format="1">
  <advance width="600"/>
  <unicode hex="004F"/>
  <outline>
    <contour>
      <point x="297" y="720" type="curve" smooth="yes"/>
      <point x="149" y="720"/>
      <point x="55" y="581"/>
      <point x="55" y="340" type="curve" smooth="yes"/>
      <point x="55" y="319" type="line" smooth="yes"/>
      <point x="55" y="97"/>
      <point x="139" y="-20"/>
      <point x="303" y="-20" type="curve" smooth="yes"/>
      <point x="334" y="-20"/>
      <point x="355" y="16"/>
      <point x="355" y="68" type="curve"/>
      <point x="222" y="70"/>
      <point x="171" y="149"/>
      <point x="171" y="303" type="curve" smooth="yes"/>
      <point x="171" y="320" type="line" smooth="yes"/>
      <point x="171" y="500"/>
      <point x="216" y="605"/>
      <point x="308" y="605" type="curve" smooth="yes"/>
      <point x="348" y="605"/>
      <point x="380" y="592"/>
      <point x="420" y="562" type="curve"/>
      <point x="469" y="608"/>
      <point x="389" y="720"/>
    </contour>
    <contour>
      <point x="303" y="-20" type="curve" smooth="yes"/>
      <point x="452" y="-20"/>
      <point x="545" y="114"/>
      <point x="545" y="347" type="curve" smooth="yes"/>
      <point x="545" y="367" type="line" smooth="yes"/>
      <point x="545" y="597"/>
      <point x="461" y="720"/>
      <point x="297" y="720" type="curve" smooth="yes"/>
      <point x="266" y="720"/>
      <point x="245" y="684"/>
      <point x="245" y="632" type="curve"/>
      <point x="378" y="630"/>
      <point x="429" y="545"/>
      <point x="429" y="383" type="curve" smooth="yes"/>
      <point x="429" y="366" type="line" smooth="yes"/>
      <point x="429" y="194"/>
      <point x="384" y="95"/>
      <point x="292" y="95" type="curve" smooth="yes"/>
      <point x="252" y="95"/>
      <point x="217" y="106"/>
      <point x="180" y="138" type="curve"/>
      <point x="128" y="90"/>
      <point x="211" y="-20"/>
    </contour>
    <contour>
      <point x="300" y="712" type="move" name="top"/>
    </contour>
    <contour>
      <point x="409" y="16" type="move" name="ogonek"/>
    </contour>
    <contour>
      <point x="300" y="-1" type="move" name="bottom"/>
    </contour>
  </outline>
</glyph>
<glyph name="P" format="1">
  <advance width="600"/>
  <unicode hex="0050"/>
  <outline>
    <contour>
      <point x="217" y="-4" type="curve"/>
      <point x="209" y="31"/>
      <point x="206" y="68"/>
      <point x="206" y="107" type="curve" smooth="yes"/>
      <point x="206" y="535" type="line" smooth="yes"/>
      <point x="206" y="606"/>
      <point x="167" y="635"/>
      <point x="84" y="635" type="curve"/>
      <point x="84" y="57" type="line" smooth="yes"/>
      <point x="84" y="33"/>
      <point x="87" y="19"/>
      <point x="98" y="7" type="curve" smooth="yes"/>
      <point x="110" y="-5"/>
      <point x="129" y="-10"/>
      <point x="167" y="-10" type="curve" smooth="yes"/>
      <point x="185" y="-10"/>
      <point x="200" y="-8"/>
    </contour>
    <contour>
      <point x="34" y="700" type="curve"/>
      <point x="32" y="688"/>
      <point x="30" y="675"/>
      <point x="30" y="659" type="curve"/>
      <point x="30" y="625"/>
      <point x="36" y="605"/>
      <point x="48" y="592" type="curve" smooth="yes"/>
      <point x="54" y="586"/>
      <point x="60" y="584"/>
      <point x="68" y="584" type="curve" smooth="yes"/>
      <point x="77" y="584"/>
      <point x="91" y="587"/>
      <point x="120" y="591" type="curve" smooth="yes"/>
      <point x="164" y="598"/>
      <point x="220" y="604"/>
      <point x="281" y="604" type="curve" smooth="yes"/>
      <point x="368" y="604"/>
      <point x="407" y="584"/>
      <point x="453" y="533" type="curve"/>
      <point x="534" y="614"/>
      <point x="427" y="720"/>
      <point x="293" y="720" type="curve" smooth="yes"/>
      <point x="209" y="720"/>
      <point x="123" y="715"/>
    </contour>
    <contour>
      <point x="541" y="488" type="curve" smooth="yes"/>
      <point x="541" y="516" type="line" smooth="yes"/>
      <point x="541" y="633"/>
      <point x="438" y="720"/>
      <point x="293" y="720" type="curve"/>
      <point x="260" y="720"/>
      <point x="250" y="700"/>
      <point x="250" y="668" type="curve"/>
      <point x="369" y="656"/>
      <point x="421" y="612"/>
      <point x="421" y="508" type="curve" smooth="yes"/>
      <point x="421" y="482" type="line" smooth="yes"/>
      <point x="421" y="349"/>
      <point x="347" y="278"/>
      <point x="254" y="278" type="curve" smooth="yes"/>
      <point x="221" y="278"/>
      <point x="209" y="280"/>
      <point x="190" y="284" type="curve"/>
      <point x="185" y="277"/>
      <point x="182" y="271"/>
      <point x="182" y="259" type="curve" smooth="yes"/>
      <point x="182" y="222"/>
      <point x="231" y="167"/>
      <point x="280" y="167" type="curve" smooth="yes"/>
      <point x="283" y="167" type="line" smooth="yes"/>
      <point x="419" y="167"/>
      <point x="541" y="286"/>
    </contour>
  </outline>
</glyph>
<glyph name="Q" format="1">
  <advance width="600"/>
  <unicode hex="0051"/>
  <outline>
    <contour>
      <point x="297" y="720" type="curve" smooth="yes"/>
      <point x="148" y="720"/>
      <point x="55" y="581"/>
      <point x="55" y="340" type="curve" smooth="yes"/>
      <point x="55" y="319" type="line" smooth="yes"/>
      <point x="55" y="97"/>
      <point x="139" y="-20"/>
      <point x="303" y="-20" type="curve" smooth="yes"/>
      <point x="335" y="-20"/>
      <point x="355" y="16"/>
      <point x="355" y="68" type="curve"/>
      <point x="222" y="70"/>
      <point x="171" y="149"/>
      <point x="171" y="303" type="curve" smooth="yes"/>
      <point x="171" y="320" type="line" smooth="yes"/>
      <point x="171" y="500"/>
      <point x="216" y="605"/>
      <point x="308" y="605" type="curve" smooth="yes"/>
      <point x="348" y="605"/>
      <point x="380" y="592"/>
      <point x="420" y="562" type="curve"/>
      <point x="469" y="608"/>
      <point x="389" y="720"/>
    </contour>
    <contour>
      <point x="303" y="-20" type="curve" smooth="yes"/>
      <point x="452" y="-20"/>
      <point x="545" y="114"/>
      <point x="545" y="347" type="curve" smooth="yes"/>
      <point x="545" y="367" type="line" smooth="yes"/>
      <point x="545" y="597"/>
      <point x="461" y="720"/>
      <point x="297" y="720" type="curve" smooth="yes"/>
      <point x="265" y="720"/>
      <point x="245" y="684"/>
      <point x="245" y="632" type="curve"/>
      <point x="378" y="630"/>
      <point x="429" y="545"/>
      <point x="429" y="383" type="curve" smooth="yes"/>
      <point x="429" y="366" type="line" smooth="yes"/>
      <point x="429" y="194"/>
      <point x="384" y="95"/>
      <point x="292" y="95" type="curve" smooth="yes"/>
      <point x="252" y="95"/>
      <point x="217" y="106"/>
      <point x="180" y="138" type="curve"/>
      <point x="128" y="90"/>
      <point x="211" y="-20"/>
    </contour>
    <contour>
      <point x="400" y="109" type="line"/>
      <point x="330" y="70"/>
      <point x="315" y="43"/>
      <point x="328" y="21" type="curve" smooth="yes"/>
      <point x="384" y="-77" type="line" smooth="yes"/>
      <point x="422" y="-142"/>
      <point x="459" y="-175"/>
      <point x="507" y="-175" type="curve" smooth="yes"/>
      <point x="511" y="-175" type="line" smooth="yes"/>
      <point x="559" y="-175"/>
      <point x="582" y="-148"/>
      <point x="582" y="-80" type="curve" smooth="yes"/>
      <point x="582" y="-59"/>
      <point x="580" y="-42"/>
      <point x="576" y="-25" type="curve"/>
      <point x="572" y="-25" type="line"/>
      <point x="560" y="-34"/>
      <point x="550" y="-38"/>
      <point x="533" y="-38" type="curve" smooth="yes"/>
      <point x="502" y="-38"/>
      <point x="485" y="-27"/>
      <point x="466" y="2" type="curve" smooth="yes"/>
    </contour>
  </outline>
</glyph>
<glyph name="T" format="1">
  <advance width="600"/>
  <unicode hex="0054"/>
  <outline>
    <contour>
      <point x="39" y="700" type="line"/>
      <point x="37" y="693"/>
      <point x="36" y="683"/>
      <point x="36" y="673" type="curve" smooth="yes"/>
      <point x="36" y="650"/>
      <point x="42" y="620"/>
      <point x="58" y="604" type="curve" smooth="yes"/>
      <point x="74" y="588"/>
      <point x="98" y="584"/>
      <point x="154" y="584" type="curve" smooth="yes"/>
      <point x="555" y="584" type="line"/>
      <point x="558" y="596"/>
      <point x="559" y="610"/>
      <point x="559" y="627" type="curve" smooth="yes"/>
      <point x="559" y="669"/>
      <point x="551" y="700"/>
      <point x="511" y="700" type="curve" smooth="yes"/>
    </contour>
    <contour>
      <point x="372" y="-4" type="curve"/>
      <point x="364" y="31"/>
      <point x="361" y="68"/>
      <point x="361" y="107" type="curve" smooth="yes"/>
      <point x="361" y="522" type="line" smooth="yes"/>
      <point x="361" y="593"/>
      <point x="331" y="617"/>
      <point x="239" y="617" type="curve"/>
      <point x="239" y="57" type="line" smooth="yes"/>
      <point x="239" y="33"/>
      <point x="242" y="19"/>
      <point x="254" y="7" type="curve" smooth="yes"/>
      <point x="266" y="-5"/>
      <point x="285" y="-10"/>
      <point x="322" y="-10" type="curve" smooth="yes"/>
      <point x="341" y="-10"/>
      <point x="355" y="-8"/>
    </contour>
    <contour>
      <point x="297" y="711" type="move" name="top"/>
    </contour>
    <contour>
      <point x="300" y="-1" type="move" name="bottom"/>
    </contour>
  </outline>
</glyph>
<glyph name="U" format="1">
  <advance width="600"/>
  <unicode hex="0055"/>
  <outline>
    <contour>
      <point x="52" y="704" type="curve"/>
      <point x="61" y="669"/>
      <point x="65" y="630"/>
      <point x="65" y="583" type="curve" smooth="yes"/>
      <point x="65" y="146" type="line"/>
      <point x="65" y="105"/>
      <point x="102" y="89"/>
      <point x="162" y="96" type="curve"/>
      <point x="186" y="290"/>
      <point x="195" y="404"/>
      <point x="195" y="548" type="curve" smooth="yes"/>
      <point x="195" y="555" type="line"/>
      <point x="195" y="675"/>
      <point x="164" y="710"/>
      <point x="101" y="710" type="curve"/>
      <point x="82" y="710"/>
      <point x="69" y="708"/>
    </contour>
    <contour>
      <point x="213" y="-13" type="curve" smooth="yes"/>
      <point x="289" y="-13"/>
      <point x="362" y="25"/>
      <point x="421" y="117" type="curve" smooth="yes"/>
      <point x="450" y="169"/>
      <point x="446" y="201"/>
      <point x="427" y="246" type="curve"/>
      <point x="366" y="138"/>
      <point x="307" y="115"/>
      <point x="232" y="115" type="curve" smooth="yes"/>
      <point x="184" y="115"/>
      <point x="158" y="140"/>
      <point x="148" y="200" type="curve"/>
      <point x="116" y="196"/>
      <point x="65" y="173"/>
      <point x="65" y="146" type="curve" smooth="yes"/>
      <point x="65" y="69"/>
      <point x="135" y="-13"/>
    </contour>
    <contour>
      <point x="543" y="-4" type="curve"/>
      <point x="535" y="29"/>
      <point x="533" y="64"/>
      <point x="533" y="101" type="curve" smooth="yes"/>
      <point x="533" y="663" type="line" smooth="yes"/>
      <point x="533" y="696"/>
      <point x="502" y="710"/>
      <point x="443" y="710" type="curve" smooth="yes"/>
      <point x="430" y="710"/>
      <point x="421" y="709"/>
      <point x="411" y="707" type="curve"/>
      <point x="411" y="297" type="line" smooth="yes"/>
      <point x="411" y="107"/>
      <point x="425" y="39"/>
      <point x="454" y="10" type="curve" smooth="yes"/>
      <point x="469" y="-5"/>
      <point x="485" y="-10"/>
      <point x="506" y="-10" type="curve" smooth="yes"/>
      <point x="520" y="-10"/>
      <point x="531" y="-8"/>
    </contour>
    <contour>
      <point x="300" y="712" type="move" name="top"/>
    </contour>
    <contour>
      <point x="544" y="-4" type="move" name="ogonek"/>
    </contour>
    <contour>
      <point x="299" y="703" type="move" name="ring"/>
    </contour>
    <contour>
      <point x="297" y="-1" type="move" name="bottom"/>
    </contour>
  </outline>
</glyph>
<glyph name="V" format="1">
  <advance width="600"/>
  <unicode hex="0056"/>
  <outline>
    <contour>
      <point x="73" y="710" type="curve"/>
      <point x="54" y="710" type="line"/>
      <point x="68" y="349"/>
      <point x="112" y="143"/>
      <point x="226" y="29" type="curve" smooth="yes"/>
      <point x="259" y="-4"/>
      <point x="286" y="-10"/>
      <point x="311" y="-10" type="curve" smooth="yes"/>
      <point x="326" y="-10" type="line" smooth="yes"/>
      <point x="346" y="-10"/>
      <point x="370" y="17"/>
      <point x="382" y="56" type="curve"/>
      <point x="378" y="56"/>
      <point x="375" y="56"/>
      <point x="372" y="56" type="curve" smooth="yes"/>
      <point x="365" y="56"/>
      <point x="360" y="58"/>
      <point x="350" y="65" type="curve"/>
      <point x="233" y="161"/>
      <point x="194" y="284"/>
      <point x="177" y="671" type="curve"/>
      <point x="176" y="693"/>
      <point x="125" y="710"/>
    </contour>
    <contour>
      <point x="445" y="710" type="curve"/>
      <point x="426" y="710" type="line"/>
      <point x="402" y="319"/>
      <point x="383" y="182"/>
      <point x="267" y="82" type="curve"/>
      <point x="246" y="65"/>
      <point x="268" y="-10"/>
      <point x="320" y="-10" type="curve"/>
      <point x="348" y="-10" type="line"/>
      <point x="475" y="99"/>
      <point x="526" y="316"/>
      <point x="544" y="652" type="curve"/>
      <point x="545" y="685"/>
      <point x="496" y="710"/>
    </contour>
  </outline>
</glyph>
<glyph name="W" format="1">
  <advance width="600"/>
  <unicode hex="0057"/>
  <outline>
    <contour>
      <point x="33" y="710" type="curve"/>
      <point x="33" y="236"/>
      <point x="60" y="94"/>
      <point x="144" y="10" type="curve"/>
      <point x="157" y="-3"/>
      <point x="173" y="-10"/>
      <point x="189" y="-10" type="curve"/>
      <point x="194" y="-10" type="line" smooth="yes"/>
      <point x="206" y="-10"/>
      <point x="221" y="58"/>
      <point x="221" y="83" type="curve"/>
      <point x="161" y="139"/>
      <point x="152" y="212"/>
      <point x="152" y="664" type="curve"/>
      <point x="152" y="675"/>
      <point x="149" y="680"/>
      <point x="141" y="689" type="curve" smooth="yes"/>
      <point x="131" y="699"/>
      <point x="99" y="710"/>
      <point x="52" y="710" type="curve"/>
      <point x="46" y="710"/>
      <point x="39" y="710"/>
    </contour>
    <contour>
      <point x="449" y="710" type="curve"/>
      <point x="449" y="201"/>
      <point x="434" y="150"/>
      <point x="386" y="83" type="curve"/>
      <point x="388" y="33"/>
      <point x="405" y="-10"/>
      <point x="430" y="-10" type="curve"/>
      <point x="452" y="-10" type="line"/>
      <point x="529" y="132"/>
      <point x="566" y="266"/>
      <point x="566" y="659" type="curve"/>
      <point x="566" y="673"/>
      <point x="565" y="681"/>
      <point x="556" y="690" type="curve" smooth="yes"/>
      <point x="544" y="701"/>
      <point x="514" y="710"/>
      <point x="468" y="710" type="curve"/>
      <point x="461" y="710"/>
      <point x="455" y="710"/>
    </contour>
    <contour>
      <point x="280" y="551" type="curve"/>
      <point x="263" y="551" type="line"/>
      <point x="263" y="277"/>
      <point x="236" y="176"/>
      <point x="159" y="41" type="curve"/>
      <point x="159" y="14"/>
      <point x="168" y="-10"/>
      <point x="189" y="-10" type="curve"/>
      <point x="210" y="-10" type="line"/>
      <point x="296" y="130"/>
      <point x="325" y="299"/>
      <point x="325" y="507" type="curve"/>
      <point x="325" y="537"/>
      <point x="302" y="551"/>
    </contour>
    <contour>
      <point x="280" y="551" type="curve"/>
      <point x="275" y="551" type="line"/>
      <point x="281" y="255"/>
      <point x="310" y="99"/>
      <point x="387" y="5" type="curve"/>
      <point x="395" y="-5"/>
      <point x="406" y="-10"/>
      <point x="417" y="-10" type="curve"/>
      <point x="433" y="-10" type="line"/>
      <point x="446" y="-10"/>
      <point x="460" y="21"/>
      <point x="460" y="40" type="curve"/>
      <point x="390" y="99"/>
      <point x="338" y="260"/>
      <point x="338" y="517" type="curve"/>
      <point x="338" y="536"/>
      <point x="317" y="551"/>
    </contour>
    <contour>
      <point x="300" y="711" type="move" name="top"/>
    </contour>
  </outline>
</glyph>
<glyph name="X" format="1">
  <advance width="600"/>
  <unicode hex="0058"/>
  <outline>
    <contour>
      <point x="528" y="-9" type="curve" smooth="yes"/>
      <point x="548" y="-9"/>
      <point x="564" y="-7"/>
      <point x="578" y="-3" type="curve"/>
      <point x="502" y="79"/>
      <point x="421" y="197"/>
      <point x="350" y="321" type="curve" smooth="yes"/>
      <point x="339" y="340"/>
      <point x="329" y="359"/>
      <point x="319" y="379" type="curve" smooth="yes"/>
      <point x="259" y="484"/>
      <point x="212" y="590"/>
      <point x="182" y="670" type="curve" smooth="yes"/>
      <point x="172" y="701"/>
      <point x="127" y="709"/>
      <point x="41" y="709" type="curve" smooth="yes"/>
      <point x="21" y="709" type="line"/>
      <point x="71" y="586"/>
      <point x="146" y="434"/>
      <point x="227" y="296" type="curve" smooth="yes"/>
      <point x="237" y="279"/>
      <point x="247" y="262"/>
      <point x="257" y="244" type="curve" smooth="yes"/>
      <point x="310" y="160"/>
      <point x="364" y="84"/>
      <point x="410" y="30" type="curve" smooth="yes"/>
      <point x="433" y="0"/>
      <point x="472" y="-9"/>
    </contour>
    <contour>
      <point x="463" y="709" type="curve"/>
      <point x="445" y="709" type="line"/>
      <point x="404" y="556"/>
      <point x="353" y="450"/>
      <point x="277" y="361" type="curve"/>
      <point x="246" y="323"/>
      <point x="277" y="276"/>
      <point x="332" y="278" type="curve"/>
      <point x="453" y="399"/>
      <point x="511" y="511"/>
      <point x="561" y="656" type="curve"/>
      <point x="564" y="667"/>
      <point x="563" y="674"/>
      <point x="558" y="679" type="curve" smooth="yes"/>
      <point x="536" y="700"/>
      <point x="499" y="709"/>
    </contour>
    <contour>
      <point x="140" y="-9" type="curve" smooth="yes"/>
      <point x="152" y="-9" type="line"/>
      <point x="184" y="96"/>
      <point x="238" y="189"/>
      <point x="304" y="258" type="curve"/>
      <point x="331" y="286"/>
      <point x="306" y="351"/>
      <point x="258" y="356" type="curve"/>
      <point x="150" y="251"/>
      <point x="80" y="143"/>
      <point x="34" y="47" type="curve"/>
      <point x="28" y="34"/>
      <point x="31" y="26"/>
      <point x="36" y="21" type="curve" smooth="yes"/>
      <point x="58" y="0"/>
      <point x="99" y="-9"/>
    </contour>
  </outline>
</glyph>
<glyph name="Y" format="1">
  <advance width="600"/>
  <unicode hex="0059"/>
  <outline>
    <contour>
      <point x="46" y="710" type="line"/>
      <point x="76" y="464"/>
      <point x="127" y="337"/>
      <point x="229" y="235" type="curve"/>
      <point x="258" y="207"/>
      <point x="283" y="203"/>
      <point x="304" y="203" type="curve"/>
      <point x="338" y="203"/>
      <point x="359" y="218"/>
      <point x="360" y="275" type="curve"/>
      <point x="249" y="356"/>
      <point x="203" y="440"/>
      <point x="172" y="671" type="curve"/>
      <point x="170" y="694"/>
      <point x="117" y="710"/>
      <point x="65" y="710" type="curve" smooth="yes"/>
    </contour>
    <contour>
      <point x="434" y="710" type="line"/>
      <point x="409" y="476"/>
      <point x="370" y="384"/>
      <point x="261" y="288" type="curve"/>
      <point x="235" y="266"/>
      <point x="263" y="203"/>
      <point x="304" y="203" type="curve"/>
      <point x="340" y="203" type="line"/>
      <point x="449" y="302"/>
      <point x="527" y="449"/>
      <point x="550" y="652" type="curve"/>
      <point x="553" y="685"/>
      <point x="504" y="710"/>
      <point x="453" y="710" type="curve"/>
    </contour>
    <contour>
      <point x="372" y="-4" type="curve"/>
      <point x="364" y="31"/>
      <point x="361" y="68"/>
      <point x="361" y="107" type="curve" smooth="yes"/>
      <point x="361" y="249" type="line" smooth="yes"/>
      <point x="361" y="281"/>
      <point x="308" y="301"/>
      <point x="239" y="301" type="curve"/>
      <point x="239" y="57" type="line" smooth="yes"/>
      <point x="239" y="33"/>
      <point x="242" y="19"/>
      <point x="254" y="7" type="curve" smooth="yes"/>
      <point x="266" y="-5"/>
      <point x="285" y="-10"/>
      <point x="322" y="-10" type="curve" smooth="yes"/>
      <point x="341" y="-10"/>
      <point x="355" y="-8"/>
    </contour>
    <contour>
      <point x="300" y="712" type="move" name="top"/>
    </contour>
  </outline>
</glyph>
<glyph name="bracketleft" format="1">
  <advance width="600"/>
  <unicode hex="005B"/>
  <outline>
    <contour>
      <point x="205" y="643" type="curve" smooth="yes"/>
      <point x="205" y="-47" type="line" smooth="yes"/>
      <point x="205" y="-86"/>
      <point x="272" y="-93"/>
      <point x="327" y="-93" type="curve"/>
      <point x="327" y="700" type="line" smooth="yes"/>
      <point x="327" y="747"/>
      <point x="311" y="760"/>
      <point x="247" y="760" type="curve" smooth="yes"/>
      <point x="227" y="760"/>
      <point x="212" y="758"/>
      <point x="194" y="754" type="curve"/>
      <point x="202" y="718"/>
      <point x="205" y="682"/>
    </contour>
    <contour>
      <point x="511" y="644" type="line"/>
      <point x="515" y="655"/>
      <point x="517" y="670"/>
      <point x="517" y="686" type="curve" smooth="yes"/>
      <point x="517" y="703"/>
      <point x="513" y="735"/>
      <point x="497" y="750" type="curve" smooth="yes"/>
      <point x="490" y="758"/>
      <point x="484" y="760"/>
      <point x="471" y="760" type="curve" smooth="yes"/>
      <point x="247" y="760" type="line"/>
      <point x="247" y="685"/>
      <point x="284" y="644"/>
      <point x="380" y="644" type="curve"/>
    </contour>
    <contour>
      <point x="513" y="-161" type="line"/>
      <point x="516" y="-150"/>
      <point x="517" y="-136"/>
      <point x="517" y="-119" type="curve" smooth="yes"/>
      <point x="517" y="-67"/>
      <point x="503" y="-45"/>
      <point x="469" y="-45" type="curve" smooth="yes"/>
      <point x="205" y="-45" type="line"/>
      <point x="205" y="-61" type="line" smooth="yes"/>
      <point x="205" y="-106"/>
      <point x="249" y="-161"/>
      <point x="286" y="-161" type="curve" smooth="yes"/>
    </contour>
  </outline>
</glyph>
<glyph name="backslash" format="1">
  <advance width="600"/>
  <unicode hex="005C"/>
  <outline>
    <contour>
      <point x="58" y="751" type="curve"/>
      <point x="130" y="439"/>
      <point x="237" y="164"/>
      <point x="379" y="-75" type="curve" smooth="yes"/>
      <point x="404" y="-118"/>
      <point x="436" y="-136"/>
      <point x="478" y="-136" type="curve" smooth="yes"/>
      <point x="504" y="-136"/>
      <point x="523" y="-132"/>
      <point x="544" y="-120" type="curve"/>
      <point x="523" y="-98"/>
      <point x="507" y="-74"/>
      <point x="488" y="-40" type="curve"/>
      <point x="358" y="190"/>
      <point x="260" y="442"/>
      <point x="195" y="716" type="curve"/>
      <point x="188" y="748"/>
      <point x="157" y="764"/>
      <point x="112" y="764" type="curve" smooth="yes"/>
      <point x="92" y="764"/>
      <point x="77" y="760"/>
    </contour>
  </outline>
</glyph>
<glyph name="bracketright" format="1">
  <advance width="600"/>
  <unicode hex="005D"/>
  <outline>
    <contour>
      <point x="395" y="-44" type="curve" smooth="yes"/>
      <point x="395" y="646" type="line" smooth="yes"/>
      <point x="395" y="685"/>
      <point x="328" y="692"/>
      <point x="273" y="692" type="curve"/>
      <point x="273" y="-101" type="line" smooth="yes"/>
      <point x="273" y="-148"/>
      <point x="289" y="-161"/>
      <point x="353" y="-161" type="curve" smooth="yes"/>
      <point x="373" y="-161"/>
      <point x="388" y="-159"/>
      <point x="406" y="-155" type="curve"/>
      <point x="398" y="-119"/>
      <point x="395" y="-83"/>
    </contour>
    <contour>
      <point x="89" y="-45" type="line"/>
      <point x="85" y="-56"/>
      <point x="83" y="-71"/>
      <point x="83" y="-87" type="curve" smooth="yes"/>
      <point x="83" y="-104"/>
      <point x="87" y="-136"/>
      <point x="103" y="-151" type="curve" smooth="yes"/>
      <point x="110" y="-159"/>
      <point x="116" y="-161"/>
      <point x="129" y="-161" type="curve" smooth="yes"/>
      <point x="353" y="-161" type="line"/>
      <point x="353" y="-86"/>
      <point x="316" y="-45"/>
      <point x="220" y="-45" type="curve"/>
    </contour>
    <contour>
      <point x="87" y="760" type="line"/>
      <point x="84" y="749"/>
      <point x="83" y="735"/>
      <point x="83" y="718" type="curve" smooth="yes"/>
      <point x="83" y="666"/>
      <point x="97" y="644"/>
      <point x="131" y="644" type="curve" smooth="yes"/>
      <point x="395" y="644" type="line"/>
      <point x="395" y="660" type="line" smooth="yes"/>
      <point x="395" y="705"/>
      <point x="351" y="760"/>
      <point x="314" y="760" type="curve" smooth="yes"/>
    </contour>
  </outline>
</glyph>
<glyph name="grave" format="1">
  <advance width="600"/>
  <unicode hex="0060"/>
  <outline>
    <contour>
      <point x="429" y="412" type="curve"/>
      <point x="378" y="492"/>
      <point x="341" y="604"/>
      <point x="329" y="713" type="curve"/>
      <point x="306" y="718"/>
      <point x="292" y="720"/>
      <point x="270" y="720" type="curve" smooth="yes"/>
      <point x="212" y="720"/>
      <point x="173" y="708"/>
      <point x="173" y="657" type="curve" smooth="yes"/>
      <point x="173" y="591"/>
      <point x="243" y="447"/>
      <point x="302" y="398" type="curve" smooth="yes"/>
      <point x="312" y="389"/>
      <point x="325" y="385"/>
      <point x="342" y="385" type="curve" smooth="yes"/>
      <point x="379" y="385"/>
      <point x="404" y="393"/>
    </contour>
  </outline>
</glyph>
<glyph name="a" format="1">
  <advance width="600"/>
  <unicode hex="0061"/>
  <outline>
    <contour>
      <point x="283" y="545" type="curve" smooth="yes"/>
      <point x="192" y="545"/>
      <point x="135" y="536"/>
      <point x="113" y="513" type="curve" smooth="yes"/>
      <point x="97" y="497"/>
      <point x="90" y="470"/>
      <point x="90" y="445" type="curve" smooth="yes"/>
      <point x="90" y="431"/>
      <point x="92" y="417"/>
      <point x="95" y="410" type="curve"/>
      <point x="99" y="410" type="line"/>
      <point x="148" y="426"/>
      <point x="194" y="433"/>
      <point x="253" y="433" type="curve" smooth="yes"/>
      <point x="371" y="433"/>
      <point x="409" y="402"/>
      <point x="447" y="306" type="curve"/>
      <point x="481" y="306"/>
      <point x="495" y="320"/>
      <point x="495" y="352" type="curve"/>
      <point x="495" y="454"/>
      <point x="396" y="545"/>
    </contour>
    <contour>
      <point x="342" y="464" type="curve"/>
      <point x="370" y="426"/>
      <point x="379" y="392"/>
      <point x="379" y="343" type="curve" smooth="yes"/>
      <point x="379" y="250"/>
      <point x="379" y="207"/>
      <point x="379" y="137" type="curve" smooth="yes"/>
      <point x="379" y="59"/>
      <point x="439" y="34"/>
      <point x="508" y="55" type="curve"/>
      <point x="497" y="73"/>
      <point x="495" y="86"/>
      <point x="495" y="113" type="curve" smooth="yes"/>
      <point x="495" y="205"/>
      <point x="495" y="261"/>
      <point x="495" y="352" type="curve" smooth="yes"/>
      <point x="495" y="406"/>
      <point x="420" y="488"/>
    </contour>
    <contour>
      <point x="559" y="108" type="line"/>
      <point x="556" y="108" type="line"/>
      <point x="551" y="106"/>
      <point x="544" y="105"/>
      <point x="538" y="105" type="curve" smooth="yes"/>
      <point x="510" y="105"/>
      <point x="481" y="116"/>
      <point x="464" y="172" type="curve"/>
      <point x="404" y="173"/>
      <point x="379" y="164"/>
      <point x="379" y="137" type="curve" smooth="yes"/>
      <point x="379" y="55"/>
      <point x="431" y="-10"/>
      <point x="505" y="-10" type="curve" smooth="yes"/>
      <point x="508" y="-10" type="line" smooth="yes"/>
      <point x="545" y="-10"/>
      <point x="559" y="52"/>
      <point x="559" y="96" type="curve"/>
    </contour>
    <contour>
      <point x="175" y="153" type="curve" smooth="yes"/>
      <point x="175" y="155" type="line" smooth="yes"/>
      <point x="175" y="206"/>
      <point x="188" y="225"/>
      <point x="205" y="246" type="curve"/>
      <point x="149" y="264"/>
      <point x="59" y="198"/>
      <point x="59" y="147" type="curve" smooth="yes"/>
      <point x="59" y="140" type="line" smooth="yes"/>
      <point x="59" y="41"/>
      <point x="115" y="-10"/>
      <point x="212" y="-10" type="curve" smooth="yes"/>
      <point x="295" y="-10"/>
      <point x="363" y="26"/>
      <point x="403" y="93" type="curve" smooth="yes"/>
      <point x="422" y="124"/>
      <point x="415" y="150"/>
      <point x="405" y="177" type="curve"/>
      <point x="350" y="116"/>
      <point x="294" y="96"/>
      <point x="250" y="96" type="curve" smooth="yes"/>
      <point x="247" y="96" type="line" smooth="yes"/>
      <point x="194" y="96"/>
      <point x="175" y="111"/>
    </contour>
    <contour>
      <point x="417" y="270" type="curve" smooth="yes"/>
      <point x="398" y="289"/>
      <point x="334" y="304"/>
      <point x="229" y="304" type="curve" smooth="yes"/>
      <point x="139" y="304"/>
      <point x="60" y="226"/>
      <point x="59" y="147" type="curve" smooth="yes"/>
      <point x="59" y="123"/>
      <point x="73" y="108"/>
      <point x="101" y="108" type="curve"/>
      <point x="137" y="190"/>
      <point x="188" y="224"/>
      <point x="273" y="224" type="curve" smooth="yes"/>
      <point x="322" y="224"/>
      <point x="382" y="219"/>
      <point x="436" y="206" type="curve"/>
      <point x="437" y="239"/>
      <point x="428" y="259"/>
    </contour>
    <contour>
      <point x="288" y="546" type="move" name="top"/>
    </contour>
    <contour>
      <point x="526" y="6" type="move" name="ogonek"/>
    </contour>
    <contour>
      <point x="309" y="-1" type="move" name="bottom"/>
    </contour>
  </outline>
</glyph>
<glyph name="d" format="1">
  <advance width="600"/>
  <unicode hex="0064"/>
  <outline>
    <contour>
      <point x="265" y="547" type="curve" smooth="yes"/>
      <point x="153" y="547"/>
      <point x="52" y="449"/>
      <point x="52" y="216" type="curve" smooth="yes"/>
      <point x="52" y="196" type="line" smooth="yes"/>
      <point x="52" y="143"/>
      <point x="91" y="63"/>
      <point x="158" y="63" type="curve" smooth="yes"/>
      <point x="178" y="63"/>
      <point x="195" y="74"/>
      <point x="195" y="105" type="curve"/>
      <point x="175" y="134"/>
      <point x="171" y="160"/>
      <point x="171" y="220" type="curve" smooth="yes"/>
      <point x="171" y="231" type="line" smooth="yes"/>
      <point x="171" y="364"/>
      <point x="212" y="435"/>
      <point x="299" y="435" type="curve" smooth="yes"/>
      <point x="351" y="435"/>
      <point x="383" y="416"/>
      <point x="417" y="378" type="curve"/>
      <point x="428" y="398"/>
      <point x="431" y="434"/>
      <point x="416" y="457" type="curve" smooth="yes"/>
      <point x="400" y="500"/>
      <point x="339" y="547"/>
    </contour>
    <contour>
      <point x="208" y="-11" type="curve" smooth="yes"/>
      <point x="300" y="-11"/>
      <point x="392" y="74"/>
      <point x="421" y="178" type="curve" smooth="yes"/>
      <point x="433" y="222"/>
      <point x="429" y="278"/>
      <point x="414" y="311" type="curve"/>
      <point x="362" y="163"/>
      <point x="299" y="112"/>
      <point x="219" y="112" type="curve" smooth="yes"/>
      <point x="182" y="112"/>
      <point x="142" y="143"/>
      <point x="98" y="217" type="curve"/>
      <point x="65" y="214"/>
      <point x="52" y="205"/>
      <point x="52" y="196" type="curve" smooth="yes"/>
      <point x="52" y="79"/>
      <point x="123" y="-11"/>
    </contour>
    <contour>
      <point x="393" y="752" type="curve"/>
      <point x="401" y="719"/>
      <point x="404" y="695"/>
      <point x="404" y="654" type="curve" smooth="yes"/>
      <point x="404" y="164" type="line"/>
      <point x="404" y="93"/>
      <point x="422" y="42"/>
      <point x="445" y="19" type="curve" smooth="yes"/>
      <point x="462" y="3"/>
      <point x="482" y="-4"/>
      <point x="501" y="-4" type="curve" smooth="yes"/>
      <point x="512" y="-4"/>
      <point x="521" y="-3"/>
      <point x="532" y="0" type="curve"/>
      <point x="523" y="33"/>
      <point x="520" y="57"/>
      <point x="520" y="99" type="curve" smooth="yes"/>
      <point x="520" y="691" type="line"/>
      <point x="520" y="711"/>
      <point x="516" y="727"/>
      <point x="506" y="737" type="curve" smooth="yes"/>
      <point x="490" y="753"/>
      <point x="469" y="757"/>
      <point x="440" y="757" type="curve" smooth="yes"/>
      <point x="423" y="757"/>
      <point x="406" y="755"/>
    </contour>
    <contour>
      <point x="487" y="701" type="move" name="caronslovak"/>
    </contour>
  </outline>
</glyph>
<glyph name="f" format="1">
  <advance width="600"/>
  <unicode hex="0066"/>
  <outline>
    <contour>
      <point x="244" y="622" type="curve"/>
      <point x="291" y="652"/>
      <point x="342" y="661"/>
      <point x="400" y="661" type="curve" smooth="yes"/>
      <point x="467" y="661"/>
      <point x="526" y="648"/>
      <point x="560" y="632" type="curve"/>
      <point x="564" y="632" type="line"/>
      <point x="567" y="644"/>
      <point x="568" y="657"/>
      <point x="568" y="669" type="curve"/>
      <point x="568" y="697"/>
      <point x="561" y="725"/>
      <point x="547" y="739" type="curve" smooth="yes"/>
      <point x="532" y="754"/>
      <point x="461" y="767"/>
      <point x="395" y="767" type="curve" smooth="yes"/>
      <point x="300" y="767"/>
      <point x="209" y="682"/>
    </contour>
    <contour>
      <point x="306" y="59" type="curve"/>
      <point x="306" y="513" type="line" smooth="yes"/>
      <point x="298" y="534"/>
      <point x="295" y="555"/>
      <point x="295" y="578" type="curve" smooth="yes"/>
      <point x="295" y="661"/>
      <point x="335" y="709"/>
      <point x="430" y="733" type="curve"/>
      <point x="426" y="761"/>
      <point x="411" y="767"/>
      <point x="395" y="767" type="curve" smooth="yes"/>
      <point x="258" y="767"/>
      <point x="184" y="670"/>
      <point x="184" y="563" type="curve" smooth="yes"/>
      <point x="184" y="186" type="line" smooth="yes"/>
      <point x="184" y="99"/>
      <point x="225" y="59"/>
    </contour>
    <contour>
      <point x="54" y="116" type="line"/>
      <point x="54" y="110"/>
      <point x="53" y="105"/>
      <point x="53" y="98" type="curve" smooth="yes"/>
      <point x="53" y="55"/>
      <point x="59" y="30"/>
      <point x="74" y="16" type="curve" smooth="yes"/>
      <point x="85" y="4"/>
      <point x="100" y="0"/>
      <point x="134" y="0" type="curve"/>
      <point x="520" y="0" type="line"/>
      <point x="523" y="10"/>
      <point x="524" y="20"/>
      <point x="524" y="31" type="curve" smooth="yes"/>
      <point x="524" y="80"/>
      <point x="453" y="116"/>
      <point x="313" y="116" type="curve"/>
    </contour>
    <contour>
      <point x="53" y="515" type="line"/>
      <point x="53" y="511"/>
      <point x="53" y="505"/>
      <point x="53" y="500" type="curve" smooth="yes"/>
      <point x="53" y="462"/>
      <point x="60" y="440"/>
      <point x="74" y="425" type="curve" smooth="yes"/>
      <point x="96" y="404"/>
      <point x="127" y="400"/>
      <point x="209" y="400" type="curve"/>
      <point x="530" y="400" type="line"/>
      <point x="532" y="412"/>
      <point x="534" y="429"/>
      <point x="534" y="445" type="curve" smooth="yes"/>
      <point x="534" y="496"/>
      <point x="521" y="515"/>
      <point x="478" y="515" type="curve"/>
    </contour>
  </outline>
</glyph>
<glyph name="h" format="1">
  <advance width="600"/>
  <unicode hex="0068"/>
  <outline>
    <contour>
      <point x="199" y="-2" type="curve"/>
      <point x="199" y="640" type="line" smooth="yes"/>
      <point x="199" y="689"/>
      <point x="192" y="714"/>
      <point x="175" y="732" type="curve" smooth="yes"/>
      <point x="156" y="750"/>
      <point x="135" y="757"/>
      <point x="98" y="757" type="curve" smooth="yes"/>
      <point x="88" y="757"/>
      <point x="78" y="756"/>
      <point x="67" y="753" type="curve"/>
      <point x="76" y="720"/>
      <point x="80" y="695"/>
      <point x="80" y="654" type="curve" smooth="yes"/>
      <point x="80" y="43" type="line" smooth="yes"/>
      <point x="80" y="1"/>
      <point x="113" y="-6"/>
      <point x="158" y="-6" type="curve" smooth="yes"/>
      <point x="174" y="-6"/>
      <point x="188" y="-4"/>
    </contour>
    <contour>
      <point x="405" y="547" type="curve" smooth="yes"/>
      <point x="313" y="547"/>
      <point x="226" y="452"/>
      <point x="188" y="335" type="curve" smooth="yes"/>
      <point x="170" y="268"/>
      <point x="171" y="199"/>
      <point x="190" y="148" type="curve"/>
      <point x="230" y="345"/>
      <point x="299" y="420"/>
      <point x="367" y="420" type="curve" smooth="yes"/>
      <point x="401" y="420"/>
      <point x="426" y="392"/>
      <point x="440" y="336" type="curve"/>
      <point x="491" y="337"/>
      <point x="519" y="361"/>
      <point x="519" y="388" type="curve" smooth="yes"/>
      <point x="519" y="465"/>
      <point x="470" y="547"/>
    </contour>
    <contour>
      <point x="537" y="0" type="curve"/>
      <point x="523" y="54"/>
      <point x="519" y="89"/>
      <point x="519" y="147" type="curve" smooth="yes"/>
      <point x="519" y="388" type="line"/>
      <point x="519" y="418"/>
      <point x="495" y="435"/>
      <point x="423" y="433" type="curve"/>
      <point x="406" y="309"/>
      <point x="392" y="225"/>
      <point x="392" y="134" type="curve" smooth="yes"/>
      <point x="392" y="129" type="line" smooth="yes"/>
      <point x="392" y="23"/>
      <point x="430" y="-5"/>
      <point x="494" y="-5" type="curve" smooth="yes"/>
      <point x="510" y="-5"/>
      <point x="522" y="-3"/>
    </contour>
    <contour>
      <point x="135" y="730" type="move" name="top"/>
    </contour>
  </outline>
</glyph>
<glyph name="i" format="1">
  <advance width="600"/>
  <unicode hex="0069"/>
  <outline>
    <contour>
      <point x="64" y="535" type="curve"/>
      <point x="60" y="524"/>
      <point x="59" y="508"/>
      <point x="59" y="491" type="curve" smooth="yes"/>
      <point x="59" y="446"/>
      <point x="72" y="420"/>
      <point x="95" y="420" type="curve" smooth="yes"/>
      <point x="131" y="420"/>
      <point x="181" y="428"/>
      <point x="293" y="454" type="curve"/>
      <point x="293" y="518"/>
      <point x="287" y="545"/>
      <point x="257" y="545" type="curve" smooth="yes"/>
      <point x="194" y="545"/>
      <point x="131" y="542"/>
    </contour>
    <contour>
      <point x="361" y="520" type="curve" smooth="yes"/>
      <point x="345" y="536"/>
      <point x="310" y="545"/>
      <point x="267" y="545" type="curve" smooth="yes"/>
      <point x="257" y="545" type="line"/>
      <point x="257" y="194" type="line" smooth="yes"/>
      <point x="257" y="99"/>
      <point x="290" y="59"/>
      <point x="373" y="59" type="curve"/>
      <point x="373" y="491" type="line" smooth="yes"/>
      <point x="373" y="505"/>
      <point x="370" y="511"/>
    </contour>
    <contour>
      <point x="54" y="116" type="line"/>
      <point x="54" y="110"/>
      <point x="53" y="105"/>
      <point x="53" y="98" type="curve" smooth="yes"/>
      <point x="53" y="55"/>
      <point x="59" y="30"/>
      <point x="74" y="16" type="curve" smooth="yes"/>
      <point x="85" y="4"/>
      <point x="100" y="0"/>
      <point x="134" y="0" type="curve"/>
      <point x="557" y="0" type="line"/>
      <point x="560" y="10"/>
      <point x="561" y="20"/>
      <point x="561" y="31" type="curve" smooth="yes"/>
      <point x="561" y="80"/>
      <point x="490" y="116"/>
      <point x="350" y="116" type="curve"/>
    </contour>
    <contour>
      <point x="386" y="639" type="curve"/>
      <point x="386" y="711" type="line" smooth="yes"/>
      <point x="386" y="754"/>
      <point x="348" y="764"/>
      <point x="297" y="764" type="curve" smooth="yes"/>
      <point x="277" y="764"/>
      <point x="254" y="763"/>
      <point x="235" y="759" type="curve"/>
      <point x="235" y="687" type="line" smooth="yes"/>
      <point x="235" y="644"/>
      <point x="274" y="634"/>
      <point x="325" y="634" type="curve" smooth="yes"/>
      <point x="344" y="634"/>
      <point x="367" y="636"/>
    </contour>
    <contour>
      <point x="558" y="0" type="move" name="ogonek"/>
    </contour>
    <contour>
      <point x="307" y="-1" type="move" name="bottom"/>
    </contour>
  </outline>
</glyph>
<glyph name="j" format="1">
  <advance width="600"/>
  <unicode hex="006A"/>
  <outline>
    <contour>
      <point x="64" y="535" type="curve"/>
      <point x="60" y="524"/>
      <point x="59" y="508"/>
      <point x="59" y="491" type="curve" smooth="yes"/>
      <point x="59" y="440"/>
      <point x="74" y="416"/>
      <point x="99" y="416" type="curve" smooth="yes"/>
      <point x="139" y="416"/>
      <point x="218" y="424"/>
      <point x="362" y="441" type="curve"/>
      <point x="362" y="508"/>
      <point x="354" y="545"/>
      <point x="326" y="545" type="curve" smooth="yes"/>
      <point x="256" y="545"/>
      <point x="145" y="543"/>
    </contour>
    <contour>
      <point x="441" y="-4" type="curve" smooth="yes"/>
      <point x="441" y="491" type="line" smooth="yes"/>
      <point x="441" y="505"/>
      <point x="439" y="511"/>
      <point x="429" y="520" type="curve" smooth="yes"/>
      <point x="413" y="537"/>
      <point x="374" y="545"/>
      <point x="334" y="545" type="curve" smooth="yes"/>
      <point x="326" y="545" type="line"/>
      <point x="326" y="0" type="line" smooth="yes"/>
      <point x="326" y="-94"/>
      <point x="315" y="-125"/>
      <point x="272" y="-175" type="curve"/>
      <point x="325" y="-212"/>
      <point x="441" y="-114"/>
    </contour>
    <contour>
      <point x="201" y="-134" type="curve" smooth="yes"/>
      <point x="128" y="-134"/>
      <point x="85" y="-125"/>
      <point x="38" y="-101" type="curve"/>
      <point x="34" y="-101" type="line"/>
      <point x="31" y="-111"/>
      <point x="30" y="-122"/>
      <point x="30" y="-133" type="curve" smooth="yes"/>
      <point x="30" y="-167"/>
      <point x="39" y="-201"/>
      <point x="55" y="-217" type="curve" smooth="yes"/>
      <point x="74" y="-236"/>
      <point x="124" y="-250"/>
      <point x="206" y="-250" type="curve" smooth="yes"/>
      <point x="346" y="-250"/>
      <point x="443" y="-156"/>
      <point x="441" y="-4" type="curve" smooth="yes"/>
      <point x="441" y="7"/>
      <point x="423" y="22"/>
      <point x="404" y="22" type="curve"/>
      <point x="375" y="-115"/>
      <point x="283" y="-134"/>
    </contour>
    <contour>
      <point x="453" y="639" type="curve"/>
      <point x="453" y="711" type="line" smooth="yes"/>
      <point x="453" y="754"/>
      <point x="414" y="764"/>
      <point x="363" y="764" type="curve" smooth="yes"/>
      <point x="344" y="764"/>
      <point x="321" y="763"/>
      <point x="302" y="759" type="curve"/>
      <point x="302" y="687" type="line" smooth="yes"/>
      <point x="302" y="644"/>
      <point x="341" y="634"/>
      <point x="391" y="634" type="curve" smooth="yes"/>
      <point x="410" y="634"/>
      <point x="434" y="636"/>
    </contour>
  </outline>
</glyph>
<glyph name="k" format="1">
  <advance width="600"/>
  <unicode hex="006B"/>
  <outline>
    <contour>
      <point x="203" y="-2" type="curve"/>
      <point x="203" y="654" type="line" smooth="yes"/>
      <point x="203" y="698"/>
      <point x="197" y="716"/>
      <point x="180" y="733" type="curve" smooth="yes"/>
      <point x="162" y="751"/>
      <point x="126" y="756"/>
      <point x="101" y="756" type="curve" smooth="yes"/>
      <point x="90" y="756"/>
      <point x="79" y="755"/>
      <point x="68" y="752" type="curve"/>
      <point x="77" y="719"/>
      <point x="80" y="695"/>
      <point x="80" y="653" type="curve" smooth="yes"/>
      <point x="80" y="43" type="line" smooth="yes"/>
      <point x="80" y="1"/>
      <point x="116" y="-6"/>
      <point x="161" y="-6" type="curve" smooth="yes"/>
      <point x="177" y="-6"/>
      <point x="192" y="-5"/>
    </contour>
    <contour>
      <point x="422" y="545" type="line"/>
      <point x="360" y="379"/>
      <point x="255" y="299"/>
      <point x="121" y="253" type="curve"/>
      <point x="121" y="199"/>
      <point x="143" y="172"/>
      <point x="163" y="175" type="curve" smooth="yes"/>
      <point x="302" y="202"/>
      <point x="446" y="305"/>
      <point x="520" y="454" type="curve" smooth="yes"/>
      <point x="532" y="480"/>
      <point x="534" y="490"/>
      <point x="534" y="500" type="curve" smooth="yes"/>
      <point x="534" y="524"/>
      <point x="492" y="545"/>
      <point x="441" y="545" type="curve"/>
    </contour>
    <contour>
      <point x="503" y="-10" type="curve" smooth="yes"/>
      <point x="537" y="-10"/>
      <point x="555" y="-5"/>
      <point x="574" y="9" type="curve"/>
      <point x="483" y="92"/>
      <point x="403" y="197"/>
      <point x="341" y="312" type="curve"/>
      <point x="297" y="302"/>
      <point x="249" y="267"/>
      <point x="263" y="236" type="curve" smooth="yes"/>
      <point x="300" y="156"/>
      <point x="368" y="63"/>
      <point x="406" y="25" type="curve" smooth="yes"/>
      <point x="432" y="-1"/>
      <point x="459" y="-10"/>
    </contour>
    <contour>
      <point x="321" y="-1" type="move" name="bottom"/>
    </contour>
  </outline>
</glyph>
<glyph name="l" format="1">
  <advance width="600"/>
  <unicode hex="006C"/>
  <outline>
    <contour>
      <point x="64" y="750" type="curve"/>
      <point x="60" y="738"/>
      <point x="59" y="723"/>
      <point x="59" y="706" type="curve" smooth="yes"/>
      <point x="59" y="661"/>
      <point x="72" y="634"/>
      <point x="95" y="634" type="curve" smooth="yes"/>
      <point x="131" y="634"/>
      <point x="181" y="643"/>
      <point x="293" y="669" type="curve"/>
      <point x="293" y="733"/>
      <point x="287" y="760"/>
      <point x="257" y="760" type="curve" smooth="yes"/>
      <point x="194" y="760"/>
      <point x="131" y="757"/>
    </contour>
    <contour>
      <point x="361" y="735" type="curve" smooth="yes"/>
      <point x="345" y="751"/>
      <point x="310" y="760"/>
      <point x="267" y="760" type="curve" smooth="yes"/>
      <point x="257" y="760" type="line"/>
      <point x="257" y="194" type="line" smooth="yes"/>
      <point x="257" y="99"/>
      <point x="290" y="59"/>
      <point x="373" y="59" type="curve"/>
      <point x="373" y="705" type="line" smooth="yes"/>
      <point x="373" y="720"/>
      <point x="370" y="726"/>
    </contour>
    <contour>
      <point x="54" y="116" type="line"/>
      <point x="54" y="110"/>
      <point x="53" y="105"/>
      <point x="53" y="98" type="curve" smooth="yes"/>
      <point x="53" y="55"/>
      <point x="59" y="30"/>
      <point x="74" y="16" type="curve" smooth="yes"/>
      <point x="85" y="4"/>
      <point x="100" y="0"/>
      <point x="134" y="0" type="curve"/>
      <point x="557" y="0" type="line"/>
      <point x="560" y="10"/>
      <point x="561" y="20"/>
      <point x="561" y="31" type="curve" smooth="yes"/>
      <point x="561" y="80"/>
      <point x="490" y="116"/>
      <point x="350" y="116" type="curve"/>
    </contour>
    <contour>
      <point x="510" y="685" type="move" name="caronslovak"/>
    </contour>
    <contour>
      <point x="317" y="750" type="move" name="top"/>
    </contour>
    <contour>
      <point x="490" y="400" type="move" name="dot"/>
    </contour>
    <contour>
      <point x="307" y="-1" type="move" name="bottom"/>
    </contour>
  </outline>
</glyph>
<glyph name="m" format="1">
  <advance width="600"/>
  <unicode hex="006D"/>
  <outline>
    <contour>
      <point x="153" y="-2" type="curve"/>
      <point x="153" y="426" type="line" smooth="yes"/>
      <point x="153" y="489"/>
      <point x="145" y="506"/>
      <point x="129" y="522" type="curve" smooth="yes"/>
      <point x="113" y="538"/>
      <point x="88" y="541"/>
      <point x="64" y="541" type="curve" smooth="yes"/>
      <point x="53" y="541"/>
      <point x="42" y="540"/>
      <point x="31" y="537" type="curve"/>
      <point x="40" y="504"/>
      <point x="43" y="479"/>
      <point x="43" y="438" type="curve" smooth="yes"/>
      <point x="43" y="43" type="line" smooth="yes"/>
      <point x="43" y="1"/>
      <point x="66" y="-6"/>
      <point x="111" y="-6" type="curve" smooth="yes"/>
      <point x="127" y="-6"/>
      <point x="142" y="-5"/>
    </contour>
    <contour>
      <point x="260" y="545" type="curve" smooth="yes"/>
      <point x="206" y="545"/>
      <point x="157" y="481"/>
      <point x="135" y="389" type="curve" smooth="yes"/>
      <point x="129" y="362"/>
      <point x="132" y="332"/>
      <point x="142" y="305" type="curve"/>
      <point x="176" y="393"/>
      <point x="206" y="428"/>
      <point x="241" y="428" type="curve" smooth="yes"/>
      <point x="261" y="428"/>
      <point x="274" y="416"/>
      <point x="284" y="386" type="curve"/>
      <point x="311" y="399"/>
      <point x="337" y="417"/>
      <point x="337" y="436" type="curve" smooth="yes"/>
      <point x="337" y="493"/>
      <point x="302" y="545"/>
    </contour>
    <contour>
      <point x="337" y="0" type="curve"/>
      <point x="337" y="436" type="line" smooth="yes"/>
      <point x="337" y="473"/>
      <point x="323" y="483"/>
      <point x="281" y="474" type="curve"/>
      <point x="262" y="303"/>
      <point x="256" y="204"/>
      <point x="256" y="107" type="curve" smooth="yes"/>
      <point x="256" y="103" type="line" smooth="yes"/>
      <point x="256" y="24"/>
      <point x="278" y="-3"/>
      <point x="322" y="-3" type="curve" smooth="yes"/>
      <point x="327" y="-3"/>
      <point x="332" y="-2"/>
    </contour>
    <contour>
      <point x="462" y="547" type="curve" smooth="yes"/>
      <point x="406" y="547"/>
      <point x="341" y="478"/>
      <point x="315" y="400" type="curve" smooth="yes"/>
      <point x="304" y="368"/>
      <point x="305" y="340"/>
      <point x="325" y="309" type="curve"/>
      <point x="350" y="382"/>
      <point x="388" y="428"/>
      <point x="429" y="428" type="curve" smooth="yes"/>
      <point x="455" y="428"/>
      <point x="467" y="413"/>
      <point x="475" y="381" type="curve"/>
      <point x="539" y="391"/>
      <point x="557" y="405"/>
      <point x="557" y="429" type="curve" smooth="yes"/>
      <point x="557" y="478"/>
      <point x="512" y="547"/>
    </contour>
    <contour>
      <point x="574" y="0" type="curve"/>
      <point x="561" y="54"/>
      <point x="557" y="89"/>
      <point x="557" y="147" type="curve" smooth="yes"/>
      <point x="557" y="429" type="line" smooth="yes"/>
      <point x="557" y="452"/>
      <point x="528" y="467"/>
      <point x="466" y="467" type="curve"/>
      <point x="448" y="326"/>
      <point x="440" y="223"/>
      <point x="440" y="131" type="curve" smooth="yes"/>
      <point x="440" y="126" type="line" smooth="yes"/>
      <point x="440" y="20"/>
      <point x="467" y="-5"/>
      <point x="531" y="-5" type="curve" smooth="yes"/>
      <point x="547" y="-5"/>
      <point x="560" y="-3"/>
    </contour>
  </outline>
</glyph>
<glyph name="n" format="1">
  <advance width="600"/>
  <unicode hex="006E"/>
  <outline>
    <contour>
      <point x="195" y="-2" type="curve"/>
      <point x="195" y="395" type="line" smooth="yes"/>
      <point x="195" y="457"/>
      <point x="183" y="492"/>
      <point x="160" y="516" type="curve" smooth="yes"/>
      <point x="140" y="535"/>
      <point x="120" y="541"/>
      <point x="94" y="541" type="curve" smooth="yes"/>
      <point x="84" y="541"/>
      <point x="74" y="540"/>
      <point x="64" y="538" type="curve"/>
      <point x="73" y="505"/>
      <point x="76" y="480"/>
      <point x="76" y="438" type="curve" smooth="yes"/>
      <point x="76" y="43" type="line" smooth="yes"/>
      <point x="76" y="1"/>
      <point x="109" y="-6"/>
      <point x="153" y="-6" type="curve" smooth="yes"/>
      <point x="169" y="-6"/>
      <point x="184" y="-4"/>
    </contour>
    <contour>
      <point x="405" y="547" type="curve" smooth="yes"/>
      <point x="310" y="547"/>
      <point x="219" y="454"/>
      <point x="182" y="339" type="curve" smooth="yes"/>
      <point x="164" y="268"/>
      <point x="166" y="210"/>
      <point x="186" y="153" type="curve"/>
      <point x="226" y="343"/>
      <point x="298" y="420"/>
      <point x="367" y="420" type="curve" smooth="yes"/>
      <point x="401" y="420"/>
      <point x="426" y="392"/>
      <point x="440" y="336" type="curve"/>
      <point x="491" y="337"/>
      <point x="519" y="361"/>
      <point x="519" y="388" type="curve" smooth="yes"/>
      <point x="519" y="465"/>
      <point x="470" y="547"/>
    </contour>
    <contour>
      <point x="537" y="0" type="curve"/>
      <point x="523" y="54"/>
      <point x="519" y="89"/>
      <point x="519" y="147" type="curve" smooth="yes"/>
      <point x="519" y="388" type="line"/>
      <point x="519" y="418"/>
      <point x="495" y="435"/>
      <point x="423" y="433" type="curve"/>
      <point x="406" y="309"/>
      <point x="392" y="225"/>
      <point x="392" y="134" type="curve" smooth="yes"/>
      <point x="392" y="129" type="line" smooth="yes"/>
      <point x="392" y="23"/>
      <point x="430" y="-5"/>
      <point x="494" y="-5" type="curve" smooth="yes"/>
      <point x="510" y="-5"/>
      <point x="522" y="-3"/>
    </contour>
    <contour>
      <point x="88" y="711" type="move" name="caronslovak"/>
    </contour>
    <contour>
      <point x="300" y="546" type="move" name="top"/>
    </contour>
    <contour>
      <point x="302" y="-1" type="move" name="bottom"/>
    </contour>
  </outline>
</glyph>
<glyph name="q" format="1">
  <advance width="600"/>
  <unicode hex="0071"/>
  <outline>
    <contour>
      <point x="265" y="547" type="curve" smooth="yes"/>
      <point x="153" y="547"/>
      <point x="52" y="449"/>
      <point x="52" y="216" type="curve" smooth="yes"/>
      <point x="52" y="196" type="line" smooth="yes"/>
      <point x="52" y="143"/>
      <point x="91" y="63"/>
      <point x="158" y="63" type="curve" smooth="yes"/>
      <point x="178" y="63"/>
      <point x="195" y="74"/>
      <point x="195" y="105" type="curve"/>
      <point x="175" y="134"/>
      <point x="171" y="160"/>
      <point x="171" y="220" type="curve" smooth="yes"/>
      <point x="171" y="231" type="line" smooth="yes"/>
      <point x="171" y="364"/>
      <point x="212" y="435"/>
      <point x="299" y="435" type="curve" smooth="yes"/>
      <point x="351" y="435"/>
      <point x="383" y="416"/>
      <point x="417" y="378" type="curve"/>
      <point x="431" y="398"/>
      <point x="441" y="432"/>
      <point x="429" y="452" type="curve" smooth="yes"/>
      <point x="412" y="496"/>
      <point x="345" y="547"/>
    </contour>
    <contour>
      <point x="208" y="-11" type="curve" smooth="yes"/>
      <point x="300" y="-11"/>
      <point x="392" y="74"/>
      <point x="421" y="178" type="curve" smooth="yes"/>
      <point x="433" y="222"/>
      <point x="429" y="278"/>
      <point x="414" y="311" type="curve"/>
      <point x="362" y="163"/>
      <point x="299" y="112"/>
      <point x="219" y="112" type="curve" smooth="yes"/>
      <point x="182" y="112"/>
      <point x="142" y="143"/>
      <point x="98" y="217" type="curve"/>
      <point x="65" y="214"/>
      <point x="52" y="205"/>
      <point x="52" y="196" type="curve" smooth="yes"/>
      <point x="52" y="79"/>
      <point x="123" y="-11"/>
    </contour>
    <contour>
      <point x="520" y="-207" type="curve"/>
      <point x="520" y="436" type="line" smooth="yes"/>
      <point x="520" y="478"/>
      <point x="523" y="503"/>
      <point x="532" y="536" type="curve"/>
      <point x="521" y="539"/>
      <point x="510" y="540"/>
      <point x="499" y="540" type="curve" smooth="yes"/>
      <point x="474" y="540"/>
      <point x="457" y="533"/>
      <point x="440" y="515" type="curve" smooth="yes"/>
      <point x="419" y="495"/>
      <point x="404" y="455"/>
      <point x="404" y="384" type="curve" smooth="yes"/>
      <point x="404" y="-130" type="line" smooth="yes"/>
      <point x="404" y="-191"/>
      <point x="436" y="-211"/>
      <point x="477" y="-211" type="curve" smooth="yes"/>
      <point x="494" y="-211"/>
      <point x="508" y="-210"/>
    </contour>
  </outline>
</glyph>
<glyph name="r" format="1">
  <advance width="600"/>
  <unicode hex="0072"/>
  <outline>
    <contour>
      <point x="57" y="535" type="curve"/>
      <point x="53" y="514"/>
      <point x="51" y="500"/>
      <point x="51" y="481" type="curve" smooth="yes"/>
      <point x="51" y="442"/>
      <point x="64" y="420"/>
      <point x="87" y="420" type="curve" smooth="yes"/>
      <point x="118" y="420"/>
      <point x="160" y="438"/>
      <point x="245" y="438" type="curve"/>
      <point x="245" y="513"/>
      <point x="233" y="545"/>
      <point x="205" y="545" type="curve" smooth="yes"/>
      <point x="152" y="545"/>
      <point x="103" y="542"/>
    </contour>
    <contour>
      <point x="301" y="59" type="curve"/>
      <point x="301" y="437" type="line" smooth="yes"/>
      <point x="301" y="502"/>
      <point x="260" y="545"/>
      <point x="205" y="545" type="curve" smooth="yes"/>
      <point x="198" y="545"/>
      <point x="191" y="543"/>
      <point x="185" y="538" type="curve"/>
      <point x="185" y="186" type="line" smooth="yes"/>
      <point x="185" y="99"/>
      <point x="221" y="59"/>
    </contour>
    <contour>
      <point x="54" y="116" type="line"/>
      <point x="54" y="110"/>
      <point x="53" y="105"/>
      <point x="53" y="98" type="curve" smooth="yes"/>
      <point x="53" y="55"/>
      <point x="59" y="30"/>
      <point x="74" y="16" type="curve" smooth="yes"/>
      <point x="85" y="4"/>
      <point x="100" y="0"/>
      <point x="134" y="0" type="curve"/>
      <point x="490" y="0" type="line"/>
      <point x="493" y="10"/>
      <point x="494" y="20"/>
      <point x="494" y="31" type="curve" smooth="yes"/>
      <point x="494" y="76"/>
      <point x="400" y="116"/>
      <point x="303" y="116" type="curve"/>
    </contour>
    <contour>
      <point x="294" y="208" type="curve"/>
      <point x="338" y="363"/>
      <point x="404" y="411"/>
      <point x="471" y="411" type="curve" smooth="yes"/>
      <point x="504" y="411"/>
      <point x="524" y="403"/>
      <point x="550" y="387" type="curve"/>
      <point x="554" y="387" type="line"/>
      <point x="560" y="408"/>
      <point x="564" y="431"/>
      <point x="564" y="457" type="curve"/>
      <point x="564" y="527"/>
      <point x="543" y="553"/>
      <point x="500" y="553" type="curve" smooth="yes"/>
      <point x="497" y="553" type="line" smooth="yes"/>
      <point x="412" y="553"/>
      <point x="313" y="470"/>
      <point x="279" y="317" type="curve" smooth="yes"/>
      <point x="271" y="287"/>
      <point x="276" y="256"/>
    </contour>
    <contour>
      <point x="307" y="546" type="move" name="top"/>
    </contour>
    <contour>
      <point x="307" y="-1" type="move" name="bottom"/>
    </contour>
  </outline>
</glyph>
<glyph name="s" format="1">
  <advance width="600"/>
  <unicode hex="0073"/>
  <outline>
    <contour>
      <point x="370" y="548" type="curve" smooth="yes"/>
      <point x="360" y="548" type="line" smooth="yes"/>
      <point x="218" y="548"/>
      <point x="87" y="478"/>
      <point x="87" y="368" type="curve" smooth="yes"/>
      <point x="87" y="326"/>
      <point x="148" y="308"/>
      <point x="215" y="308" type="curve"/>
      <point x="204" y="334"/>
      <point x="203" y="351"/>
      <point x="203" y="369" type="curve" smooth="yes"/>
      <point x="203" y="403"/>
      <point x="262" y="432"/>
      <point x="362" y="432" type="curve" smooth="yes"/>
      <point x="428" y="432"/>
      <point x="465" y="422"/>
      <point x="501" y="405" type="curve"/>
      <point x="505" y="405" type="line"/>
      <point x="508" y="415"/>
      <point x="510" y="425"/>
      <point x="510" y="436" type="curve"/>
      <point x="510" y="479"/>
      <point x="502" y="505"/>
      <point x="482" y="525" type="curve" smooth="yes"/>
      <point x="466" y="541"/>
      <point x="425" y="548"/>
    </contour>
    <contour>
      <point x="388" y="299" type="curve" smooth="yes"/>
      <point x="294" y="318" type="line" smooth="yes"/>
      <point x="218" y="334"/>
      <point x="203" y="348"/>
      <point x="203" y="369" type="curve" smooth="yes"/>
      <point x="203" y="382"/>
      <point x="205" y="404"/>
      <point x="216" y="430" type="curve"/>
      <point x="138" y="419"/>
      <point x="87" y="397"/>
      <point x="87" y="368" type="curve"/>
      <point x="87" y="294"/>
      <point x="128" y="257"/>
      <point x="240" y="232" type="curve" smooth="yes"/>
      <point x="348" y="209" type="line" smooth="yes"/>
      <point x="409" y="195"/>
      <point x="427" y="176"/>
      <point x="427" y="144" type="curve" smooth="yes"/>
      <point x="427" y="128"/>
      <point x="422" y="117"/>
      <point x="413" y="106" type="curve"/>
      <point x="498" y="108"/>
      <point x="534" y="131"/>
      <point x="534" y="156" type="curve" smooth="yes"/>
      <point x="534" y="225"/>
      <point x="492" y="278"/>
    </contour>
    <contour>
      <point x="300" y="104" type="curve" smooth="yes"/>
      <point x="182" y="104"/>
      <point x="140" y="117"/>
      <point x="71" y="161" type="curve"/>
      <point x="67" y="161" type="line"/>
      <point x="64" y="150"/>
      <point x="63" y="138"/>
      <point x="63" y="120" type="curve" smooth="yes"/>
      <point x="63" y="72"/>
      <point x="76" y="46"/>
      <point x="90" y="32" type="curve" smooth="yes"/>
      <point x="106" y="15"/>
      <point x="179" y="-11"/>
      <point x="278" y="-11" type="curve" smooth="yes"/>
      <point x="292" y="-11" type="line" smooth="yes"/>
      <point x="455" y="-11"/>
      <point x="534" y="42"/>
      <point x="534" y="156" type="curve" smooth="yes"/>
      <point x="534" y="199"/>
      <point x="505" y="201"/>
      <point x="463" y="209" type="curve"/>
      <point x="467" y="194"/>
      <point x="467" y="186"/>
      <point x="467" y="178" type="curve" smooth="yes"/>
      <point x="467" y="139"/>
      <point x="409" y="104"/>
    </contour>
    <contour>
      <point x="317" y="546" type="move" name="top"/>
    </contour>
    <contour>
      <point x="307" y="-1" type="move" name="bottom"/>
    </contour>
  </outline>
</glyph>
<glyph name="t" format="1">
  <advance width="600"/>
  <unicode hex="0074"/>
  <outline>
    <contour>
      <point x="184" y="700" type="curve"/>
      <point x="184" y="156" type="line" smooth="yes"/>
      <point x="184" y="75"/>
      <point x="260" y="8"/>
      <point x="341" y="30" type="curve"/>
      <point x="312" y="66"/>
      <point x="299" y="113"/>
      <point x="299" y="171" type="curve" smooth="yes"/>
      <point x="299" y="656" type="line" smooth="yes"/>
      <point x="299" y="697"/>
      <point x="266" y="705"/>
      <point x="227" y="705" type="curve" smooth="yes"/>
      <point x="210" y="705"/>
      <point x="195" y="703"/>
    </contour>
    <contour>
      <point x="538" y="144" type="curve"/>
      <point x="534" y="144" type="line"/>
      <point x="481" y="111"/>
      <point x="443" y="101"/>
      <point x="375" y="101" type="curve" smooth="yes"/>
      <point x="310" y="101"/>
      <point x="258" y="123"/>
      <point x="225" y="189" type="curve"/>
      <point x="196" y="185"/>
      <point x="184" y="173"/>
      <point x="184" y="156" type="curve" smooth="yes"/>
      <point x="184" y="56"/>
      <point x="263" y="-15"/>
      <point x="370" y="-15" type="curve" smooth="yes"/>
      <point x="379" y="-15" type="line" smooth="yes"/>
      <point x="457" y="-15"/>
      <point x="495" y="10"/>
      <point x="513" y="28" type="curve" smooth="yes"/>
      <point x="530" y="46"/>
      <point x="541" y="74"/>
      <point x="541" y="114" type="curve" smooth="yes"/>
      <point x="541" y="123"/>
      <point x="540" y="134"/>
    </contour>
    <contour>
      <point x="53" y="535" type="line"/>
      <point x="53" y="530"/>
      <point x="53" y="525"/>
      <point x="53" y="519" type="curve" smooth="yes"/>
      <point x="53" y="480"/>
      <point x="60" y="457"/>
      <point x="74" y="442" type="curve" smooth="yes"/>
      <point x="92" y="425"/>
      <point x="115" y="420"/>
      <point x="176" y="420" type="curve" smooth="yes"/>
      <point x="538" y="420" type="line"/>
      <point x="541" y="432"/>
      <point x="543" y="448"/>
      <point x="543" y="464" type="curve" smooth="yes"/>
      <point x="543" y="515"/>
      <point x="530" y="535"/>
      <point x="487" y="535" type="curve" smooth="yes"/>
    </contour>
    <contour>
      <point x="458" y="700" type="move" name="caronslovak"/>
    </contour>
    <contour>
      <point x="369" y="-1" type="move" name="bottom"/>
    </contour>
  </outline>
</glyph>
<glyph name="v" format="1">
  <advance width="600"/>
  <unicode hex="0076"/>
  <outline>
    <contour>
      <point x="440" y="544" type="curve" smooth="yes"/>
      <point x="420" y="544" type="line"/>
      <point x="396" y="278"/>
      <point x="367" y="165"/>
      <point x="265" y="80" type="curve"/>
      <point x="242" y="61"/>
      <point x="266" y="-10"/>
      <point x="310" y="-10" type="curve"/>
      <point x="346" y="-10" type="line"/>
      <point x="455" y="79"/>
      <point x="517" y="255"/>
      <point x="538" y="487" type="curve"/>
      <point x="541" y="519"/>
      <point x="491" y="544"/>
    </contour>
    <contour>
      <point x="77" y="544" type="curve" smooth="yes"/>
      <point x="58" y="544" type="line"/>
      <point x="81" y="282"/>
      <point x="128" y="125"/>
      <point x="224" y="29" type="curve"/>
      <point x="257" y="-4"/>
      <point x="282" y="-10"/>
      <point x="307" y="-10" type="curve" smooth="yes"/>
      <point x="317" y="-10" type="line" smooth="yes"/>
      <point x="348" y="-10"/>
      <point x="370" y="15"/>
      <point x="384" y="53" type="curve"/>
      <point x="376" y="53"/>
      <point x="372" y="53"/>
      <point x="366" y="53" type="curve" smooth="yes"/>
      <point x="359" y="53"/>
      <point x="350" y="56"/>
      <point x="340" y="64" type="curve"/>
      <point x="248" y="143"/>
      <point x="206" y="264"/>
      <point x="183" y="503" type="curve"/>
      <point x="181" y="528"/>
      <point x="128" y="544"/>
    </contour>
  </outline>
</glyph>
<glyph name="w" format="1">
  <advance width="600"/>
  <unicode hex="0077"/>
  <outline>
    <contour>
      <point x="47" y="547" type="curve"/>
      <point x="47" y="227"/>
      <point x="69" y="86"/>
      <point x="146" y="10" type="curve" smooth="yes"/>
      <point x="159" y="-3"/>
      <point x="175" y="-10"/>
      <point x="191" y="-10" type="curve" smooth="yes"/>
      <point x="196" y="-10" type="line" smooth="yes"/>
      <point x="207" y="-10"/>
      <point x="222" y="37"/>
      <point x="222" y="64" type="curve" smooth="yes"/>
      <point x="168" y="108"/>
      <point x="153" y="200"/>
      <point x="153" y="505" type="curve"/>
      <point x="153" y="512"/>
      <point x="151" y="516"/>
      <point x="145" y="523" type="curve" smooth="yes"/>
      <point x="134" y="537"/>
      <point x="102" y="547"/>
      <point x="66" y="547" type="curve"/>
      <point x="60" y="547"/>
      <point x="53" y="547"/>
    </contour>
    <contour>
      <point x="277" y="434" type="curve" smooth="yes"/>
      <point x="264" y="434" type="line"/>
      <point x="264" y="234"/>
      <point x="226" y="139"/>
      <point x="158" y="41" type="curve"/>
      <point x="161" y="14"/>
      <point x="170" y="-10"/>
      <point x="191" y="-10" type="curve"/>
      <point x="212" y="-10" type="line"/>
      <point x="284" y="101"/>
      <point x="319" y="224"/>
      <point x="319" y="390" type="curve" smooth="yes"/>
      <point x="319" y="419"/>
      <point x="299" y="434"/>
    </contour>
    <contour>
      <point x="277" y="434" type="curve" smooth="yes"/>
      <point x="272" y="434" type="line"/>
      <point x="272" y="267"/>
      <point x="313" y="93"/>
      <point x="384" y="5" type="curve" smooth="yes"/>
      <point x="393" y="-5"/>
      <point x="404" y="-10"/>
      <point x="415" y="-10" type="curve" smooth="yes"/>
      <point x="427" y="-10" type="line" smooth="yes"/>
      <point x="445" y="-10"/>
      <point x="454" y="17"/>
      <point x="454" y="40" type="curve" smooth="yes"/>
      <point x="392" y="93"/>
      <point x="336" y="218"/>
      <point x="336" y="400" type="curve" smooth="yes"/>
      <point x="336" y="417"/>
      <point x="312" y="434"/>
    </contour>
    <contour>
      <point x="447" y="547" type="curve"/>
      <point x="447" y="204"/>
      <point x="431" y="140"/>
      <point x="388" y="64" type="curve"/>
      <point x="390" y="18"/>
      <point x="399" y="-10"/>
      <point x="420" y="-10" type="curve"/>
      <point x="446" y="-10" type="line"/>
      <point x="528" y="103"/>
      <point x="551" y="232"/>
      <point x="551" y="497" type="curve"/>
      <point x="551" y="509"/>
      <point x="550" y="513"/>
      <point x="546" y="517" type="curve" smooth="yes"/>
      <point x="528" y="535"/>
      <point x="493" y="547"/>
      <point x="466" y="547" type="curve"/>
      <point x="460" y="547"/>
      <point x="453" y="547"/>
    </contour>
    <contour>
      <point x="299" y="546" type="move" name="top"/>
    </contour>
  </outline>
</glyph>
<glyph name="x" format="1">
  <advance width="600"/>
  <unicode hex="0078"/>
  <outline>
    <contour>
      <point x="491" y="-10" type="curve" smooth="yes"/>
      <point x="528" y="-10"/>
      <point x="548" y="-5"/>
      <point x="568" y="12" type="curve"/>
      <point x="492" y="80"/>
      <point x="420" y="157"/>
      <point x="358" y="242" type="curve" smooth="yes"/>
      <point x="348" y="258"/>
      <point x="337" y="275"/>
      <point x="326" y="291" type="curve" smooth="yes"/>
      <point x="279" y="357"/>
      <point x="240" y="429"/>
      <point x="206" y="504" type="curve" smooth="yes"/>
      <point x="192" y="533"/>
      <point x="153" y="543"/>
      <point x="103" y="543" type="curve" smooth="yes"/>
      <point x="81" y="543"/>
      <point x="61" y="540"/>
      <point x="45" y="537" type="curve"/>
      <point x="103" y="415"/>
      <point x="172" y="302"/>
      <point x="250" y="199" type="curve" smooth="yes"/>
      <point x="262" y="183"/>
      <point x="274" y="168"/>
      <point x="286" y="152" type="curve" smooth="yes"/>
      <point x="322" y="109"/>
      <point x="361" y="67"/>
      <point x="400" y="28" type="curve" smooth="yes"/>
      <point x="424" y="1"/>
      <point x="448" y="-10"/>
    </contour>
    <contour>
      <point x="453" y="544" type="curve" smooth="yes"/>
      <point x="434" y="544" type="line"/>
      <point x="395" y="445"/>
      <point x="346" y="364"/>
      <point x="291" y="291" type="curve" smooth="yes"/>
      <point x="279" y="276"/>
      <point x="267" y="260"/>
      <point x="253" y="244" type="curve" smooth="yes"/>
      <point x="201" y="184"/>
      <point x="144" y="126"/>
      <point x="70" y="69" type="curve" smooth="yes"/>
      <point x="50" y="54"/>
      <point x="47" y="47"/>
      <point x="47" y="36" type="curve" smooth="yes"/>
      <point x="47" y="9"/>
      <point x="95" y="-10"/>
      <point x="154" y="-10" type="curve" smooth="yes"/>
      <point x="163" y="-10" type="line"/>
      <point x="222" y="43"/>
      <point x="273" y="98"/>
      <point x="321" y="151" type="curve" smooth="yes"/>
      <point x="334" y="166"/>
      <point x="347" y="181"/>
      <point x="359" y="195" type="curve" smooth="yes"/>
      <point x="436" y="289"/>
      <point x="494" y="376"/>
      <point x="538" y="475" type="curve" smooth="yes"/>
      <point x="542" y="485"/>
      <point x="544" y="493"/>
      <point x="544" y="501" type="curve" smooth="yes"/>
      <point x="544" y="532"/>
      <point x="506" y="544"/>
    </contour>
  </outline>
</glyph>
<glyph name="y" format="1">
  <advance width="600"/>
  <unicode hex="0079"/>
  <outline>
    <contour>
      <point x="465" y="541" type="curve" smooth="yes"/>
      <point x="452" y="541"/>
      <point x="438" y="540"/>
      <point x="429" y="535" type="curve"/>
      <point x="396" y="154"/>
      <point x="332" y="8"/>
      <point x="252" y="-73" type="curve" smooth="yes"/>
      <point x="207" y="-117"/>
      <point x="155" y="-137"/>
      <point x="103" y="-137" type="curve" smooth="yes"/>
      <point x="81" y="-137" type="line"/>
      <point x="81" y="-140" type="line" smooth="yes"/>
      <point x="81" y="-204"/>
      <point x="105" y="-250"/>
      <point x="146" y="-250" type="curve" smooth="yes"/>
      <point x="149" y="-250" type="line" smooth="yes"/>
      <point x="214" y="-250"/>
      <point x="274" y="-220"/>
      <point x="329" y="-166" type="curve" smooth="yes"/>
      <point x="435" y="-60"/>
      <point x="521" y="166"/>
      <point x="548" y="490" type="curve" smooth="yes"/>
      <point x="550" y="525"/>
      <point x="518" y="541"/>
    </contour>
    <contour>
      <point x="89" y="541" type="curve" smooth="yes"/>
      <point x="74" y="541"/>
      <point x="62" y="539"/>
      <point x="49" y="535" type="curve"/>
      <point x="75" y="245"/>
      <point x="124" y="146"/>
      <point x="191" y="77" type="curve" smooth="yes"/>
      <point x="232" y="34"/>
      <point x="288" y="7"/>
      <point x="347" y="7" type="curve" smooth="yes"/>
      <point x="354" y="7" type="line" smooth="yes"/>
      <point x="379" y="7"/>
      <point x="398" y="26"/>
      <point x="398" y="79" type="curve"/>
      <point x="377" y="87" type="line"/>
      <point x="337" y="96"/>
      <point x="305" y="118"/>
      <point x="283" y="142" type="curve" smooth="yes"/>
      <point x="222" y="207"/>
      <point x="196" y="324"/>
      <point x="183" y="489" type="curve" smooth="yes"/>
      <point x="180" y="527"/>
      <point x="149" y="541"/>
    </contour>
    <contour>
      <point x="300" y="546" type="move" name="top"/>
    </contour>
  </outline>
</glyph>
<glyph name="z" format="1">
  <advance width="600"/>
  <unicode hex="007A"/>
  <outline>
    <contour>
      <point x="66" y="535" type="line"/>
      <point x="64" y="526"/>
      <point x="63" y="516"/>
      <point x="63" y="505" type="curve" smooth="yes"/>
      <point x="63" y="473"/>
      <point x="72" y="446"/>
      <point x="86" y="432" type="curve" smooth="yes"/>
      <point x="95" y="424"/>
      <point x="102" y="420"/>
      <point x="118" y="420" type="curve" smooth="yes"/>
      <point x="291" y="420" type="line" smooth="yes"/>
      <point x="360" y="420"/>
      <point x="469" y="423"/>
      <point x="536" y="434" type="curve"/>
      <point x="536" y="440" type="line" smooth="yes"/>
      <point x="536" y="475"/>
      <point x="520" y="502"/>
      <point x="500" y="522" type="curve" smooth="yes"/>
      <point x="490" y="532"/>
      <point x="481" y="535"/>
      <point x="463" y="535" type="curve" smooth="yes"/>
    </contour>
    <contour>
      <point x="441" y="479" type="curve"/>
      <point x="357" y="344"/>
      <point x="217" y="207"/>
      <point x="63" y="107" type="curve"/>
      <point x="63" y="72"/>
      <point x="122" y="62"/>
      <point x="165" y="82" type="curve" smooth="yes"/>
      <point x="326" y="172"/>
      <point x="536" y="389"/>
      <point x="536" y="434" type="curve"/>
      <point x="536" y="466"/>
      <point x="501" y="479"/>
    </contour>
    <contour>
      <point x="531" y="0" type="line"/>
      <point x="534" y="12"/>
      <point x="536" y="29"/>
      <point x="536" y="45" type="curve"/>
      <point x="536" y="96"/>
      <point x="523" y="116"/>
      <point x="478" y="116" type="curve" smooth="yes"/>
      <point x="315" y="116" type="line" smooth="yes"/>
      <point x="234" y="116"/>
      <point x="138" y="113"/>
      <point x="63" y="107" type="curve"/>
      <point x="63" y="96" type="line" smooth="yes"/>
      <point x="63" y="58"/>
      <point x="72" y="27"/>
      <point x="90" y="9" type="curve" smooth="yes"/>
      <point x="96" y="3"/>
      <point x="103" y="0"/>
      <point x="114" y="0" type="curve" smooth="yes"/>
    </contour>
    <contour>
      <point x="300" y="546" type="move" name="top"/>
    </contour>
  </outline>
</glyph>
<glyph name="braceleft" format="1">
  <advance width="600"/>
  <unicode hex="007B"/>
  <outline>
    <contour>
      <point x="442" y="655" type="curve" smooth="yes"/>
      <point x="470" y="655"/>
      <point x="492" y="652"/>
      <point x="510" y="647" type="curve"/>
      <point x="514" y="647" type="line"/>
      <point x="517" y="659"/>
      <point x="519" y="669"/>
      <point x="519" y="687" type="curve"/>
      <point x="519" y="732"/>
      <point x="491" y="770"/>
      <point x="452" y="770" type="curve" smooth="yes"/>
      <point x="448" y="770" type="line" smooth="yes"/>
      <point x="325" y="770"/>
      <point x="234" y="725"/>
      <point x="234" y="651" type="curve" smooth="yes"/>
      <point x="234" y="648" type="line" smooth="yes"/>
      <point x="234" y="620"/>
      <point x="264" y="594"/>
      <point x="298" y="592" type="curve"/>
      <point x="325" y="639"/>
      <point x="376" y="655"/>
    </contour>
    <contour>
      <point x="385" y="441" type="curve" smooth="yes"/>
      <point x="385" y="542"/>
      <point x="322" y="599"/>
      <point x="322" y="638" type="curve" smooth="yes"/>
      <point x="322" y="657"/>
      <point x="326" y="672"/>
      <point x="337" y="690" type="curve"/>
      <point x="286" y="701"/>
      <point x="234" y="693"/>
      <point x="234" y="649" type="curve" smooth="yes"/>
      <point x="234" y="645" type="line" smooth="yes"/>
      <point x="234" y="593"/>
      <point x="275" y="540"/>
      <point x="275" y="461" type="curve" smooth="yes"/>
      <point x="275" y="392"/>
      <point x="228" y="353"/>
      <point x="117" y="353" type="curve" smooth="yes"/>
      <point x="111" y="353" type="line"/>
      <point x="111" y="342" type="line" smooth="yes"/>
      <point x="111" y="312"/>
      <point x="119" y="284"/>
      <point x="150" y="284" type="curve" smooth="yes"/>
      <point x="168" y="284" type="line" smooth="yes"/>
      <point x="288" y="284"/>
      <point x="385" y="344"/>
    </contour>
    <contour>
      <point x="385" y="157" type="curve" smooth="yes"/>
      <point x="385" y="261"/>
      <point x="292" y="314"/>
      <point x="170" y="314" type="curve" smooth="yes"/>
      <point x="135" y="314"/>
      <point x="123" y="332"/>
      <point x="111" y="346" type="curve"/>
      <point x="111" y="338" type="line" smooth="yes"/>
      <point x="111" y="288"/>
      <point x="129" y="246"/>
      <point x="159" y="246" type="curve" smooth="yes"/>
      <point x="162" y="246" type="line" smooth="yes"/>
      <point x="229" y="246"/>
      <point x="275" y="205"/>
      <point x="275" y="138" type="curve" smooth="yes"/>
      <point x="275" y="58"/>
      <point x="234" y="1"/>
      <point x="234" y="-50" type="curve" smooth="yes"/>
      <point x="234" y="-54" type="line" smooth="yes"/>
      <point x="234" y="-101"/>
      <point x="288" y="-108"/>
      <point x="339" y="-97" type="curve"/>
      <point x="326" y="-79"/>
      <point x="322" y="-63"/>
      <point x="322" y="-43" type="curve" smooth="yes"/>
      <point x="322" y="-3"/>
      <point x="385" y="61"/>
    </contour>
    <contour>
      <point x="430" y="-56" type="curve" smooth="yes"/>
      <point x="362" y="-56"/>
      <point x="318" y="-42"/>
      <point x="295" y="3" type="curve"/>
      <point x="259" y="-3"/>
      <point x="234" y="-31"/>
      <point x="234" y="-52" type="curve" smooth="yes"/>
      <point x="234" y="-56" type="line" smooth="yes"/>
      <point x="234" y="-132"/>
      <point x="304" y="-172"/>
      <point x="445" y="-172" type="curve" smooth="yes"/>
      <point x="451" y="-172" type="line" smooth="yes"/>
      <point x="492" y="-172"/>
      <point x="517" y="-125"/>
      <point x="517" y="-52" type="curve"/>
      <point x="517" y="-44" type="line"/>
      <point x="513" y="-44" type="line"/>
      <point x="484" y="-52"/>
      <point x="464" y="-56"/>
    </contour>
  </outline>
</glyph>
<glyph name="bar" format="1">
  <advance width="600"/>
  <unicode hex="007C"/>
  <outline>
    <contour>
      <point x="228" y="759" type="curve"/>
      <point x="236" y="723"/>
      <point x="239" y="687"/>
      <point x="239" y="648" type="curve" smooth="yes"/>
      <point x="239" y="-111" type="line" smooth="yes"/>
      <point x="239" y="-146"/>
      <point x="272" y="-163"/>
      <point x="333" y="-163" type="curve" smooth="yes"/>
      <point x="346" y="-163"/>
      <point x="355" y="-162"/>
      <point x="361" y="-161" type="curve"/>
      <point x="361" y="698" type="line" smooth="yes"/>
      <point x="361" y="722"/>
      <point x="358" y="736"/>
      <point x="346" y="747" type="curve" smooth="yes"/>
      <point x="334" y="759"/>
      <point x="315" y="764"/>
      <point x="278" y="764" type="curve" smooth="yes"/>
      <point x="259" y="764"/>
      <point x="245" y="763"/>
    </contour>
  </outline>
</glyph>
<glyph name="braceright" format="1">
  <advance width="600"/>
  <unicode hex="007D"/>
  <outline>
    <contour>
      <point x="158" y="-57" type="curve" smooth="yes"/>
      <point x="130" y="-57"/>
      <point x="108" y="-54"/>
      <point x="90" y="-49" type="curve"/>
      <point x="86" y="-49" type="line"/>
      <point x="83" y="-61"/>
      <point x="81" y="-71"/>
      <point x="81" y="-89" type="curve"/>
      <point x="81" y="-134"/>
      <point x="109" y="-172"/>
      <point x="148" y="-172" type="curve" smooth="yes"/>
      <point x="152" y="-172" type="line" smooth="yes"/>
      <point x="275" y="-172"/>
      <point x="366" y="-127"/>
      <point x="366" y="-53" type="curve" smooth="yes"/>
      <point x="366" y="-50" type="line" smooth="yes"/>
      <point x="366" y="-22"/>
      <point x="336" y="4"/>
      <point x="302" y="6" type="curve"/>
      <point x="275" y="-41"/>
      <point x="224" y="-57"/>
    </contour>
    <contour>
      <point x="215" y="157" type="curve" smooth="yes"/>
      <point x="215" y="56"/>
      <point x="278" y="-1"/>
      <point x="278" y="-40" type="curve" smooth="yes"/>
      <point x="278" y="-59"/>
      <point x="274" y="-74"/>
      <point x="263" y="-92" type="curve"/>
      <point x="314" y="-103"/>
      <point x="366" y="-95"/>
      <point x="366" y="-51" type="curve" smooth="yes"/>
      <point x="366" y="-47" type="line" smooth="yes"/>
      <point x="366" y="5"/>
      <point x="325" y="58"/>
      <point x="325" y="137" type="curve" smooth="yes"/>
      <point x="325" y="206"/>
      <point x="372" y="245"/>
      <point x="483" y="245" type="curve" smooth="yes"/>
      <point x="489" y="245" type="line"/>
      <point x="489" y="256" type="line" smooth="yes"/>
      <point x="489" y="286"/>
      <point x="481" y="314"/>
      <point x="450" y="314" type="curve" smooth="yes"/>
      <point x="432" y="314" type="line" smooth="yes"/>
      <point x="312" y="314"/>
      <point x="215" y="254"/>
    </contour>
    <contour>
      <point x="215" y="441" type="curve" smooth="yes"/>
      <point x="215" y="337"/>
      <point x="308" y="284"/>
      <point x="430" y="284" type="curve" smooth="yes"/>
      <point x="465" y="284"/>
      <point x="477" y="266"/>
      <point x="489" y="252" type="curve"/>
      <point x="489" y="260" type="line" smooth="yes"/>
      <point x="489" y="310"/>
      <point x="471" y="352"/>
      <point x="441" y="352" type="curve" smooth="yes"/>
      <point x="438" y="352" type="line" smooth="yes"/>
      <point x="371" y="352"/>
      <point x="325" y="393"/>
      <point x="325" y="460" type="curve" smooth="yes"/>
      <point x="325" y="540"/>
      <point x="366" y="597"/>
      <point x="366" y="648" type="curve" smooth="yes"/>
      <point x="366" y="652" type="line" smooth="yes"/>
      <point x="366" y="699"/>
      <point x="312" y="706"/>
      <point x="261" y="695" type="curve"/>
      <point x="274" y="677"/>
      <point x="278" y="661"/>
      <point x="278" y="641" type="curve" smooth="yes"/>
      <point x="278" y="601"/>
      <point x="215" y="537"/>
    </contour>
    <contour>
      <point x="170" y="654" type="curve" smooth="yes"/>
      <point x="238" y="654"/>
      <point x="282" y="640"/>
      <point x="305" y="595" type="curve"/>
      <point x="341" y="601"/>
      <point x="366" y="629"/>
      <point x="366" y="650" type="curve" smooth="yes"/>
      <point x="366" y="654" type="line" smooth="yes"/>
      <point x="366" y="730"/>
      <point x="296" y="770"/>
      <point x="155" y="770" type="curve" smooth="yes"/>
      <point x="149" y="770" type="line" smooth="yes"/>
      <point x="108" y="770"/>
      <point x="83" y="723"/>
      <point x="83" y="650" type="curve"/>
      <point x="83" y="642" type="line"/>
      <point x="87" y="642" type="line"/>
      <point x="116" y="650"/>
      <point x="136" y="654"/>
    </contour>
  </outline>
</glyph>
<glyph name="asciitilde" format="1">
  <advance width="600"/>
  <unicode hex="007E"/>
  <outline>
    <contour>
      <point x="422" y="308" type="curve" smooth="yes"/>
      <point x="334" y="308"/>
      <point x="255" y="424"/>
      <point x="166" y="424" type="curve" smooth="yes"/>
      <point x="113" y="424"/>
      <point x="80" y="398"/>
      <point x="64" y="360" type="curve" smooth="yes"/>
      <point x="57" y="345"/>
      <point x="50" y="321"/>
      <point x="50" y="285" type="curve" smooth="yes"/>
      <point x="50" y="270"/>
      <point x="52" y="249"/>
      <point x="58" y="235" type="curve"/>
      <point x="62" y="235" type="line"/>
      <point x="101" y="275"/>
      <point x="131" y="292"/>
      <point x="178" y="292" type="curve" smooth="yes"/>
      <point x="266" y="292"/>
      <point x="345" y="176"/>
      <point x="434" y="176" type="curve" smooth="yes"/>
      <point x="487" y="176"/>
      <point x="520" y="202"/>
      <point x="536" y="240" type="curve" smooth="yes"/>
      <point x="543" y="255"/>
      <point x="550" y="279"/>
      <point x="550" y="315" type="curve" smooth="yes"/>
      <point x="550" y="330"/>
      <point x="548" y="351"/>
      <point x="542" y="365" type="curve"/>
      <point x="538" y="365" type="line"/>
      <point x="499" y="325"/>
      <point x="469" y="308"/>
    </contour>
  </outline>
</glyph>
<glyph name="exclamdown" format="1">
  <advance width="600"/>
  <unicode hex="00A1"/>
  <outline>
    <contour>
      <point x="253" y="262" type="line"/>
      <point x="240" y="193"/>
      <point x="229" y="96"/>
      <point x="229" y="26" type="curve"/>
      <point x="229" y="-116" type="line" smooth="yes"/>
      <point x="229" y="-158"/>
      <point x="270" y="-175"/>
      <point x="331" y="-175" type="curve" smooth="yes"/>
      <point x="350" y="-175"/>
      <point x="365" y="-174"/>
      <point x="382" y="-169" type="curve"/>
      <point x="374" y="-134"/>
      <point x="371" y="-97"/>
      <point x="371" y="-58" type="curve" smooth="yes"/>
      <point x="371" y="23" type="line"/>
      <point x="371" y="116"/>
      <point x="362" y="219"/>
      <point x="342" y="238" type="curve" smooth="yes"/>
      <point x="327" y="254"/>
      <point x="300" y="262"/>
      <point x="264" y="262" type="curve"/>
    </contour>
    <contour>
      <point x="210" y="535" type="curve"/>
      <point x="210" y="423" type="line" smooth="yes"/>
      <point x="210" y="370"/>
      <point x="264" y="357"/>
      <point x="321" y="357" type="curve" smooth="yes"/>
      <point x="344" y="357"/>
      <point x="369" y="360"/>
      <point x="390" y="366" type="curve"/>
      <point x="390" y="478" type="line" smooth="yes"/>
      <point x="390" y="531"/>
      <point x="336" y="544"/>
      <point x="279" y="544" type="curve" smooth="yes"/>
      <point x="256" y="544"/>
      <point x="231" y="541"/>
    </contour>
  </outline>
</glyph>
<glyph name="cent" format="1">
  <advance width="600"/>
  <unicode hex="00A2"/>
  <outline>
    <contour>
      <point x="365" y="392" type="line"/>
      <point x="419" y="687" type="line" smooth="yes"/>
      <point x="431" y="747"/>
      <point x="409" y="782"/>
      <point x="349" y="782" type="curve" smooth="yes"/>
      <point x="336" y="782"/>
      <point x="315" y="779"/>
      <point x="302" y="774" type="curve"/>
      <point x="311" y="747"/>
      <point x="316" y="721"/>
      <point x="316" y="679" type="curve"/>
      <point x="316" y="433" type="line" smooth="yes"/>
      <point x="316" y="407"/>
      <point x="338" y="392"/>
      <point x="361" y="392" type="curve" smooth="yes"/>
    </contour>
    <contour>
      <point x="314" y="302" type="line"/>
      <point x="261" y="7" type="line" smooth="yes"/>
      <point x="248" y="-53"/>
      <point x="271" y="-88"/>
      <point x="331" y="-88" type="curve" smooth="yes"/>
      <point x="344" y="-88"/>
      <point x="365" y="-85"/>
      <point x="378" y="-80" type="curve"/>
      <point x="369" y="-53"/>
      <point x="364" y="-27"/>
      <point x="364" y="15" type="curve"/>
      <point x="364" y="261" type="line" smooth="yes"/>
      <point x="364" y="287"/>
      <point x="341" y="302"/>
      <point x="318" y="302" type="curve" smooth="yes"/>
    </contour>
    <contour>
      <point x="352" y="629" type="curve" smooth="yes"/>
      <point x="181" y="629"/>
      <point x="59" y="509"/>
      <point x="59" y="318" type="curve" smooth="yes"/>
      <point x="59" y="307" type="line" smooth="yes"/>
      <point x="59" y="168"/>
      <point x="175" y="71"/>
      <point x="321" y="71" type="curve" smooth="yes"/>
      <point x="341" y="71"/>
      <point x="349" y="86"/>
      <point x="350" y="122" type="curve"/>
      <point x="209" y="163"/>
      <point x="175" y="233"/>
      <point x="175" y="308" type="curve" smooth="yes"/>
      <point x="175" y="319" type="line" smooth="yes"/>
      <point x="175" y="430"/>
      <point x="241" y="511"/>
      <point x="343" y="511" type="curve" smooth="yes"/>
      <point x="416" y="511"/>
      <point x="454" y="492"/>
      <point x="503" y="448" type="curve"/>
      <point x="507" y="448" type="line"/>
      <point x="515" y="470"/>
      <point x="519" y="489"/>
      <point x="519" y="515" type="curve" smooth="yes"/>
      <point x="519" y="550"/>
      <point x="513" y="571"/>
      <point x="497" y="587" type="curve" smooth="yes"/>
      <point x="472" y="612"/>
      <point x="422" y="629"/>
    </contour>
    <contour>
      <point x="153" y="279" type="curve"/>
      <point x="96" y="195"/>
      <point x="195" y="71"/>
      <point x="321" y="71" type="curve" smooth="yes"/>
      <point x="418" y="71"/>
      <point x="470" y="93"/>
      <point x="496" y="119" type="curve" smooth="yes"/>
      <point x="514" y="136"/>
      <point x="525" y="177"/>
      <point x="525" y="206" type="curve"/>
      <point x="525" y="223"/>
      <point x="524" y="234"/>
      <point x="522" y="245" type="curve"/>
      <point x="518" y="245" type="line"/>
      <point x="465" y="203"/>
      <point x="410" y="183"/>
      <point x="328" y="183" type="curve" smooth="yes"/>
      <point x="241" y="183"/>
      <point x="201" y="206"/>
    </contour>
  </outline>
</glyph>
<glyph name="sterling" format="1">
  <advance width="600"/>
  <unicode hex="00A3"/>
  <outline>
    <contour>
      <point x="329" y="604" type="curve" smooth="yes"/>
      <point x="416" y="604"/>
      <point x="476" y="586"/>
      <point x="526" y="528" type="curve"/>
      <point x="530" y="528" type="line"/>
      <point x="536" y="547"/>
      <point x="538" y="562"/>
      <point x="538" y="585" type="curve" smooth="yes"/>
      <point x="538" y="629"/>
      <point x="531" y="650"/>
      <point x="507" y="673" type="curve" smooth="yes"/>
      <point x="480" y="701"/>
      <point x="416" y="720"/>
      <point x="328" y="720" type="curve" smooth="yes"/>
      <point x="172" y="720"/>
      <point x="84" y="643"/>
      <point x="84" y="543" type="curve" smooth="yes"/>
      <point x="84" y="531" type="line" smooth="yes"/>
      <point x="84" y="498"/>
      <point x="121" y="487"/>
      <point x="186" y="484" type="curve"/>
      <point x="186" y="560"/>
      <point x="230" y="604"/>
    </contour>
    <contour>
      <point x="84" y="531" type="curve" smooth="yes"/>
      <point x="84" y="409"/>
      <point x="180" y="312"/>
      <point x="180" y="188" type="curve" smooth="yes"/>
      <point x="180" y="134"/>
      <point x="142" y="100"/>
      <point x="75" y="100" type="curve" smooth="yes"/>
      <point x="66" y="100"/>
      <point x="59" y="101"/>
      <point x="53" y="105" type="curve"/>
      <point x="49" y="105" type="line"/>
      <point x="45" y="89"/>
      <point x="44" y="78"/>
      <point x="44" y="61" type="curve" smooth="yes"/>
      <point x="44" y="10"/>
      <point x="61" y="-17"/>
      <point x="104" y="-17" type="curve" smooth="yes"/>
      <point x="111" y="-17" type="line" smooth="yes"/>
      <point x="211" y="-17"/>
      <point x="287" y="54"/>
      <point x="287" y="168" type="curve" smooth="yes"/>
      <point x="287" y="291"/>
      <point x="203" y="398"/>
      <point x="203" y="519" type="curve" smooth="yes"/>
      <point x="203" y="553"/>
      <point x="210" y="583"/>
      <point x="233" y="619" type="curve"/>
      <point x="134" y="619"/>
      <point x="84" y="583"/>
    </contour>
    <contour>
      <point x="204" y="87" type="curve"/>
      <point x="296" y="13"/>
      <point x="368" y="-17"/>
      <point x="463" y="-17" type="curve" smooth="yes"/>
      <point x="470" y="-17" type="line" smooth="yes"/>
      <point x="533" y="-17"/>
      <point x="559" y="17"/>
      <point x="559" y="84" type="curve"/>
      <point x="559" y="109"/>
      <point x="555" y="130"/>
      <point x="550" y="147" type="curve"/>
      <point x="546" y="147" type="line"/>
      <point x="521" y="118"/>
      <point x="493" y="106"/>
      <point x="443" y="106" type="curve" smooth="yes"/>
      <point x="372" y="106"/>
      <point x="312" y="121"/>
      <point x="223" y="164" type="curve"/>
      <point x="198" y="140"/>
      <point x="191" y="107"/>
    </contour>
    <contour>
      <point x="50" y="383" type="line"/>
      <point x="50" y="378"/>
      <point x="50" y="373"/>
      <point x="50" y="367" type="curve" smooth="yes"/>
      <point x="50" y="323"/>
      <point x="56" y="297"/>
      <point x="71" y="282" type="curve" smooth="yes"/>
      <point x="82" y="271"/>
      <point x="96" y="267"/>
      <point x="128" y="267" type="curve" smooth="yes"/>
      <point x="456" y="267" type="line"/>
      <point x="459" y="282"/>
      <point x="461" y="298"/>
      <point x="461" y="312" type="curve" smooth="yes"/>
      <point x="461" y="363"/>
      <point x="448" y="383"/>
      <point x="405" y="383" type="curve" smooth="yes"/>
    </contour>
  </outline>
</glyph>
<glyph name="currency" format="1">
  <advance width="600"/>
  <unicode hex="00A4"/>
  <outline>
    <contour>
      <point x="255" y="421" type="curve"/>
      <point x="231" y="441"/>
      <point x="208" y="464"/>
      <point x="187" y="489" type="curve" smooth="yes"/>
      <point x="175" y="504"/>
      <point x="163" y="511"/>
      <point x="151" y="511" type="curve" smooth="yes"/>
      <point x="136" y="511"/>
      <point x="121" y="503"/>
      <point x="104" y="486" type="curve" smooth="yes"/>
      <point x="94" y="476"/>
      <point x="84" y="463"/>
      <point x="76" y="451" type="curve"/>
      <point x="90" y="433"/>
      <point x="107" y="416"/>
      <point x="123" y="402" type="curve" smooth="yes"/>
      <point x="157" y="371"/>
      <point x="207" y="373"/>
      <point x="244" y="411" type="curve" smooth="yes"/>
      <point x="248" y="415"/>
      <point x="252" y="418"/>
    </contour>
    <contour>
      <point x="344" y="421" type="curve"/>
      <point x="347" y="418"/>
      <point x="351" y="414"/>
      <point x="355" y="410" type="curve" smooth="yes"/>
      <point x="393" y="372"/>
      <point x="435" y="366"/>
      <point x="473" y="398" type="curve" smooth="yes"/>
      <point x="490" y="414"/>
      <point x="507" y="431"/>
      <point x="523" y="450" type="curve"/>
      <point x="515" y="463"/>
      <point x="505" y="475"/>
      <point x="495" y="485" type="curve" smooth="yes"/>
      <point x="478" y="503"/>
      <point x="462" y="511"/>
      <point x="448" y="511" type="curve" smooth="yes"/>
      <point x="435" y="511"/>
      <point x="424" y="504"/>
      <point x="412" y="489" type="curve" smooth="yes"/>
      <point x="391" y="463"/>
      <point x="369" y="440"/>
    </contour>
    <contour>
      <point x="343" y="175" type="curve"/>
      <point x="368" y="155"/>
      <point x="391" y="132"/>
      <point x="411" y="107" type="curve" smooth="yes"/>
      <point x="423" y="92"/>
      <point x="435" y="85"/>
      <point x="447" y="85" type="curve" smooth="yes"/>
      <point x="462" y="85"/>
      <point x="477" y="94"/>
      <point x="495" y="110" type="curve" smooth="yes"/>
      <point x="504" y="120"/>
      <point x="514" y="133"/>
      <point x="523" y="146" type="curve"/>
      <point x="508" y="163"/>
      <point x="491" y="180"/>
      <point x="475" y="194" type="curve" smooth="yes"/>
      <point x="441" y="225"/>
      <point x="392" y="223"/>
      <point x="354" y="186" type="curve" smooth="yes"/>
      <point x="350" y="182"/>
      <point x="347" y="178"/>
    </contour>
    <contour>
      <point x="254" y="175" type="curve"/>
      <point x="250" y="178"/>
      <point x="247" y="182"/>
      <point x="243" y="186" type="curve" smooth="yes"/>
      <point x="205" y="224"/>
      <point x="163" y="230"/>
      <point x="124" y="198" type="curve" smooth="yes"/>
      <point x="107" y="182"/>
      <point x="90" y="165"/>
      <point x="74" y="146" type="curve"/>
      <point x="83" y="133"/>
      <point x="92" y="121"/>
      <point x="102" y="111" type="curve" smooth="yes"/>
      <point x="119" y="93"/>
      <point x="135" y="85"/>
      <point x="150" y="85" type="curve" smooth="yes"/>
      <point x="162" y="85"/>
      <point x="174" y="92"/>
      <point x="186" y="107" type="curve" smooth="yes"/>
      <point x="206" y="133"/>
      <point x="228" y="156"/>
    </contour>
    <contour>
      <point x="317" y="189" type="curve"/>
      <point x="253" y="189"/>
      <point x="214" y="229"/>
      <point x="214" y="294" type="curve" smooth="yes"/>
      <point x="214" y="301" type="line" smooth="yes"/>
      <point x="214" y="361"/>
      <point x="246" y="395"/>
      <point x="307" y="395" type="curve" smooth="yes"/>
      <point x="336" y="395"/>
      <point x="356" y="389"/>
      <point x="383" y="366" type="curve"/>
      <point x="404" y="415"/>
      <point x="368" y="476"/>
      <point x="302" y="476" type="curve"/>
      <point x="201" y="476"/>
      <point x="130" y="404"/>
      <point x="130" y="302" type="curve" smooth="yes"/>
      <point x="130" y="295" type="line" smooth="yes"/>
      <point x="130" y="195"/>
      <point x="200" y="128"/>
      <point x="296" y="128" type="curve"/>
      <point x="311" y="128"/>
      <point x="317" y="153"/>
    </contour>
    <contour>
      <point x="281" y="409" type="curve"/>
      <point x="345" y="409"/>
      <point x="384" y="371"/>
      <point x="384" y="310" type="curve" smooth="yes"/>
      <point x="384" y="303" type="line" smooth="yes"/>
      <point x="384" y="243"/>
      <point x="352" y="209"/>
      <point x="291" y="209" type="curve" smooth="yes"/>
      <point x="262" y="209"/>
      <point x="242" y="215"/>
      <point x="215" y="238" type="curve"/>
      <point x="194" y="189"/>
      <point x="230" y="128"/>
      <point x="296" y="128" type="curve"/>
      <point x="397" y="128"/>
      <point x="468" y="200"/>
      <point x="468" y="302" type="curve" smooth="yes"/>
      <point x="468" y="309" type="line" smooth="yes"/>
      <point x="468" y="409"/>
      <point x="398" y="476"/>
      <point x="302" y="476" type="curve"/>
      <point x="287" y="476"/>
      <point x="281" y="457"/>
    </contour>
  </outline>
</glyph>
<glyph name="yen" format="1">
  <advance width="600"/>
  <unicode hex="00A5"/>
  <outline>
    <contour>
      <point x="17" y="413" type="line"/>
      <point x="17" y="408"/>
      <point x="17" y="403"/>
      <point x="17" y="397" type="curve" smooth="yes"/>
      <point x="17" y="360"/>
      <point x="25" y="338"/>
      <point x="38" y="325" type="curve" smooth="yes"/>
      <point x="49" y="314"/>
      <point x="63" y="310"/>
      <point x="95" y="310" type="curve"/>
      <point x="197" y="310" type="line"/>
      <point x="199" y="325"/>
      <point x="201" y="342"/>
      <point x="201" y="355" type="curve" smooth="yes"/>
      <point x="201" y="395"/>
      <point x="188" y="413"/>
      <point x="145" y="413" type="curve"/>
    </contour>
    <contour>
      <point x="376" y="413" type="line"/>
      <point x="370" y="396"/>
      <point x="366" y="383"/>
      <point x="366" y="363" type="curve" smooth="yes"/>
      <point x="366" y="334"/>
      <point x="387" y="310"/>
      <point x="413" y="310" type="curve"/>
      <point x="578" y="310" type="line"/>
      <point x="581" y="325"/>
      <point x="583" y="342"/>
      <point x="583" y="355" type="curve" smooth="yes"/>
      <point x="583" y="395"/>
      <point x="570" y="413"/>
      <point x="527" y="413" type="curve"/>
    </contour>
    <contour>
      <point x="574" y="107" type="line"/>
      <point x="576" y="114"/>
      <point x="576" y="123"/>
      <point x="576" y="131" type="curve" smooth="yes"/>
      <point x="576" y="163"/>
      <point x="569" y="181"/>
      <point x="556" y="195" type="curve" smooth="yes"/>
      <point x="545" y="206"/>
      <point x="530" y="210"/>
      <point x="498" y="210" type="curve"/>
      <point x="28" y="210" type="line"/>
      <point x="26" y="195"/>
      <point x="24" y="178"/>
      <point x="24" y="165" type="curve" smooth="yes"/>
      <point x="24" y="124"/>
      <point x="36" y="107"/>
      <point x="79" y="107" type="curve"/>
    </contour>
    <contour>
      <point x="46" y="710" type="line"/>
      <point x="76" y="464"/>
      <point x="127" y="337"/>
      <point x="229" y="235" type="curve"/>
      <point x="258" y="207"/>
      <point x="283" y="203"/>
      <point x="304" y="203" type="curve"/>
      <point x="338" y="203"/>
      <point x="359" y="218"/>
      <point x="360" y="275" type="curve"/>
      <point x="249" y="356"/>
      <point x="203" y="440"/>
      <point x="172" y="671" type="curve"/>
      <point x="170" y="694"/>
      <point x="117" y="710"/>
      <point x="65" y="710" type="curve" smooth="yes"/>
    </contour>
    <contour>
      <point x="434" y="710" type="line"/>
      <point x="409" y="476"/>
      <point x="370" y="384"/>
      <point x="261" y="288" type="curve"/>
      <point x="235" y="266"/>
      <point x="263" y="203"/>
      <point x="304" y="203" type="curve"/>
      <point x="340" y="203" type="line"/>
      <point x="449" y="302"/>
      <point x="527" y="449"/>
      <point x="550" y="652" type="curve"/>
      <point x="553" y="685"/>
      <point x="504" y="710"/>
      <point x="453" y="710" type="curve"/>
    </contour>
    <contour>
      <point x="372" y="-4" type="curve"/>
      <point x="364" y="31"/>
      <point x="361" y="68"/>
      <point x="361" y="107" type="curve" smooth="yes"/>
      <point x="361" y="249" type="line" smooth="yes"/>
      <point x="361" y="281"/>
      <point x="308" y="301"/>
      <point x="239" y="301" type="curve"/>
      <point x="239" y="57" type="line" smooth="yes"/>
      <point x="239" y="33"/>
      <point x="242" y="19"/>
      <point x="254" y="7" type="curve" smooth="yes"/>
      <point x="266" y="-5"/>
      <point x="285" y="-10"/>
      <point x="322" y="-10" type="curve" smooth="yes"/>
      <point x="341" y="-10"/>
      <point x="355" y="-8"/>
    </contour>
  </outline>
</glyph>
<glyph name="brokenbar" format="1">
  <advance width="600"/>
  <unicode hex="00A6"/>
  <outline>
    <contour>
      <point x="228" y="759" type="curve"/>
      <point x="236" y="723"/>
      <point x="239" y="687"/>
      <point x="239" y="648" type="curve" smooth="yes"/>
      <point x="239" y="419" type="line" smooth="yes"/>
      <point x="239" y="384"/>
      <point x="272" y="367"/>
      <point x="333" y="367" type="curve" smooth="yes"/>
      <point x="346" y="367"/>
      <point x="355" y="368"/>
      <point x="361" y="369" type="curve"/>
      <point x="361" y="698" type="line" smooth="yes"/>
      <point x="361" y="722"/>
      <point x="358" y="736"/>
      <point x="346" y="747" type="curve" smooth="yes"/>
      <point x="334" y="759"/>
      <point x="315" y="764"/>
      <point x="278" y="764" type="curve" smooth="yes"/>
      <point x="259" y="764"/>
      <point x="245" y="763"/>
    </contour>
    <contour>
      <point x="239" y="229" type="curve"/>
      <point x="239" y="-111" type="line"/>
      <point x="239" y="-146"/>
      <point x="272" y="-163"/>
      <point x="333" y="-163" type="curve" smooth="yes"/>
      <point x="346" y="-163"/>
      <point x="355" y="-162"/>
      <point x="361" y="-161" type="curve"/>
      <point x="361" y="176" type="line" smooth="yes"/>
      <point x="361" y="218"/>
      <point x="339" y="234"/>
      <point x="282" y="234" type="curve" smooth="yes"/>
      <point x="266" y="234"/>
      <point x="250" y="233"/>
    </contour>
  </outline>
</glyph>
<glyph name="section" format="1">
  <advance width="600"/>
  <unicode hex="00A7"/>
  <outline>
    <contour>
      <point x="376" y="720" type="curve" smooth="yes"/>
      <point x="219" y="720"/>
      <point x="77" y="575"/>
      <point x="77" y="444" type="curve" smooth="yes"/>
      <point x="77" y="432" type="line" smooth="yes"/>
      <point x="77" y="404"/>
      <point x="137" y="376"/>
      <point x="199" y="374" type="curve"/>
      <point x="193" y="396"/>
      <point x="193" y="420"/>
      <point x="193" y="442" type="curve" smooth="yes"/>
      <point x="193" y="518"/>
      <point x="294" y="604"/>
      <point x="377" y="604" type="curve" smooth="yes"/>
      <point x="434" y="604"/>
      <point x="461" y="574"/>
      <point x="461" y="520" type="curve"/>
      <point x="498" y="520"/>
      <point x="516" y="548"/>
      <point x="516" y="564" type="curve" smooth="yes"/>
      <point x="516" y="617"/>
      <point x="506" y="650"/>
      <point x="479" y="677" type="curve" smooth="yes"/>
      <point x="453" y="703"/>
      <point x="420" y="720"/>
    </contour>
    <contour>
      <point x="384" y="328" type="curve" smooth="yes"/>
      <point x="294" y="361" type="line" smooth="yes"/>
      <point x="208" y="392"/>
      <point x="193" y="409"/>
      <point x="193" y="442" type="curve" smooth="yes"/>
      <point x="193" y="469"/>
      <point x="194" y="487"/>
      <point x="201" y="510" type="curve"/>
      <point x="135" y="506"/>
      <point x="77" y="486"/>
      <point x="77" y="432" type="curve" smooth="yes"/>
      <point x="77" y="369"/>
      <point x="111" y="319"/>
      <point x="253" y="266" type="curve" smooth="yes"/>
      <point x="341" y="234" type="line" smooth="yes"/>
      <point x="411" y="208"/>
      <point x="429" y="186"/>
      <point x="429" y="142" type="curve" smooth="yes"/>
      <point x="429" y="136" type="line" smooth="yes"/>
      <point x="429" y="103"/>
      <point x="422" y="83"/>
      <point x="400" y="56" type="curve"/>
      <point x="410" y="44"/>
      <point x="429" y="36"/>
      <point x="448" y="36" type="curve" smooth="yes"/>
      <point x="486" y="36"/>
      <point x="541" y="75"/>
      <point x="541" y="152" type="curve" smooth="yes"/>
      <point x="541" y="158" type="line" smooth="yes"/>
      <point x="541" y="220"/>
      <point x="507" y="284"/>
    </contour>
    <contour>
      <point x="384" y="96" type="curve" smooth="yes"/>
      <point x="294" y="129" type="line" smooth="yes"/>
      <point x="208" y="160"/>
      <point x="193" y="183"/>
      <point x="193" y="222" type="curve" smooth="yes"/>
      <point x="193" y="229" type="line" smooth="yes"/>
      <point x="193" y="254"/>
      <point x="204" y="284"/>
      <point x="227" y="308" type="curve"/>
      <point x="214" y="316"/>
      <point x="200" y="322"/>
      <point x="180" y="322" type="curve" smooth="yes"/>
      <point x="124" y="322"/>
      <point x="77" y="265"/>
      <point x="77" y="207" type="curve" smooth="yes"/>
      <point x="77" y="200" type="line" smooth="yes"/>
      <point x="77" y="137"/>
      <point x="111" y="87"/>
      <point x="259" y="32" type="curve" smooth="yes"/>
      <point x="348" y="-1" type="line" smooth="yes"/>
      <point x="421" y="-28"/>
      <point x="440" y="-60"/>
      <point x="440" y="-126" type="curve" smooth="yes"/>
      <point x="440" y="-129"/>
      <point x="440" y="-134"/>
      <point x="440" y="-138" type="curve"/>
      <point x="484" y="-137"/>
      <point x="541" y="-97"/>
      <point x="541" y="-66" type="curve"/>
      <point x="541" y="-11"/>
      <point x="507" y="52"/>
    </contour>
    <contour>
      <point x="300" y="-249" type="curve" smooth="yes"/>
      <point x="459" y="-249"/>
      <point x="541" y="-183"/>
      <point x="541" y="-78" type="curve" smooth="yes"/>
      <point x="541" y="-66" type="line" smooth="yes"/>
      <point x="541" y="-46"/>
      <point x="499" y="-21"/>
      <point x="469" y="-19" type="curve"/>
      <point x="469" y="-23"/>
      <point x="469" y="-26"/>
      <point x="469" y="-33" type="curve" smooth="yes"/>
      <point x="469" y="-95"/>
      <point x="400" y="-134"/>
      <point x="300" y="-134" type="curve" smooth="yes"/>
      <point x="196" y="-134"/>
      <point x="124" y="-104"/>
      <point x="70" y="-46" type="curve"/>
      <point x="66" y="-46" type="line"/>
      <point x="62" y="-60"/>
      <point x="59" y="-77"/>
      <point x="59" y="-99" type="curve" smooth="yes"/>
      <point x="59" y="-142"/>
      <point x="70" y="-174"/>
      <point x="89" y="-192" type="curve" smooth="yes"/>
      <point x="124" y="-227"/>
      <point x="206" y="-249"/>
    </contour>
    <contour>
      <point x="516" y="442" type="curve"/>
      <point x="516" y="564" type="line" smooth="yes"/>
      <point x="516" y="640"/>
      <point x="467" y="657"/>
      <point x="412" y="651" type="curve"/>
      <point x="406" y="613"/>
      <point x="401" y="565"/>
      <point x="401" y="530" type="curve" smooth="yes"/>
      <point x="401" y="493" type="line" smooth="yes"/>
      <point x="401" y="475"/>
      <point x="405" y="462"/>
      <point x="414" y="454" type="curve" smooth="yes"/>
      <point x="425" y="442"/>
      <point x="442" y="437"/>
      <point x="474" y="437" type="curve" smooth="yes"/>
      <point x="491" y="437"/>
      <point x="505" y="439"/>
    </contour>
  </outline>
</glyph>
<glyph name="ordfeminine" format="1">
  <advance width="600"/>
  <unicode hex="00AA"/>
  <outline>
    <contour>
      <point x="289" y="760" type="curve" smooth="yes"/>
      <point x="211" y="760"/>
      <point x="164" y="750"/>
      <point x="144" y="731" type="curve" smooth="yes"/>
      <point x="131" y="717"/>
      <point x="125" y="699"/>
      <point x="125" y="674" type="curve" smooth="yes"/>
      <point x="125" y="662"/>
      <point x="126" y="652"/>
      <point x="129" y="641" type="curve"/>
      <point x="133" y="641" type="line"/>
      <point x="175" y="657"/>
      <point x="213" y="664"/>
      <point x="264" y="664" type="curve" smooth="yes"/>
      <point x="356" y="664"/>
      <point x="397" y="627"/>
      <point x="429" y="543" type="curve"/>
      <point x="458" y="543"/>
      <point x="471" y="554"/>
      <point x="471" y="581" type="curve"/>
      <point x="471" y="678"/>
      <point x="407" y="760"/>
    </contour>
    <contour>
      <point x="337" y="677" type="curve"/>
      <point x="364" y="644"/>
      <point x="371" y="625"/>
      <point x="371" y="580" type="curve" smooth="yes"/>
      <point x="371" y="506"/>
      <point x="371" y="474"/>
      <point x="371" y="419" type="curve" smooth="yes"/>
      <point x="371" y="350"/>
      <point x="423" y="329"/>
      <point x="483" y="346" type="curve"/>
      <point x="472" y="363"/>
      <point x="471" y="375"/>
      <point x="471" y="400" type="curve" smooth="yes"/>
      <point x="471" y="472"/>
      <point x="471" y="511"/>
      <point x="471" y="581" type="curve" smooth="yes"/>
      <point x="471" y="631"/>
      <point x="405" y="697"/>
    </contour>
    <contour>
      <point x="536" y="393" type="line"/>
      <point x="532" y="393" type="line"/>
      <point x="527" y="391"/>
      <point x="521" y="390"/>
      <point x="515" y="390" type="curve" smooth="yes"/>
      <point x="490" y="390"/>
      <point x="459" y="399"/>
      <point x="444" y="450" type="curve"/>
      <point x="392" y="451"/>
      <point x="371" y="444"/>
      <point x="371" y="419" type="curve" smooth="yes"/>
      <point x="371" y="347"/>
      <point x="423" y="290"/>
      <point x="487" y="290" type="curve" smooth="yes"/>
      <point x="490" y="290" type="line" smooth="yes"/>
      <point x="523" y="290"/>
      <point x="536" y="343"/>
      <point x="536" y="381" type="curve"/>
    </contour>
    <contour>
      <point x="197" y="428" type="curve" smooth="yes"/>
      <point x="197" y="437" type="line" smooth="yes"/>
      <point x="197" y="474"/>
      <point x="210" y="493"/>
      <point x="225" y="512" type="curve"/>
      <point x="176" y="528"/>
      <point x="97" y="470"/>
      <point x="97" y="426" type="curve" smooth="yes"/>
      <point x="97" y="413" type="line" smooth="yes"/>
      <point x="97" y="334"/>
      <point x="144" y="290"/>
      <point x="227" y="290" type="curve" smooth="yes"/>
      <point x="298" y="290"/>
      <point x="355" y="324"/>
      <point x="391" y="383" type="curve" smooth="yes"/>
      <point x="407" y="409"/>
      <point x="401" y="431"/>
      <point x="394" y="454" type="curve"/>
      <point x="345" y="399"/>
      <point x="297" y="379"/>
      <point x="259" y="379" type="curve" smooth="yes"/>
      <point x="256" y="379" type="line" smooth="yes"/>
      <point x="213" y="379"/>
      <point x="197" y="394"/>
    </contour>
    <contour>
      <point x="404" y="530" type="curve" smooth="yes"/>
      <point x="387" y="547"/>
      <point x="332" y="560"/>
      <point x="243" y="560" type="curve" smooth="yes"/>
      <point x="155" y="560"/>
      <point x="97" y="495"/>
      <point x="97" y="426" type="curve" smooth="yes"/>
      <point x="97" y="406"/>
      <point x="109" y="394"/>
      <point x="133" y="394" type="curve"/>
      <point x="164" y="462"/>
      <point x="207" y="491"/>
      <point x="280" y="491" type="curve" smooth="yes"/>
      <point x="322" y="491"/>
      <point x="373" y="485"/>
      <point x="420" y="474" type="curve"/>
      <point x="421" y="503"/>
      <point x="414" y="520"/>
    </contour>
  </outline>
</glyph>
<glyph name="guillemotleft" format="1">
  <advance width="600"/>
  <unicode hex="00AB"/>
  <outline>
    <contour>
      <point x="326" y="504" type="line"/>
      <point x="302" y="512"/>
      <point x="286" y="515"/>
      <point x="258" y="515" type="curve" smooth="yes"/>
      <point x="228" y="515"/>
      <point x="211" y="511"/>
      <point x="192" y="497" type="curve" smooth="yes"/>
      <point x="131" y="451"/>
      <point x="89" y="403"/>
      <point x="42" y="325" type="curve"/>
      <point x="42" y="305" type="line"/>
      <point x="42" y="285"/>
      <point x="61" y="268"/>
      <point x="114" y="267" type="curve"/>
      <point x="167" y="365"/>
      <point x="216" y="420"/>
      <point x="326" y="500" type="curve"/>
    </contour>
    <contour>
      <point x="326" y="100" type="line"/>
      <point x="217" y="182"/>
      <point x="158" y="243"/>
      <point x="118" y="331" type="curve"/>
      <point x="58" y="322"/>
      <point x="42" y="320"/>
      <point x="42" y="309" type="curve"/>
      <point x="42" y="301" type="line" smooth="yes"/>
      <point x="42" y="276"/>
      <point x="48" y="259"/>
      <point x="71" y="225" type="curve" smooth="yes"/>
      <point x="119" y="156"/>
      <point x="153" y="126"/>
      <point x="184" y="106" type="curve"/>
      <point x="208" y="90"/>
      <point x="226" y="85"/>
      <point x="260" y="85" type="curve" smooth="yes"/>
      <point x="291" y="85"/>
      <point x="305" y="88"/>
      <point x="326" y="96" type="curve"/>
    </contour>
    <contour>
      <point x="560" y="504" type="line"/>
      <point x="535" y="512"/>
      <point x="519" y="515"/>
      <point x="491" y="515" type="curve" smooth="yes"/>
      <point x="461" y="515"/>
      <point x="445" y="511"/>
      <point x="426" y="497" type="curve" smooth="yes"/>
      <point x="364" y="451"/>
      <point x="323" y="403"/>
      <point x="275" y="325" type="curve"/>
      <point x="275" y="305" type="line"/>
      <point x="275" y="285"/>
      <point x="295" y="268"/>
      <point x="348" y="267" type="curve"/>
      <point x="401" y="365"/>
      <point x="449" y="420"/>
      <point x="560" y="500" type="curve"/>
    </contour>
    <contour>
      <point x="560" y="100" type="line"/>
      <point x="450" y="182"/>
      <point x="392" y="243"/>
      <point x="351" y="331" type="curve"/>
      <point x="291" y="322"/>
      <point x="275" y="320"/>
      <point x="275" y="309" type="curve"/>
      <point x="275" y="301" type="line" smooth="yes"/>
      <point x="275" y="276"/>
      <point x="281" y="259"/>
      <point x="304" y="225" type="curve" smooth="yes"/>
      <point x="352" y="156"/>
      <point x="386" y="126"/>
      <point x="417" y="106" type="curve"/>
      <point x="442" y="90"/>
      <point x="459" y="85"/>
      <point x="493" y="85" type="curve" smooth="yes"/>
      <point x="524" y="85"/>
      <point x="538" y="88"/>
      <point x="560" y="96" type="curve"/>
    </contour>
  </outline>
</glyph>
